<svg version="1.1" id="Layer_1" xmlns="http://www.w3.org/2000/svg" x="0" y="0" viewBox="0 0 434.9 105.9" xml:space="preserve"><style>.st1{fill:#f01363}.st2{fill:#ef0868}</style><path d="m77.2 26.4-20 20.1-15 15-3.1-3.2 14.9-15 20.1-20 3.1 3.1zm12.2 12.1L64.7 63.3l-4.5 4.4-4.7 4.8-4.4 4.4-8.7 8.7v-6.3l8.7-8.8.5-.5h.1l34.5-34.6 3.2 3.1z" fill="#fff"/><path class="st1" d="M38 55.2h-.3.3zM44.1 55.1h.3-.3zM62.3 95.9c-8.1 0-17.6-5.2-17.6-20l-.2-43.8c0-9.7 7.9-17.5 17.5-17.5 9.7 0 17.5 7.9 17.5 17.5 0 9.7-7.9 17.5-17.5 17.5-1.1 0-2.1-.1-3.2-.3-1.9-.3-3.8-1.1-5.6-2.2l.1 16.1c2.3-1.3 5-2.1 7.3-2.4.5-.1 1.1-.1 1.7-.1 9.7 0 17.5 7.9 17.5 17.5.1 9.8-7.8 17.7-17.5 17.7zm-5-24.6c-.9.6-1.6 1.3-2.1 2.1-.8 1.1-1.3 2.4-1.5 3.8l-.1.7v.4c0 4.8 3.9 8.7 8.7 8.7 4.8 0 8.7-3.9 8.7-8.7 0-4.8-3.9-8.7-8.7-8.7h-.8c-1.4.1-2.7.6-3.9 1.4l-.3.3zm4.6-30.5c4.9 0 8.8-3.9 8.8-8.7 0-4.8-3.9-8.7-8.7-8.7-4.6 0-8.4 3.6-8.7 8.2v1.6c.2 1.3.6 2.7 1.4 3.8.6.9 1.4 1.7 2.2 2.3 1 .7 2.2 1.2 3.4 1.4.4.1.8.1 1.2.1M1.5 78.4c0-9.7 7.9-17.5 17.5-17.5.6 0 1.1 0 1.7.1 2.3.2 5 1.1 7.3 2.4V47.2c-1.8 1.1-3.7 1.8-5.6 2.2-1 .2-2.1.3-3.2.3-9.7 0-17.5-7.9-17.5-17.5 0-9.7 7.9-17.5 17.5-17.5 9.7 0 17.5 7.9 17.5 17.5L36.5 76c0 14.8-9.5 20-17.6 20-9.5-.1-17.4-8-17.4-17.6zm22.4-7.3c-1.2-.8-2.5-1.3-3.9-1.4h-.8c-4.8 0-8.7 3.9-8.7 8.7 0 4.8 3.9 8.7 8.7 8.7 4.8 0 8.7-3.9 8.7-8.7V78l-.1-.7c-.2-1.3-.7-2.7-1.5-3.8-.6-.8-1.2-1.5-2.1-2.1l-.3-.3zm-4.1-30.3c.4 0 .8-.1 1.2-.1 1.2-.2 2.3-.7 3.4-1.4.9-.6 1.6-1.4 2.2-2.3.8-1.2 1.3-2.5 1.4-3.8v-1.6c-.2-4.6-4-8.2-8.7-8.2-4.8 0-8.7 3.9-8.7 8.7 0 4.8 3.9 8.7 8.8 8.7"/><g><path class="st2" d="M94 30.6h11.5l11.1 21h.5l11.1-21h11.5L122 62.1v17.2h-10.2V62.1L94 30.6zM148.5 80c-2.3 0-4.4-.4-6.2-1.2s-3.3-2-4.3-3.6c-1.1-1.6-1.6-3.6-1.6-6 0-2 .4-3.7 1.1-5.1.7-1.4 1.8-2.5 3-3.3s2.7-1.5 4.4-1.9c1.6-.4 3.4-.7 5.2-.9 2.1-.2 3.8-.4 5.1-.6 1.3-.2 2.2-.5 2.8-.9.6-.4.9-1 .9-1.8v-.1c0-1.5-.5-2.7-1.4-3.5-.9-.8-2.3-1.2-4-1.2-1.8 0-3.3.4-4.3 1.2-1.1.8-1.8 1.8-2.1 3l-9.4-.8c.5-2.2 1.4-4.1 2.8-5.8 1.4-1.6 3.2-2.9 5.4-3.8 2.2-.9 4.8-1.3 7.7-1.3 2 0 4 .2 5.8.7 1.9.5 3.5 1.2 5 2.2s2.6 2.3 3.4 3.8c.8 1.6 1.3 3.4 1.3 5.6v24.6h-9.6v-5.1h-.3c-.6 1.1-1.4 2.1-2.4 3s-2.2 1.5-3.5 2c-1.4.5-3 .8-4.8.8zm2.9-7c1.5 0 2.8-.3 3.9-.9s2-1.4 2.7-2.4 1-2.2 1-3.4v-3.9c-.3.2-.7.4-1.3.6-.5.2-1.2.3-1.8.5-.7.1-1.4.3-2 .4-.7.1-1.3.2-1.9.3-1.2.2-2.2.5-3.1.8-.9.4-1.6.9-2.1 1.5s-.7 1.4-.7 2.4c0 1.4.5 2.4 1.5 3.1 1 .6 2.3 1 3.8 1zM177.1 30.6h12.7l13.4 32.7h.6l13.4-32.7h12.7v48.6h-10V47.6h-.4L206.9 79h-6.8l-12.6-31.5h-.4v31.8h-10V30.6zM261.5 63.7v-21h10.1v36.5h-9.7v-6.6h-.4c-.8 2.1-2.2 3.9-4.1 5.2s-4.2 1.9-7 1.9c-2.4 0-4.6-.6-6.4-1.7s-3.3-2.7-4.3-4.7-1.6-4.5-1.6-7.3V42.8h10.1v21.4c0 2.2.6 3.9 1.7 5.1 1.1 1.3 2.7 1.9 4.6 1.9 1.2 0 2.4-.3 3.4-.8 1.1-.6 1.9-1.4 2.6-2.5s1-2.5 1-4.2zM279.7 79.3V42.8h9.6v6.4h.4c.8-2.1 2-3.8 3.8-5.1 1.8-1.2 3.9-1.9 6.4-1.9 2.5 0 4.6.6 6.4 1.9s2.9 2.9 3.5 5h.4c.7-2.1 2.1-3.8 4-5 2-1.3 4.3-1.9 6.9-1.9 3.4 0 6.2 1.1 8.3 3.2s3.2 5.2 3.2 9.2v24.5h-10.1V56.7c0-2-.5-3.5-1.6-4.6-1.1-1-2.4-1.5-4-1.5-1.8 0-3.3.6-4.3 1.7-1 1.2-1.5 2.7-1.5 4.6v22.3h-9.8V56.5c0-1.8-.5-3.2-1.5-4.3-1-1.1-2.4-1.6-4-1.6-1.1 0-2.1.3-3 .8s-1.6 1.3-2.1 2.4c-.5 1-.8 2.2-.8 3.5v21.9h-10.2zM340.7 79.3V42.8h9.6v6.4h.4c.8-2.1 2-3.8 3.8-5.1 1.8-1.2 3.9-1.9 6.4-1.9 2.5 0 4.6.6 6.4 1.9s2.9 2.9 3.5 5h.4c.7-2.1 2.1-3.8 4-5 2-1.3 4.3-1.9 6.9-1.9 3.4 0 6.2 1.1 8.3 3.2s3.2 5.2 3.2 9.2v24.5h-10.1V56.7c0-2-.5-3.5-1.6-4.6-1.1-1-2.4-1.5-4-1.5-1.8 0-3.3.6-4.3 1.7-1 1.2-1.5 2.7-1.5 4.6v22.3h-9.8V56.5c0-1.8-.5-3.2-1.5-4.3-1-1.1-2.4-1.6-4-1.6-1.1 0-2.1.3-3 .8s-1.6 1.3-2.1 2.4c-.5 1-.8 2.2-.8 3.5v21.9h-10.2zM406.6 92.9c-1.3 0-2.5-.1-3.6-.3-1.1-.2-2-.4-2.8-.7l2.3-7.6c1.8.6 3.3.7 4.5.4 1.2-.3 2.2-1.2 2.9-2.9l.6-1.5-13.1-37.5H408l7.6 26.8h.4l7.6-26.8h10.7l-14.2 40.4c-.7 1.9-1.6 3.6-2.8 5.1-1.2 1.4-2.6 2.6-4.4 3.4s-3.8 1.2-6.3 1.2z"/></g></svg>