<svg clip-rule="evenodd" fill-rule="evenodd" height="512" image-rendering="optimizeQuality" shape-rendering="geometricPrecision" text-rendering="geometricPrecision" viewBox="0 0 43.3492 43.3492" width="512" xmlns="http://www.w3.org/2000/svg"><g id="Layer_x0020_1"><g id="_465166704"><path id="_465168048" d="m24.4569 16.2313h-5.5774c-.184 0-.3334-.1491-.3334-.3333.0001-.1842.1493-.3335.3334-.3335h5.5774c.184 0 .3333.1493.3333.3335.0002.1841-.1493.3334-.3333.3333zm18.5457 15.5509h-42.6688c-.1154 0-.2224-.0593-.2831-.1571-.0607-.0977-.0678-.22-.0165-.3233l7.6326-15.5509c.0565-.1141.1719-.1864.2996-.1864h3.707c.184 0 .3333.1493.3333.3335.0002.1841-.1494.3334-.3334.3334l-3.4993-.0001-7.3052 14.8839h41.5885l-7.6196-14.8839h-3.1744c-.1843 0-.3337-.1491-.3337-.3333.0002-.1842.1494-.3335.3335-.3335h3.3788c.125 0 .2395.0701.2968.1815l7.961 15.5507c.053.1035.0485.227-.0123.3261-.0607.0988-.1685.1594-.2848.1594z"/><path id="_465167496" d="m21.6677 12.443c-.184 0-.3326-.1491-.3326-.3333l.0001-4.3824c0-.1841.1484-.3333.3325-.3333.185 0 .3335.1493.3335.3334v4.3823c0 .1841-.1485.3335-.3335.3333z"/><path id="_465167616" d="m23.8594 12.4643c-.119 0-.2345-.0643-.2944-.1773-1.7088-3.2222.0044-4.73.0782-4.7927.1408-.1193.3508-.1019.4706.0385.119.1404.1016.3508-.0391.47-.0537.0476-1.365 1.2478.0791 3.9719.086.1626.0243.3645-.1381.4507-.0504.0264-.1033.0389-.1563.0389z"/><path id="_465167424" d="m19.477 12.4219c-.053 0-.106-.0123-.1564-.0388-.1623-.0862-.2249-.288-.138-.4507 1.4598-2.7537.0929-3.9601.079-3.9719-.1406-.1193-.1581-.3296-.0391-.47.1199-.1405.33-.1576.4706-.0385.074.0625 1.7871 1.5706.0782 4.7927-.0599.1127-.1754.1774-.2943.1772z"/><path id="_465167472" d="m33.9982 16.2313c-.0028 0-.0054.0001-.008 0-.1841-.0045-.33-.1571-.3256-.3412.0235-.9725.1641-2.1267.3134-3.3488.3293-2.6977.7034-5.7553-.2978-6.7657-.2752-.2781-.6547-.387-1.161-.333-.5834.1219-1.2912.7252-1.9763 1.3087-.9871.841-2.0075 1.7107-3.0478 1.5674-.541-.0745-1.0229-.4211-1.4319-1.0301-1.325-1.9732-2.8446-3.016-4.3946-3.016-.0009-.0001-.0009 0-.0017 0-1.5516.0004-3.073 1.0462-4.399 3.0238-.4054.6042-.8839.9485-1.4214 1.023-1.0419.1441-2.0658-.7274-3.0566-1.5702-.685-.5828-1.3928-1.1853-1.9728-1.3066-.5061-.0539-.8857.055-1.161.333-1.0011 1.0104-.6269 4.0679-.2978 6.7656.1493 1.2222.29 2.3765.3134 3.3489.0045.184-.1415.3369-.3256.3412-.1839.0065-.3369-.1413-.3413-.3254-.0223-.9398-.1614-2.0784-.3082-3.2839-.3645-2.9871-.7424-6.0758.4854-7.3157.4247-.4289 1.0055-.6054 1.7236-.5248.0097.0009.0183.0024.0278.0042.7531.1485 1.4988.7834 2.2889 1.4556.879.7475 1.7871 1.5208 2.5321 1.4175.3465-.048.6608-.288.9595-.7338 1.4555-2.1709 3.1685-3.3186 4.953-3.3193h.0017c1.7827 0 3.4933 1.1448 4.9486 3.3111.3022.4506.6191.6932.9682.7413.7452.1026 1.6498-.6687 2.5251-1.4144.7902-.6732 1.536-1.3087 2.2924-1.458.0096-.0019.0182-.0032.0278-.0042.719-.0808 1.299.0959 1.7236.5248 1.2279 1.2399.851 4.3288.4854 7.3159-.1466 1.2053-.2857 2.344-.3083 3.2837-.0042.1812-.1528.3255-.3332.3254z"/><path id="_465167760" d="m10.3569 39.7435h-3.5132c-.1581 0-.2944-.1106-.3266-.2651l-.7024-3.3626c-.0381-.1802.0772-.3567.2578-.3945.1808-.0375.3569.0779.3942.2582l.648 3.0974h2.9714l.6477-3.0975c.0373-.1802.2135-.2956.3941-.2581.1807.0377.2961.2144.2588.3946l-.7033 3.3624c-.032.1546-.1685.2653-.3265.2652z"/><path id="_465167976" d="m36.5058 39.7435h-3.514c-.158 0-.2937-.1106-.3267-.2651l-.7023-3.3626c-.0374-.1802.078-.3567.2577-.3945.1807-.0375.3569.0779.3951.2582l.647 3.0974h2.9722l.6471-3.0975c.0381-.1802.2143-.2956.3949-.2581.1799.0377.2953.2144.2579.3946l-.7024 3.3624c-.033.1546-.1685.2653-.3265.2652z"/><path id="_465166608" d="m40.7163 36.3811h-38.0831c-1.4518 0-2.6329-1.181-2.6329-2.6329v-2.2995c0-.1841.1493-.3334.3334-.3334.1842-.0001.3335.1494.3335.3334l.0001 2.2995c0 1.0842.8812 1.9661 1.9658 1.9661h38.0832c.5264 0 1.022-.2071 1.3962-.5834.37-.3724.5723-.8626.5697-1.3808l-.0129-2.2997c-.001-.184.1475-.3341.3315-.3351.001-.0001.0018 0 .0018 0 .1842-.0001.3326.1481.3334.3316l.0132 2.2994c.0035.6971-.2676 1.3559-.7643 1.8548-.5.5029-1.1636.7801-1.8686.78z"/><path id="_465167208" d="m15.2768 17.3538c1.2973 0 2.5946.1264 3.4647.379-.3316-1.6998-.1789-2.9911-.0244-3.7044-2.1082.5817-4.7723.5819-6.8806 0 .1547.7132.3065 2.0048-.0243 3.7044.8693-.2526 2.1673-.379 3.4646-.379zm3.9249 1.247c-.0537 0-.1086-.013-.1581-.0401-1.3379-.7249-6.1955-.7249-7.5336 0-.1162.063-.2587.0515-.363-.0298-.1049-.0811-.151-.2163-.1189-.3447.6886-2.7381.0191-4.5189.013-4.5366-.0477-.1213-.02-.2591.0703-.3525.0905-.0935.2267-.1265.35-.0836 2.2108.771 5.4201.7712 7.6309 0 .1233-.0431.2596-.0103.3499.0838.0905.0939.1181.232.0703.3532-.0068.0167-.6764 1.7977.0131 4.5357.0321.1282-.0148.2636-.119.3447-.0599.0463-.132.0701-.2049.0699z"/><path id="_465167160" d="m24.6192 14.0283c.1546.7133.3065 2.0049-.0243 3.7045 1.7393-.5055 5.19-.5053 6.9292 0-.3307-1.6998-.1788-2.9911-.0243-3.7044-2.1081.5817-4.7714.5819-6.8806-.0001zm-.4845 4.5725c-.0729 0-.1451-.0235-.205-.0699-.1041-.0811-.1511-.2163-.1189-.3447.6894-2.7381.02-4.5189.013-4.5366-.0468-.1213-.0191-.2591.0712-.3525.0904-.0935.2266-.1265.349-.0836 2.211.771 5.4202.7712 7.6309 0 .1234-.0431.2606-.0103.3508.0838.0905.0939.1173.232.0695.3532-.006.0167-.6764 1.7977.013 4.5357.0322.1282-.0138.2636-.1189.3447-.1042.0811-.2466.0929-.363.0298-1.338-.7249-6.1955-.7249-7.5336 0-.0494.027-.1042.0403-.158.0401z"/><path id="_465167184" d="m38.1565 22.3157h-33.1763c-.184 0-.3335-.1493-.3335-.3334 0-.1842.1494-.3334.3335-.3334l33.1763-.0002c.1841 0 .3334.1495.3334.3336.0001.1841-.1494.3334-.3334.3334z"/></g></g></svg>