<svg clip-rule="evenodd" fill-rule="evenodd" height="512" image-rendering="optimizeQuality" shape-rendering="geometricPrecision" text-rendering="geometricPrecision" viewBox="0 0 43.3492 43.3492" width="512" xmlns="http://www.w3.org/2000/svg"><g id="Layer_x0020_1"><g id="_465162240"><path id="_465162816" d="m21.6743 29.4473c.0326.0023.0697.0001.1043.0001 3.9385-.0001 7.2459-.2352 8.0638-.5749.0059-.0024.1423-.066.2212-.7067.0625-.5068.0697-1.1927.0781-1.987.0227-2.1499.0539-5.0942 1.2677-7.2556.8915-1.5877 2.8331-2.2338 4.2596-2.1616.1421.0071.2792.0211.411.0414 2.5282-6.5918 3.0022-10.1604 1.6411-12.2856-1.6339-2.5511-6.0894-3.2935-13.7398-3.771-1.6498-.103-2.9027-.1054-4.4685-.009-7.7394.4771-12.2442 1.2207-13.8839 3.7787-1.3621 2.125-.8883 5.694 1.6402 12.2869.1319-.0204.269-.0343.411-.0414 1.4269-.0731 3.3681.574 4.2596 2.1616 1.2139 2.1614 1.245 5.1058 1.2678 7.2556.0084.7942.0157 1.4803.078 1.987.0789.6406.2154.7044.2212.7067.8251.3425 4.1873.58 8.1676.5748zm-13.777-12.0244c-.062 0-.1233.0017-.1836.0047-.8182.0412-1.4074.34-1.6165.8198-.2741.6287.0912 1.59 1.0285 2.7065 2.5216 3.0037 2.1634 7.8785 1.7254 10.5169-.0341.2047-.0704.4025-.1053.592-.1425.7744-.2656 1.4436-.0451 1.7451.14.1916.4782.2888 1.005.2888l23.9377-.0001c.5269 0 .865-.097 1.0049-.2886.2207-.3018.0975-.9707-.045-1.7454-.0348-.1895-.0712-.3869-.1052-.5918-.438-2.6386-.7962-7.5132 1.7253-10.5169.9374-1.1166 1.3027-2.0777 1.0286-2.7065-.2091-.4799-.7983-.7785-1.6165-.8198-1.2663-.0637-2.9256.5416-3.6446 1.8221-1.1303 2.0125-1.1604 4.8583-1.1824 6.9362-.0199 1.8836-.0319 3.0207-.7103 3.3025-1.1138.4626-5.1588.6259-8.3278.6259-.0639 0-.1278 0-.1917 0-3.1691 0-7.214-.1632-8.3278-.6259-.6783-.2818-.6904-1.4188-.7103-3.3025-.0219-2.0781-.0521-4.9236-1.1823-6.9362-.6848-1.2194-2.2218-1.8267-3.461-1.8268zm25.7461 17.3406h-23.9377c-.7727 0-1.2631-.1786-1.5433-.562-.39-.5335-.2499-1.2951-.0724-2.2595.0341-.1858.0698-.3795.1031-.5803.4193-2.5256.7717-7.1799-1.5782-9.9791-1.4209-1.6926-1.3983-2.7841-1.1291-3.4017.1995-.4576.5949-.8038 1.1336-1.0095-2.625-6.8595-3.0574-10.4666-1.5519-12.8152 1.7932-2.7975 6.4458-3.5937 14.4042-4.0844 1.5956-.0985 2.8715-.0959 4.5512.009 7.8693.4911 12.4725 1.2864 14.2598 4.0769 1.5043 2.3487 1.0715 5.9553-1.553 12.8137.5387.2057.9341.5519 1.1336 1.0095.2693.6176.2918 1.7092-1.1291 3.4017-2.3498 2.7991-1.9975 7.4537-1.5782 9.979.0332.2008.069.3947.1031.5803.1775.9643.3178 1.7262-.0724 2.2597-.2801.3833-.7706.562-1.5433.5619z"/><path id="_465162768" d="m12.9153 43.3492h-3.4796c-.1842 0-.3334-.1493-.3334-.3334v-8.5945c0-.1842.1492-.3333.3334-.3333.1841-.0001.3334.1493.3334.3334v8.2608h2.8128v-8.2523c0-.184.1493-.3332.3334-.3332.1842-.0001.3335.1493.3335.3334v8.5856c0 .1841-.1493.3335-.3335.3335z"/><path id="_465163272" d="m33.9135 43.3492h-3.4797c-.1841 0-.3334-.1493-.3334-.3334v-8.5859c0-.184.1493-.3332.3334-.3332.1842-.0001.3334.1493.3334.3334v8.2521h2.8128v-8.2609c0-.1842.1494-.3333.3335-.3333.1841-.0001.3334.1493.3334.3334v8.5943c0 .1841-.1493.3335-.3334.3335z"/></g></g></svg>