<svg clip-rule="evenodd" fill-rule="evenodd" height="512" image-rendering="optimizeQuality" shape-rendering="geometricPrecision" text-rendering="geometricPrecision" viewBox="0 0 43.3492 43.3492" width="512" xmlns="http://www.w3.org/2000/svg"><g id="Layer_x0020_1"><g id="_465165792"><path id="_465166824" d="m3.9787 37.3363c-.1842 0-.3335-.1492-.3335-.3333v-10.0794c-2.1595-.618-3.6453-2.4136-3.6453-4.447.0001-2.5765 2.3619-4.6724 5.2647-4.6724 2.9037-.0001 5.2655 2.096 5.2655 4.6724v5.3222c0 .1841-.1494.3335-.3334.3335-.1849-.0002-.3335-.1493-.3335-.3334l.0001-5.3224c0-2.2087-2.0632-4.0055-4.5987-4.0055-2.5346 0-4.5978 1.7969-4.5978 4.0056 0 1.8026 1.3937 3.392 3.3882 3.8651.1511.0356.257.1699.257.3245l.0001 10.3366c0 .1843-.1494.3336-.3334.3335zm6.218 0c-.1849 0-.3335-.1492-.3335-.3333l.0001-4.6764c0-.1843.1484-.3334.3334-.3334.184-.0001.3334.1492.3334.3334v4.6762c0 .1843-.1494.3336-.3334.3335z"/><path id="_465166392" d="m38.0846 18.471c-.0034 0-.0078 0-.0113-.0002-.1841-.0059-.3282-.1598-.3222-.3439.0305-.9646.2189-2.1055.4177-3.3134.409-2.4794.8718-5.2892-.1789-6.4284-.4071-.441-1.0298-.6211-1.9042-.5501-.8205.1235-1.7384.7027-2.71 1.3158-1.1679.7376-2.4357 1.5375-3.6574 1.5376-.7163.0001-1.4171-.275-2.0727-.999-1.7852-1.969-3.8501-3.0096-5.9714-3.0096-.0009 0-.0018 0-.0026 0-2.1231.0008-4.1888 1.0443-5.975 3.0174-.6503.7187-1.3476.9922-2.0614.9923-1.2226-.0001-2.4938-.8015-3.666-1.5409-.9717-.6124-1.8895-1.1907-2.7057-1.3136-.8744-.0713-1.497.109-1.9043.5501-1.0506 1.1391-.5878 3.9492-.1788 6.4284.1988 1.2079.3872 2.3489.4176 3.3134.0062.184-.138.338-.3221.3439-.1841.0056-.3387-.1385-.3439-.3226-.0295-.9208-.2145-2.0406-.4098-3.2263-.455-2.7584-.9248-5.6105.3473-6.989.5488-.5957 1.3763-.8519 2.46-.7616.007.0004.0138.0013.0208.0023.9578.14 1.9372.7574 2.974 1.4109 1.7949 1.131 3.4898 2.1994 4.8782.6652 1.9156-2.1166 4.1524-3.2358 6.4691-3.2368.0008-.0001.0017 0 .0026 0 2.3149-.0001 4.55 1.1163 6.4655 3.2287 1.3989 1.5432 3.0895.4755 4.88-.6547 1.0368-.6546 2.0162-1.2725 2.9792-1.4133.0069-.0011.0139-.0018.0208-.0023 1.0829-.0902 1.9112.1661 2.46.7616 1.2721 1.3784.8023 4.2307.3473 6.989-.1954 1.1856-.3803 2.3056-.4098 3.2263-.0053.1803-.1537.3228-.3326.3228z"/><path id="_465166320" d="m33.1525 37.3363c-.184 0-.3334-.1492-.3334-.3333v-4.6764c0-.1843.1493-.3334.3334-.3334.1842-.0001.3334.1492.3334.3334l.0001 4.6762c0 .1843-.1494.3336-.3335.3335zm6.2181 0c-.1841 0-.3335-.1492-.3335-.3333v-10.337c0-.1545.106-.2886.2562-.3243 1.9954-.4732 3.3891-2.0625 3.3891-3.8651 0-2.2088-2.0632-4.0056-4.5987-4.0056-2.5345 0-4.5978 1.7969-4.5978 4.0056l.0001 5.3222c0 .1841-.1494.3335-.3335.3335-.184-.0002-.3334-.1493-.3334-.3334v-5.3224c0-2.5764 2.3618-4.6723 5.2646-4.6723 2.9037-.0001 5.2655 2.096 5.2655 4.6724.0001 2.0333-1.4857 3.8291-3.6452 4.447v10.0792c0 .1843-.1494.3336-.3334.3335z"/><path id="_465166080" d="m39.3706 37.3363h-35.3919c-.1842 0-.3335-.1492-.3335-.3333 0-.1842.1493-.3334.3334-.3334l35.392-.0001c.1841 0 .3334.1494.3334.3335s-.1494.3334-.3334.3333z"/><path id="_465166008" d="m10.5301 31.9931h22.289v-3.861h-22.289zm22.6224.6668h-22.9558c-.1849 0-.3335-.1492-.3335-.3333l.0001-4.5278c0-.1842.1484-.3334.3334-.3334l22.9558-.0001c.1842 0 .3334.1494.3334.3336l.0001 4.5277c0 .184-.1494.3334-.3335.3333z"/><path id="_465166224" d="m33.1525 28.1321c-.184 0-.3334-.1491-.3334-.3332 0-1.4373-1.7592-2.3144-3.2363-2.7971-1.9649-.6429-4.6585-.9969-7.5839-.9969-2.9731 0-5.8872.3779-7.9938 1.0369-2.2411.7009-3.475 1.6794-3.475 2.7549 0 .184-.1494.3335-.3334.3335-.1849 0-.3335-.1494-.3335-.3335.0001-3.0635 6.291-4.4585 12.1357-4.4585 2.9941-.0001 5.7605.3656 7.7915 1.0297 2.4183.7904 3.6955 1.977 3.6955 3.431.0001.184-.1493.3334-.3334.3332z"/><path id="_465166128" d="m21.6742 21.3496c-.1841 0-.3335-.1493-.3335-.3334l.0001-9.8422c0-.1841.1493-.3334.3334-.3334s.3334.1494.3334.3335l.0001 9.842c0 .1842-.1495.3335-.3335.3335z"/><path id="_465165816" d="m26.4847 21.397c-.1207 0-.2371-.0654-.297-.1799-1.866-3.6019-1.761-6.1794-1.3442-7.7075.4612-1.6905 1.3833-2.5059 1.4224-2.5398.1389-.1207.349-.1059.4697.0332.1207.1389.1059.3496-.033.4704-.0069.0063-.8275.7435-1.2278 2.2566-.534 2.0184-.0825 4.5015 1.3051 7.1803.0851.1634.0208.3647-.1424.4494-.0486.0254-.1016.0375-.1528.0373z"/><path id="_465166512" d="m16.8646 21.3021c-.0513 0-.1043-.0119-.1529-.0374-.1632-.0849-.2275-.2859-.1424-.4494 1.3876-2.679 1.8391-5.1619 1.3051-7.1804-.4003-1.513-1.2209-2.2502-1.2287-2.2575-.1381-.1216-.152-.3318-.0313-.47.1207-.1383.3309-.153.4689-.0326.0392.0339.9613.8495 1.4223 2.5397.4169 1.528.5219 4.1057-1.345 7.7075-.059.1144-.1754.1801-.296.1801z"/></g></g></svg>