<svg clip-rule="evenodd" fill-rule="evenodd" height="512" image-rendering="optimizeQuality" shape-rendering="geometricPrecision" text-rendering="geometricPrecision" viewBox="0 0 43.3492 43.3492" width="512" xmlns="http://www.w3.org/2000/svg"><g id="Layer_x0020_1"><g id="_465171096"><path id="_465173400" d="m35.1686 21.9289c-.184 0-.3335-.1492-.3335-.3332v-6.8568h-1.7427v6.8567c0 .1841-.1494.3334-.3335.3334-.1841-.0001-.3335-.1493-.3335-.3333l.0002-7.1901c0-.1842.1492-.3333.3333-.3333l2.4097-.0002c.185 0 .3334.1494.3334.3335l.0001 7.19c0 .1841-.1486.3334-.3335.3333z"/><path id="_465172848" d="m30.4144 21.9289c-.1841 0-.3335-.1492-.3335-.3332l.0002-6.8568h-1.7438v6.8567c0 .1841-.1493.3334-.3334.3334-.1841-.0001-.3334-.1493-.3334-.3333v-7.1901c0-.1842.1493-.3333.3334-.3333l2.4105-.0002c.1842 0 .3334.1494.3334.3335l.0001 7.19c0 .1841-.1494.3334-.3335.3333z"/><path id="_465173184" d="m23.249 21.9289c-.184 0-.3335-.1492-.3335-.3332v-7.1901c0-.1842.1493-.3333.3334-.3333l2.4106-.0002c.1841 0 .3333.1494.3333.3335v7.1834c0 .184-.1493.3334-.3334.3334-.1841-.0001-.3334-.1492-.3334-.3334v-6.8501h-1.7435v6.8567c0 .1841-.1495.3334-.3335.3333z"/><path id="_465172752" d="m17.5657 20.4038 1.4892.7588 3.7121-5.6709-1.4899-.7588zm1.6046 1.5253c-.0511 0-.1033-.0117-.1511-.0363l-2.0873-1.0633c-.0842-.0429-.1469-.1198-.1712-.2113-.0241-.0917-.0087-.1891.0434-.2683l4.0787-6.2325c.0928-.1426.2786-.1917.4306-.1145l2.0876 1.0631c.0842.043.1457.12.17.2115.0244.0915.0087.1891-.0425.2683l-4.0794 6.2323c-.0632.0971-.1694.151-.2788.151z"/><path id="_465172272" d="m5.9665 21.9289c-.184 0-.3326-.1492-.3326-.3333l.0001-21.2622c0-.1843.1484-.3334.3325-.3334.185-.0002.3334.1493.3334.3334l.0001 21.262c0 .1843-.1486.3336-.3335.3335z"/><path id="_465172128" d="m37.382 21.9289c-.1842 0-.3327-.1492-.3327-.3332v-21.2623c0-.1843.1485-.3334.3326-.3334.1849-.0002.3334.1493.3334.3334v21.2622c0 .1841-.1485.3334-.3333.3333z"/><path id="_465172656" d="m37.382 1.5142h-31.4155c-.184 0-.3326-.1491-.3326-.3332.0001-.1844.1485-.3335.3326-.3335l31.4155-.0001c.1848 0 .3333.1494.3333.3336 0 .1839-.1485.3334-.3333.3332z"/><path id="_465172584" d="m10.5904 10.2754c-.184 0-.3335-.1491-.3335-.3332v-6.8633h-1.7427v6.8632c0 .184-.1494.3335-.3335.3335-.184-.0002-.3334-.1493-.3334-.3334l.0001-7.1968c0-.184.1492-.3332.3333-.3332l2.4097-.0001c.1849 0 .3334.1494.3334.3335v7.1965c0 .184-.1485.3335-.3334.3333z"/><path id="_465172536" d="m15.3455 10.2754c-.1843 0-.3336-.1491-.3336-.3332l.0001-6.8633h-1.7437v6.8632c0 .184-.1485.3335-.3335.3335-.1839-.0002-.3334-.1493-.3334-.3334v-7.1968c0-.184.1493-.3332.3334-.3332l2.4107-.0001c.184 0 .3333.1494.3333.3335v7.1965c0 .184-.1494.3335-.3333.3333z"/><path id="_465172440" d="m20.1003 10.2754c-.184 0-.3334-.1491-.3334-.3332l.0001-6.8633h-1.7437v6.8632c0 .184-.1494.3335-.3335.3335-.1841-.0002-.3334-.1493-.3334-.3334l.0001-7.1968c0-.184.1492-.3332.3333-.3332l2.4105-.0001c.1843 0 .3335.1494.3335.3335v7.1965c0 .184-.1494.3335-.3335.3333z"/><path id="_465172560" d="m20.5833 3.8382 3.7111 5.6711 1.4892-.7588-3.7112-5.6712zm3.5957 6.4374c-.1094 0-.2155-.0538-.2789-.1508l-4.0784-6.2325c-.0521-.0793-.0679-.1767-.0435-.2682.0244-.0917.0859-.1684.171-.2114l2.0867-1.0633c.152-.0774.3377-.0279.4306.1146l4.0787 6.2324c.0521.0793.0676.1769.0433.2684-.0242.0914-.0869.1684-.1711.2114l-2.0874 1.0631c-.0477.0246-.0999.0363-.151.0363z"/><path id="_465172152" d="m29.9664 10.2754h-23.9999c-.184 0-.3326-.1491-.3326-.3332.0001-.1842.1485-.3334.3326-.3334h23.9999c.184 0 .3334.1492.3334.3334.0001.1839-.1494.3334-.3334.3332z"/><path id="_465172464" d="m37.382 21.9289h-31.4145c-.185 0-.3336-.1492-.3336-.3333.0001-.1842.1485-.3335.3334-.3335h31.4147c.1848 0 .3333.1494.3333.3336 0 .184-.1485.3333-.3333.3332z"/><path id="_465171936" d="m2.1762 24.0487h38.9969v-2.1198h-38.9969zm39.3304.6671h-39.6639c-.184 0-.3334-.1493-.3334-.3335l.0001-2.7869c0-.184.1493-.3333.3333-.3333h39.6639c.184 0 .3333.1494.3333.3335v2.7866c0 .1843-.1493.3336-.3333.3336z"/><path id="_465171480" d="m40.1042 40.8789h-36.8591c-.184 0-.3334-.1491-.3334-.3332l.0001-16.1635c0-.184.1492-.3332.3333-.3332.1841-.0001.3334.1492.3334.3333l.0001 15.8298h36.1921v-15.8299c0-.184.1493-.3332.3334-.3332.1841-.0001.3334.1492.3334.3333l.0002 16.1633c0 .184-.1495.3335-.3335.3333z"/><path id="_465171192" d="m5.7252 31.1586h9.6889v-4.2965h-9.6889zm10.0222.667h-10.3557c-.184 0-.3335-.1492-.3335-.3334v-4.9634c0-.1842.1493-.3334.3334-.3334l10.3558-.0001c.185 0 .3334.1494.3334.3336l.0001 4.9632c0 .1843-.1486.3336-.3335.3335z"/><path id="_465171864" d="m5.7252 38.0657h9.6889v-4.2967h-9.6889zm10.0222.6668h-10.3557c-.184 0-.3335-.1492-.3335-.3333v-4.9635c0-.1842.1493-.3334.3334-.3334l10.3558-.0001c.185 0 .3334.1493.3334.3335l.0001 4.9635c0 .1841-.1486.3335-.3335.3333z"/><path id="_465171840" d="m27.9355 31.1586h9.6888v-4.2965h-9.6888zm10.0221.667h-10.3557c-.185 0-.3335-.1492-.3335-.3334v-4.9634c0-.1842.1485-.3334.3335-.3334l10.3557-.0001c.1843 0 .3334.1494.3334.3336l.0001 4.9632c0 .1843-.1494.3336-.3335.3335z"/><path id="_465171552" d="m27.9355 38.0657h9.6888v-4.2967h-9.6888zm10.0221.6668h-10.3557c-.185 0-.3335-.1492-.3335-.3333v-4.9635c0-.1842.1485-.3334.3335-.3334l10.3557-.0001c.1843 0 .3334.1493.3334.3335l.0001 4.9635c0 .1841-.1494.3335-.3335.3333z"/><path id="_465171216" d="m18.3464 40.8789c-.1842 0-.3335-.1491-.3335-.3332v-16.1635c0-.184.1493-.3332.3334-.3332.1842-.0001.3334.1492.3334.3333v16.1633c0 .184-.1493.3335-.3333.3333zm6.1174 0c-.1842 0-.3335-.1491-.3335-.3332v-16.1635c0-.184.1493-.3332.3334-.3332.1842-.0001.3334.1492.3334.3333v16.1633c0 .184-.1493.3335-.3333.3333z"/><path id="_465171648" d="m9.0917 43.3492h-3.2197c-.1521 0-.2841-.1025-.3223-.2493l-.6443-2.4703c-.0469-.1782.0599-.3602.2387-.4066.1781-.0465.3604.0602.4064.2385l.5793 2.2207h2.704l.5791-2.2208c.0461-.1782.2283-.2848.4064-.2384.178.0463.2856.2286.2387.4068l-.6441 2.4701c-.0383.1468-.1704.2493-.3222.2493z"/><path id="_465171624" d="m37.4776 43.3492h-3.2198c-.152 0-.2841-.1025-.3223-.2493l-.6442-2.4703c-.0469-.1782.0607-.3602.2387-.4066.1772-.0465.3603.0602.4063.2385l.5794 2.2207h2.704l.5791-2.2208c.0461-.1782.2283-.2848.4063-.2384.179.0463.2857.2286.2388.4068l-.6442 2.4701c-.0383.1468-.1703.2493-.3221.2493z"/><path id="_465171912" d="m12.0188 29.344h-2.8976c-.184 0-.3335-.1493-.3335-.3335 0-.1841.1493-.3334.3334-.3334l2.8977-.0001c.1841 0 .3334.1495.3334.3335.0002.1842-.1494.3335-.3334.3335z"/><path id="_465171600" d="m34.2283 29.344h-2.8978c-.1841 0-.3335-.1493-.3335-.3335.0002-.1841.1494-.3334.3335-.3334l2.8978-.0001c.184 0 .3333.1495.3333.3335 0 .1842-.1494.3335-.3333.3335z"/><path id="_465171264" d="m34.2283 36.2509h-2.8978c-.1841 0-.3335-.1493-.3335-.3335.0002-.1841.1494-.3334.3335-.3334l2.8978-.0001c.184 0 .3333.1494.3333.3335 0 .1842-.1494.3335-.3333.3335z"/><path id="_465170400" d="m12.0188 36.2509h-2.8976c-.184 0-.3335-.1493-.3335-.3335 0-.1841.1493-.3334.3334-.3334l2.8977-.0001c.1841 0 .3334.1494.3334.3335.0002.1842-.1494.3335-.3334.3335z"/></g></g></svg>