<svg clip-rule="evenodd" fill-rule="evenodd" height="512" image-rendering="optimizeQuality" shape-rendering="geometricPrecision" text-rendering="geometricPrecision" viewBox="0 0 43.3492 43.3492" width="512" xmlns="http://www.w3.org/2000/svg"><g id="Layer_x0020_1"><g id="_465148512"><path id="_465149616" d="m21.6747 28.5682h-21.3412c-.1841 0-.3335-.1492-.3335-.3333 0-.1842.1493-.3334.3334-.3334l21.3413-.0001c.184 0 .3334.1494.3334.3335s-.1494.3334-.3334.3333zm0 6.698h-21.3412c-.1841 0-.3335-.1494-.3335-.3335 0-.1839.1493-.3332.3334-.3332l21.3413-.0001c.184 0 .3334.1494.3334.3333 0 .1841-.1494.3335-.3334.3335z"/><path id="_465149208" d="m13.9898 31.9173h-5.9716c-.184 0-.3334-.1493-.3334-.3334s.1493-.3334.3334-.3334h5.9716c.1842 0 .3334.1493.3334.3334.0001.1841-.1493.3334-.3334.3334z"/><path id="_465149304" d="m13.9898 38.6153h-5.9716c-.184 0-.3334-.1493-.3334-.3334s.1493-.3334.3334-.3334l5.9716-.0001c.1842 0 .3334.1494.3334.3335.0001.184-.1493.3334-.3334.3334z"/><path id="_465149160" d="m.6669 41.2976h42.0155v-39.2461h-42.0155v39.2461zm42.3489.6668h-42.6823c-.1841 0-.3335-.1492-.3335-.3333v-39.913c0-.1841.1493-.3334.3334-.3334h42.6824c.1841 0 .3334.1493.3334.3335v39.9128c0 .1842-.1493.3335-.3334.3334z"/><path id="_465149280" d="m21.6747 41.9644c-.1842 0-.3335-.1492-.3335-.3333v-39.913c0-.1841.1493-.3334.3334-.3334s.3335.1493.3335.3335v39.9128c0 .1842-.1494.3335-.3334.3334z"/><path id="_465149040" d="m43.0158 7.0596h-21.3411c-.1842 0-.3335-.1492-.3335-.3334 0-.1841.1493-.3334.3334-.3334l21.3412-.0001c.1841 0 .3334.1494.3334.3335 0 .1842-.1493.3335-.3334.3334z"/><path id="_465149352" d="m11.0036 7.2519c-3.2181 0-5.8361 3.4652-5.8361 7.7246s2.618 7.7247 5.8361 7.7247 5.8361-3.4653 5.8361-7.7247-2.618-7.7246-5.8361-7.7246zm0 16.1161c-3.5854 0-6.5022-3.7644-6.5022-8.3915.0001-4.6271 2.9168-8.3915 6.5022-8.3915 3.5862 0 6.503 3.7644 6.503 8.3915s-2.9168 8.3916-6.503 8.3915z"/><path id="_465149112" d="m32.3795 25.6974c-.1259 0-.2466-.0716-.3022-.1933l-3.311-7.1453c-.0477-.1032-.0399-.2237.0217-.3196.0609-.0959.1668-.1539.2805-.1539h.6349l-.4829-2.5701c-.0338-.1809.0851-.3552.2666-.3891.1806-.0341.3551.0851.389.2661l.5566 2.9649c.0183.0974-.0078.1981-.0712.2745-.0634.0762-.1572.1205-.2562.1205h-.5149l3.0913 6.6716c.0773.1671.0052.3653-.1624.4427-.0451.021-.0929.031-.1398.031z"/><path id="_465148968" d="m32.3795 39.5679c-.184 0-.3334-.1493-.3334-.3334v-18.0874c0-.1842.1493-.3334.3334-.3334s.3334.1492.3334.3334v18.0873c0 .1841-.1493.3335-.3334.3335z"/><path id="_465149256" d="m26.9029 37.7018c4.7003 1.5969 6.252 1.5961 10.9532.0009-.1328-1.5847-.4203-3.3189-.7242-5.1542-.5235-3.1579-1.0646-6.4235-.8041-9.0541.0157-.1599.1433-.2856.3031-.2993.1607-.0134.3074.0887.3499.2435l2.1362 7.7354 1.3841-.3708-2.9194-14.2448-2.4946-.9949c-.0322-.013-.0627-.0308-.0896-.0531l-1.3953-1.1578-.8893-.0333v6.8278c0 .1841-.1493.3335-.3334.3335-.184-.0001-.3334-.1493-.3334-.3335v-6.8278l-.8891.0333-1.3955 1.1578c-.027.0222-.0573.0402-.0895.0531l-2.4955.9949-2.9186 14.2448 1.3842.3708 2.1361-7.7355c.0425-.1549.1893-.2575.3499-.2434.1599.0136.2874.1395.3031.2993.2605 2.6307-.2805 5.8962-.8041 9.0542-.3039 1.8351-.5914 3.5694-.7242 5.1532zm5.4766 1.8626c-1.6445 0-3.2893-.4141-5.7224-1.2417-.0408-.014-.0738-.0225-.099-.0304-.2674-.0773-.3672-.2292-.3334-.5071.0026-.026.007-.0573.0095-.0964.1338-1.623.4264-3.3844.7347-5.2493.3734-2.2505.7554-4.5563.844-6.6218l-1.6159 5.8527c-.0496.1767-.2311.2808-.4082.2334l-2.0067-.5378c-.1702-.0457-.2762-.216-.2406-.3889l3.0185-14.7288c.0225-.1099.098-.201.2031-.2426l2.6128-1.0422 1.4424-1.1965c.0564-.0469.1267-.0738.2005-.0766l1.3442-.0503c.0087-.0004.0174-.0005.0252-.0002 0-.0001.0008 0 .0008 0 .001 0 .0018.0001.0026.0001l1.3486.0503c.073.0029.1441.0298.2006.0767l1.4424 1.1965 2.6127 1.0421c.1043.0417.1806.1328.2032.2428l3.0184 14.7287c.0348.1729-.0704.3433-.2406.389l-2.0066.5376c-.1772.0476-.3596-.0565-.4082-.2333l-1.6159-5.8528c.0885 2.0655.4705 4.3715.8431 6.6219.3091 1.8648.6008 3.6264.7354 5.2485.0026.0399.007.0712.0096.0972.033.2779-.066.4298-.3334.5071-.0252.0078-.0582.0165-.099.0304-2.4331.8275-4.0778 1.2417-5.7224 1.2417z"/><path id="_465148872" d="m32.3795 25.6974c-.0469 0-.0947-.0099-.1407-.031-.1667-.0775-.2396-.2756-.1615-.4427l3.0913-6.6716h-.5149c-.0989 0-.1937-.0442-.257-.1205-.0634-.0765-.0895-.177-.0704-.2745l.5567-2.9649c.0338-.181.2083-.3003.3889-.2661.1807.0339.3005.2082.2658.3891l-.4819 2.5701h.6347c.1138 0 .2197.058.2804.1539.0618.0958.0695.2164.0218.3197l-3.311 7.1452c-.0564.1217-.1763.1933-.3022.1933z"/><path id="_465148704" d="m32.3456 12.9057c-.184 0-.3334-.1493-.3334-.3335v-5.846c0-.1841.1494-.3334.3334-.3334.1842-.0001.3335.1493.3335.3334v5.846c0 .1842-.1494.3335-.3335.3335z"/><path id="_465148680" d="m33.7272 14.357c-.1841 0-.3335-.1492-.3335-.3333v-.7258c0-.2163-.1754-.3922-.3916-.3922h-1.2451c-.2163 0-.3926.176-.3926.3922l.0001.7257c0 .1841-.1495.3335-.3335.3335-.1841-.0001-.3335-.1493-.3335-.3334v-.7258c0-.584.4759-1.0591 1.0594-1.0591h1.2452c.5836 0 1.0585.4752 1.0585 1.0591v.7257c0 .1841-.1485.3335-.3334.3334z"/></g></g></svg>