<svg clip-rule="evenodd" fill-rule="evenodd" height="512" image-rendering="optimizeQuality" shape-rendering="geometricPrecision" text-rendering="geometricPrecision" viewBox="0 0 43.3492 43.3492" width="512" xmlns="http://www.w3.org/2000/svg"><g id="Layer_x0020_1"><g id="_282078496"><path id="_282082840" d="m5.9194 7.8646c-.9117 0-1.6541.7416-1.6541 1.6533 0 .9126.7424 1.6542 1.6541 1.6542h31.5104c.9117 0 1.6533-.7416 1.6533-1.6533 0-.9127-.7416-1.6542-1.6533-1.6542zm31.5104 3.9743h-31.5104c-1.2799 0-2.3202-1.0411-2.3202-2.3201.0001-1.2799 1.0403-2.3211 2.3202-2.3211h31.5104c1.279 0 2.3201 1.0412 2.3201 2.3202 0 1.2799-1.0411 2.321-2.3201 2.321z"/><path id="_282082912" d="m10.281 14.8146h-1.9493c-.1842 0-.3335-.1485-.3335-.3334 0-.1841.1493-.3334.3334-.3334h1.9494c.1841 0 .3334.1493.3334.3334 0 .1849-.1494.3334-.3334.3334z"/><path id="_282082456" d="m15.2122 14.8146h-1.9486c-.184 0-.3334-.1485-.3334-.3334 0-.1841.1493-.3334.3334-.3334h1.9486c.1849 0 .3334.1493.3334.3334.0001.1849-.1485.3334-.3334.3334z"/><path id="_282081736" d="m20.1442 14.8146h-1.9493c-.1841 0-.3335-.1485-.3335-.3334 0-.1841.1493-.3334.3334-.3334h1.9494c.1841 0 .3334.1493.3334.3334 0 .1849-.1493.3334-.3334.3334z"/><path id="_282081616" d="m25.0763 14.8146h-1.9494c-.1841 0-.3335-.1485-.3335-.3334 0-.1841.1494-.3334.3334-.3334h1.9495c.184 0 .3334.1493.3334.3334 0 .1849-.1494.3334-.3334.3334z"/><path id="_282081664" d="m30.0083 14.8146h-1.9494c-.184 0-.3334-.1485-.3334-.3334 0-.1841.1493-.3334.3334-.3334h1.9494c.1841 0 .3334.1493.3334.3334 0 .1849-.1493.3334-.3334.3334z"/><path id="_282081928" d="m34.9395 14.8146h-1.9485c-.1841 0-.3335-.1485-.3335-.3334.0001-.1841.1494-.3334.3334-.3334h1.9486c.184 0 .3334.1493.3334.3334 0 .1849-.1494.3334-.3334.3334z"/><path id="_282081904" d="m10.6136 17.654h-1.8912c-.1841 0-.3335-.1493-.3335-.3334s.1493-.3334.3334-.3334l1.8913-.0001c.1841 0 .3334.1494.3334.3335s-.1494.3334-.3334.3334z"/><path id="_282081760" d="m15.4006 17.654h-1.8912c-.184 0-.3335-.1493-.3335-.3334.0001-.1841.1494-.3334.3335-.3334l1.8912-.0001c.1849 0 .3334.1494.3334.3335s-.1485.3334-.3334.3334z"/><path id="_282081856" d="m20.1885 17.654h-1.8921c-.184 0-.3334-.1493-.3334-.3334s.1493-.3334.3334-.3334l1.8921-.0001c.1841 0 .3334.1494.3334.3335.0001.1841-.1494.3334-.3334.3334z"/><path id="_282081832" d="m24.9756 17.654h-1.8921c-.1841 0-.3335-.1493-.3335-.3334.0001-.1841.1494-.3334.3334-.3334l1.8922-.0001c.184 0 .3333.1494.3333.3335.0001.1841-.1493.3334-.3333.3334z"/><path id="_282082072" d="m29.7626 17.654h-1.8921c-.1841 0-.3335-.1493-.3335-.3334.0001-.1841.1494-.3334.3335-.3334l1.8921-.0001c.1841 0 .3334.1494.3334.3335s-.1494.3334-.3334.3334z"/><path id="_282082024" d="m34.5496 17.654h-1.892c-.1842 0-.3335-.1493-.3335-.3334s.1493-.3334.3334-.3334l1.8921-.0001c.1841 0 .3334.1494.3334.3335s-.1494.3334-.3334.3334z"/><path id="_282081880" d="m10.8437 20.4925h-1.8522c-.184 0-.3334-.1493-.3334-.3334s.1493-.3334.3334-.3334h1.8522c.1841 0 .3334.1493.3334.3334s-.1494.3334-.3334.3334z"/><path id="_282081064" d="m15.5308 20.4925h-1.8521c-.184 0-.3335-.1493-.3335-.3334.0001-.1841.1494-.3334.3335-.3334h1.8521c.1842 0 .3334.1493.3334.3334.0001.1841-.1493.3334-.3334.3334z"/><path id="_282080872" d="m20.2181 20.4925h-1.8521c-.1842 0-.3336-.1493-.3336-.3334s.1494-.3334.3335-.3334h1.8522c.184 0 .3333.1493.3333.3334.0001.1841-.1493.3334-.3333.3334z"/><path id="_282081568" d="m24.9052 20.4925h-1.8521c-.1841 0-.3335-.1493-.3335-.3334.0001-.1841.1494-.3334.3334-.3334h1.8522c.185 0 .3334.1493.3334.3334s-.1485.3334-.3334.3334z"/><path id="_282081496" d="m29.5933 20.4925h-1.853c-.1841 0-.3335-.1493-.3335-.3334.0001-.1841.1493-.3334.3334-.3334h1.8531c.184 0 .3325.1493.3325.3334s-.1485.3334-.3325.3334z"/><path id="_282081232" d="m34.2804 20.4925h-1.853c-.184 0-.3334-.1493-.3334-.3334s.1493-.3334.3334-.3334h1.853c.1842 0 .3334.1493.3334.3334.0001.1841-.1493.3334-.3334.3334z"/><path id="_282081280" d="m11.553 26.1705h-1.7313c-.1842 0-.3335-.1494-.3335-.3335.0001-.184.1493-.3334.3334-.3334h1.7314c.1842 0 .3335.1494.3335.3334.0001.1841-.1494.3335-.3335.3335z"/><path id="_282081160" d="m15.932 26.1705h-1.7305c-.1841 0-.3335-.1494-.3335-.3335 0-.184.1493-.3334.3334-.3334h1.7306c.1841 0 .3334.1494.3334.3334 0 .1841-.1493.3335-.3334.3335z"/><path id="_282081304" d="m20.3118 26.1705h-1.7314c-.1841 0-.3335-.1494-.3335-.3335.0001-.184.1494-.3334.3334-.3334h1.7315c.1841 0 .3334.1494.3334.3334.0001.1841-.1493.3335-.3334.3335z"/><path id="_282081520" d="m24.6907 26.1705h-1.7305c-.1841 0-.3335-.1494-.3335-.3335 0-.184.1493-.3334.3335-.3334h1.7305c.1842 0 .3334.1494.3334.3334.0001.1841-.1493.3335-.3334.3335z"/><path id="_282081424" d="m29.0697 26.1705h-1.7306c-.1841 0-.3335-.1494-.3335-.3335.0001-.184.1494-.3334.3335-.3334h1.7306c.1849 0 .3333.1494.3333.3334.0001.1841-.1484.3335-.3333.3335z"/><path id="_282080344" d="m33.4495 26.1705h-1.7306c-.184 0-.3335-.1494-.3335-.3335.0001-.184.1494-.3334.3334-.3334h1.7307c.1841 0 .3333.1494.3333.3334.0001.1841-.1493.3335-.3333.3335z"/><path id="_282080464" d="m11.8857 29.009h-1.6733c-.1841 0-.3335-.1493-.3335-.3335.0001-.184.1494-.3334.3335-.3334h1.6733c.184 0 .3333.1494.3333.3334.0001.1842-.1493.3335-.3333.3335z"/><path id="_282080824" d="m16.1204 29.009h-1.6732c-.1841 0-.3335-.1493-.3335-.3335.0001-.184.1494-.3334.3335-.3334h1.6732c.1841 0 .3334.1494.3334.3334 0 .1842-.1493.3335-.3334.3335z"/><path id="_282080608" d="m20.3552 29.009h-1.6732c-.1841 0-.3335-.1493-.3335-.3335.0001-.184.1494-.3334.3334-.3334h1.6733c.1841 0 .3334.1494.3334.3334 0 .1842-.1493.3335-.3334.3335z"/><path id="_282080776" d="m24.59 29.009h-1.6742c-.184 0-.3334-.1493-.3334-.3335.0001-.184.1494-.3334.3334-.3334h1.6742c.1841 0 .3334.1494.3334.3334 0 .1842-.1494.3335-.3334.3335z"/><path id="_282080248" d="m28.8248 29.009h-1.6741c-.1841 0-.3335-.1493-.3335-.3335 0-.184.1493-.3334.3334-.3334h1.6742c.1841 0 .3334.1494.3334.3334.0001.1842-.1494.3335-.3334.3335z"/><path id="_282080080" d="m33.0587 29.009h-1.6732c-.1841 0-.3335-.1493-.3335-.3335 0-.184.1493-.3334.3334-.3334h1.6733c.1841 0 .3334.1494.3334.3334.0001.1842-.1493.3335-.3334.3335z"/><path id="_282080128" d="m12.2538 31.8475h-1.6098c-.1841 0-.3335-.1493-.3335-.3334s.1493-.3334.3334-.3334h1.6099c.1841 0 .3334.1493.3334.3334s-.1493.3334-.3334.3334z"/><path id="_282080224" d="m16.3288 31.8475h-1.6107c-.1841 0-.3335-.1493-.3335-.3334.0001-.1841.1494-.3334.3335-.3334h1.6107c.1842 0 .3334.1493.3334.3334.0001.1841-.1493.3334-.3334.3334z"/><path id="_282080392" d="m20.4039 31.8475h-1.6108c-.1841 0-.3335-.1493-.3335-.3334.0001-.1841.1494-.3334.3335-.3334h1.6108c.184 0 .3333.1493.3333.3334.0001.1841-.1493.3334-.3333.3334z"/><path id="_282080368" d="m24.478 31.8475h-1.6099c-.1841 0-.3334-.1493-.3334-.3334s.1493-.3334.3334-.3334h1.6099c.1841 0 .3334.1493.3334.3334.0001.1841-.1494.3334-.3334.3334z"/><path id="_282079576" d="m28.553 31.8475h-1.6107c-.1841 0-.3335-.1493-.3335-.3334.0001-.1841.1494-.3334.3334-.3334h1.6108c.1841 0 .3334.1493.3334.3334s-.1494.3334-.3334.3334z"/><path id="_282079432" d="m32.6281 31.8475h-1.6108c-.1841 0-.3335-.1493-.3335-.3334s.1493-.3334.3335-.3334h1.6108c.184 0 .3333.1493.3333.3334.0001.1841-.1493.3334-.3333.3334z"/><path id="_282079648" d="m12.4917 34.686h-1.5699c-.184 0-.3335-.1484-.3335-.3334.0001-.1841.1494-.3334.3335-.3334h1.5699c.1841 0 .3334.1493.3334.3334.0001.185-.1493.3334-.3334.3334z"/><path id="_282079408" d="m16.4634 34.686h-1.5699c-.184 0-.3335-.1484-.3335-.3334.0001-.1841.1494-.3334.3335-.3334h1.5699c.1841 0 .3334.1493.3334.3334 0 .185-.1493.3334-.3334.3334z"/><path id="_282079984" d="m20.4351 34.686h-1.5699c-.1841 0-.3335-.1484-.3335-.3334 0-.1841.1494-.3334.3334-.3334h1.57c.1841 0 .3334.1493.3334.3334 0 .185-.1494.3334-.3334.3334z"/><path id="_282079840" d="m24.406 34.686h-1.5692c-.184 0-.3334-.1484-.3334-.3334 0-.1841.1494-.3334.3334-.3334h1.5692c.184 0 .3333.1493.3333.3334.0001.185-.1493.3334-.3333.3334z"/><path id="_282079864" d="m28.3776 34.686h-1.5691c-.184 0-.3334-.1484-.3334-.3334 0-.1841.1493-.3334.3334-.3334h1.5691c.1841 0 .3334.1493.3334.3334.0001.185-.1494.3334-.3334.3334z"/><path id="_282079936" d="m32.3493 34.686h-1.5699c-.1841 0-.3335-.1484-.3335-.3334.0001-.1841.1494-.3334.3334-.3334h1.57c.1841 0 .3334.1493.3334.3334.0001.185-.1494.3334-.3334.3334z"/><path id="_282079744" d="m12.9155 37.5255h-1.4961c-.185 0-.3335-.1494-.3335-.3335 0-.184.1485-.3334.3334-.3334h1.4962c.184 0 .3334.1494.3334.3334 0 .1841-.1494.3335-.3334.3335z"/><path id="_282079336" d="m16.703 37.5255h-1.4969c-.1841 0-.3335-.1494-.3335-.3335.0001-.184.1494-.3334.3335-.3334h1.4969c.1842 0 .3335.1494.3335.3334 0 .1841-.1494.3335-.3335.3335z"/><path id="_282078928" d="m20.4907 37.5255h-1.497c-.1841 0-.3335-.1494-.3335-.3335.0001-.184.1494-.3334.3335-.3334h1.497c.184 0 .3334.1494.3334.3334 0 .1841-.1494.3335-.3334.3335z"/><path id="_282079120" d="m24.2774 37.5255h-1.4961c-.1841 0-.3335-.1494-.3335-.3335 0-.184.1494-.3334.3335-.3334h1.4961c.1841 0 .3334.1494.3334.3334.0001.1841-.1493.3335-.3334.3335z"/><path id="_282078712" d="m28.0651 37.5255h-1.4971c-.184 0-.3334-.1494-.3334-.3335 0-.184.1493-.3334.3334-.3334h1.4971c.184 0 .3333.1494.3333.3334.0001.1841-.1493.3335-.3333.3335z"/><path id="_282079096" d="m31.8526 37.5255h-1.497c-.184 0-.3334-.1494-.3334-.3335 0-.184.1493-.3334.3334-.3334h1.497c.1841 0 .3334.1494.3334.3334 0 .1841-.1493.3335-.3334.3335z"/><path id="_282078688" d="m13.4 40.364h-1.4136c-.1841 0-.3335-.1494-.3335-.3335.0001-.184.1494-.3334.3334-.3334h1.4137c.184 0 .3334.1494.3334.3334 0 .1841-.1494.3335-.3334.3335z"/><path id="_282078760" d="m16.9774 40.364h-1.4136c-.184 0-.3334-.1494-.3334-.3335 0-.184.1493-.3334.3334-.3334h1.4136c.1842 0 .3335.1494.3335.3334 0 .1841-.1494.3335-.3335.3335z"/><path id="_282078904" d="m20.5541 40.364h-1.4136c-.1841 0-.3335-.1494-.3335-.3335 0-.184.1493-.3334.3334-.3334h1.4137c.184 0 .3334.1494.3334.3334 0 .1841-.1494.3335-.3334.3335z"/><path id="_282079216" d="m24.1307 40.364h-1.4136c-.1842 0-.3335-.1494-.3335-.3335 0-.184.1493-.3334.3334-.3334h1.4137c.184 0 .3334.1494.3334.3334 0 .1841-.1494.3335-.3334.3335z"/><path id="_282078880" d="m27.7081 40.364h-1.4136c-.184 0-.3334-.1494-.3334-.3335 0-.184.1493-.3334.3334-.3334h1.4136c.1842 0 .3334.1494.3334.3334.0001.1841-.1493.3335-.3334.3335z"/><path id="_282078664" d="m31.2847 40.364h-1.4136c-.1841 0-.3335-.1494-.3335-.3335.0001-.184.1494-.3334.3335-.3334h1.4136c.1841 0 .3334.1494.3334.3334.0001.1841-.1493.3335-.3334.3335z"/><path id="_282078856" d="m11.0981 23.3311h-1.8087c-.1841 0-.3335-.1494-.3335-.3335.0001-.1841.1494-.3334.3334-.3334h1.8088c.185 0 .3334.1493.3334.3334s-.1485.3335-.3334.3335z"/><path id="_282078064" d="m15.675 23.3311h-1.8088c-.184 0-.3334-.1494-.3334-.3335.0001-.1841.1494-.3334.3334-.3334h1.8088c.184 0 .3334.1493.3334.3334s-.1494.3335-.3334.3335z"/><path id="_282078184" d="m20.2519 23.3311h-1.8087c-.1841 0-.3335-.1494-.3335-.3335s.1494-.3334.3334-.3334h1.8088c.1841 0 .3334.1493.3334.3334.0001.1841-.1494.3335-.3334.3335z"/><path id="_282078160" d="m24.8288 23.3311h-1.8087c-.1849 0-.3335-.1494-.3335-.3335.0001-.1841.1485-.3334.3334-.3334h1.8088c.1841 0 .3334.1493.3334.3334s-.1494.3335-.3334.3335z"/><path id="_282078328" d="m29.4048 23.3311h-1.8087c-.1841 0-.3334-.1494-.3334-.3335s.1493-.3334.3334-.3334h1.8087c.1841 0 .3334.1493.3334.3334s-.1493.3335-.3334.3335z"/><path id="_282078424" d="m33.9817 23.3311h-1.8087c-.1841 0-.3334-.1494-.3334-.3335s.1493-.3334.3334-.3334h1.8087c.1841 0 .3334.1493.3334.3334.0001.1841-.1493.3335-.3334.3335z"/><path id="_282077968" d="m36.3583 7.8646c-.0807 0-.1607-.0286-.2249-.0868-3.1746-2.8872-7.2713-3.9691-12.1756-3.2171-3.6755.5644-6.4342 2.0014-6.462 2.0162-.1198.0633-.2666.0469-.3708-.0408-1.8451-1.5604-3.666-2.2142-5.4122-1.9416-2.7733.4333-4.4623 3.0869-4.4788 3.1129-.098.1563-.303.2041-.4593.1068-.1562-.0981-.2041-.303-.1068-.4593.0747-.1198 1.8599-2.9349 4.9364-3.4177 1.893-.2978 3.8362.3578 5.7812 1.9485.7121-.3482 3.2163-1.4848 6.4716-1.9841 2.2308-.3421 4.3468-.3091 6.2884.0981 2.4373.5123 4.6029 1.6168 6.4368 3.2849.1364.1241.1459.3352.0226.4706-.066.0729-.1563.1094-.2466.1094z"/><path id="_282078304" d="m35.0541 6.8157c-.1363 0-.264-.0842-.3135-.2197-.0165-.046-1.7149-4.6029-5.0058-5.572-1.6307-.4802-3.4091-.0017-5.2872 1.4206-.0729.0547-.165.0773-.2553.0625-.0902-.0139-.1702-.0651-.2215-.1407-.5357-.7832-1.3059-1.233-2.1134-1.233-.8067 0-1.5769.4498-2.1126 1.233-.0512.0756-.1312.1268-.2215.1407-.0902.0148-.1823-.0078-.2553-.0625-2.0595-1.5604-3.9404-2.0961-5.5885-1.5943-2.7924.8518-4.0454 4.4163-4.0576 4.4519-.0599.1745-.2492.2675-.4237.2075-.1736-.0599-.2666-.2492-.2067-.4237.0547-.1598 1.3789-3.923 4.4936-4.873 1.7896-.5462 3.7789-.0408 5.9158 1.5004.6487-.7971 1.5283-1.2468 2.4565-1.2468.9291-.0001 1.8087.4506 2.4573 1.2468 1.9607-1.4014 3.8467-1.8486 5.6102-1.3285 3.6157 1.0663 5.3697 5.783 5.4426 5.9827.0626.1737-.026.3647-.1997.4272-.0373.0139-.0755.0209-.1137.0209z"/><path id="_282078280" d="m32.4526 43.3493h-21.556c-1.0185 0-1.8495-.8163-1.9746-1.9398l-3.3342-29.8667c-.02-.1832.1119-.3482.2943-.369.1833-.0192.3482.112.369.2943l3.3335 29.8675c.0721.6487.514 1.3468 1.312 1.3468h21.556c.798 0 1.2391-.6981 1.312-1.3468l3.3336-29.8675c.0208-.1823.1857-.3135.3681-.2943.1832.0208.3152.1858.2943.369l-3.3335 29.8667c-.125 1.1235-.956 1.9398-1.9745 1.9398z"/></g></g></svg>