<svg clip-rule="evenodd" fill-rule="evenodd" height="512" image-rendering="optimizeQuality" shape-rendering="geometricPrecision" text-rendering="geometricPrecision" viewBox="0 0 43.3492 43.3492" width="512" xmlns="http://www.w3.org/2000/svg"><g id="Layer_x0020_1"><g id="_465147432"><path id="_465148464" d="m1.8327 7.5828c-.6428 0-1.1659.5232-1.1659 1.166 0 .6429.5231 1.166 1.1659 1.166l39.6835-.0001c.6425 0 1.1661-.5229 1.1661-1.1658.0001-.643-.5236-1.166-1.1661-1.166l-39.6835-.0001zm39.6835 2.9988h-39.6835c-1.0105 0-1.8328-.8221-1.8328-1.8327 0-1.0107.8222-1.8329 1.8328-1.8329l39.6835-.0001c1.0107 0 1.833.8223 1.833 1.8329s-.8223 1.8329-1.833 1.8328z"/><path id="_465148608" d="m2.4194 36.4332c-.1841 0-.3335-.1492-.3335-.3333v-25.8517c0-.1842.1494-.3334.3335-.3334.1841-.0001.3334.1493.3334.3334v25.8516c0 .1841-.1493.3335-.3334.3334zm1.9223 0c-.1842 0-.3335-.1492-.3335-.3333l.0001-25.8517c0-.1842.1492-.3334.3334-.3334.1842-.0001.3334.1493.3334.3334v25.8516c0 .1841-.1493.3335-.3334.3334z"/><path id="_465147816" d="m39.0076 36.4332c-.1841 0-.3335-.1492-.3335-.3333l.0001-25.8517c0-.1842.1493-.3334.3334-.3334.1841-.0001.3334.1493.3334.3334v25.8516c0 .1841-.1493.3335-.3334.3334zm1.9216 0c-.1841 0-.3335-.1492-.3335-.3333v-25.8517c0-.1842.1494-.3334.3335-.3334.1849-.0001.3334.1493.3334.3334v25.8516c0 .1841-.1485.3335-.3334.3334z"/><path id="_465147600" d="m23.1378 27.9749c-.1842 0-.3335-.1493-.3335-.3334v-17.3933c0-.1842.1492-.3334.3334-.3334.1841-.0001.3334.1493.3334.3334l.0001 17.3933c0 .1841-.1494.3334-.3334.3334z"/><path id="_465147576" d="m39.0076 27.9749h-15.8698c-.1842 0-.3335-.1493-.3335-.3334 0-.1842.1492-.3334.3334-.3334h15.8699c.1841 0 .3334.1493.3334.3334s-.1493.3334-.3334.3334z"/><path id="_465148032" d="m25.8338 17.5657h10.4776v-4.6743h-10.4776zm10.811.6669h-11.1444c-.1842 0-.3335-.1492-.3335-.3334v-5.3412c0-.1842.1493-.3334.3335-.3334h11.1444c.1841 0 .3335.1492.3335.3334v5.3411c0 .1843-.1494.3335-.3335.3335z"/><path id="_465147528" d="m25.8338 24.9982h10.4776v-4.6743h-10.4776zm10.811.6669h-11.1444c-.1842 0-.3335-.1493-.3335-.3334v-5.3413c0-.184.1493-.3334.3335-.3334h11.1444c.1841 0 .3335.1494.3335.3335v5.3412c0 .1841-.1494.3334-.3335.3334z"/><path id="_465148008" d="m32.6316 15.562h-3.118c-.1842 0-.3335-.1492-.3335-.3334s.1492-.3334.3334-.3334l3.1181-.0001c.1841 0 .3334.1494.3334.3335.0001.1842-.1493.3335-.3334.3334z"/><path id="_465147888" d="m32.6316 22.9945h-3.118c-.1842 0-.3335-.1492-.3335-.3334 0-.1841.1492-.3334.3334-.3334h3.1181c.1841 0 .3334.1494.3334.3334.0001.1841-.1493.3334-.3334.3334z"/><path id="_465147768" d="m4.3417 36.4332h-1.9223c-.1841 0-.3335-.1492-.3335-.3333 0-.1842.1494-.3335.3335-.3335h1.9223c.1842 0 .3334.1494.3334.3335 0 .184-.1493.3334-.3334.3333z"/><path id="_465147408" d="m40.9292 36.4332h-1.9216c-.1841 0-.3335-.1492-.3335-.3333.0001-.1842.1494-.3335.3335-.3335h1.9216c.1849 0 .3334.1494.3334.3335 0 .184-.1485.3334-.3334.3333z"/></g></g></svg>