<svg clip-rule="evenodd" fill-rule="evenodd" height="512" image-rendering="optimizeQuality" shape-rendering="geometricPrecision" text-rendering="geometricPrecision" viewBox="0 0 43.3492 43.3492" width="512" xmlns="http://www.w3.org/2000/svg"><g id="Layer_x0020_1"><g id="_465155352"><path id="_465155880" d="m38.7929 38.4223h-34.2366c-.184 0-.3334-.1493-.3334-.3334l.0001-34.6177c0-.1842.1492-.3334.3333-.3334.1843 0 .3335.1492.3335.3334l.0001 34.2842h33.5695v-34.2842c0-.1842.1493-.3334.3334-.3334.1842 0 .3335.1492.3335.3334l.0001 34.6177c0 .1841-.1495.3335-.3335.3334z"/><path id="_465156408" d="m9.2203 14.0741h24.9088v-7.618h-24.9088zm25.2422.667h-25.5757c-.184 0-.3335-.1493-.3335-.3334v-8.2849c0-.1841.1493-.3334.3334-.3334h25.5758c.1842 0 .3334.1493.3334.3335l.0001 8.2847c0 .1842-.1494.3335-.3335.3335z"/><path id="_465156024" d="m25.2531 10.5987h-7.1567c-.1843 0-.3336-.1493-.3336-.3334.0001-.1842.1493-.3334.3334-.3334l7.1569-.0001c.1841 0 .3333.1493.3333.3335 0 .1841-.1493.3334-.3333.3334z"/><path id="_465156000" d="m9.2203 24.589h24.9088v-7.6181h-24.9088zm25.2422.6668h-25.5757c-.184 0-.3335-.1493-.3335-.3334v-8.2849c0-.1842.1493-.3334.3334-.3334l25.5758-.0001c.1842 0 .3334.1494.3334.3335l.0001 8.2849c0 .1841-.1494.3334-.3335.3334z"/><path id="_465155976" d="m25.2531 21.1134h-7.1567c-.1843 0-.3336-.1492-.3336-.3334.0001-.1843.1493-.3335.3334-.3335h7.1569c.1841 0 .3333.1493.3333.3335 0 .1841-.1493.3334-.3333.3334z"/><path id="_465155808" d="m9.2203 35.1035h24.9088v-7.6179h-24.9088zm25.2422.6669h-25.5757c-.184 0-.3335-.1493-.3335-.3333v-8.2849c0-.1841.1493-.3334.3334-.3334h25.5758c.1842 0 .3334.1493.3334.3334l.0001 8.2848c0 .1841-.1494.3335-.3335.3334z"/><path id="_465156384" d="m25.2531 31.6281h-7.1567c-.1843 0-.3336-.1493-.3336-.3334.0001-.1842.1493-.3335.3334-.3335h7.1569c.1841 0 .3333.1493.3333.3335 0 .184-.1493.3334-.3333.3334z"/><path id="_465155952" d="m4.3193.6668c-.6806 0-1.2348.5542-1.2348 1.2354.0001.6813.554 1.2356 1.2348 1.2356h34.7106c.6809 0 1.2347-.5543 1.2347-1.2356.0001-.6812-.5539-1.2353-1.2347-1.2353zm34.7106 3.1378h-34.7106c-1.0489 0-1.9017-.8533-1.9017-1.9024.0002-1.0488.8528-1.9022 1.9017-1.9022h34.7106c1.049 0 1.9016.8534 1.9016 1.9022.0002 1.049-.8527 1.9025-1.9016 1.9024z"/><path id="_465156360" d="m13.9222 43.3492h-4.5657c-.1692 0-.3117-.1267-.3317-.2943l-.5887-4.927c-.0225-.1823.1085-.3481.2908-.3707.1824-.0208.3491.1086.3708.2918l.554 4.6334h3.9753l.5541-4.6335c.0217-.1823.1865-.3125.3706-.2917.1825.0226.3126.1885.2909.3708l-.5887 4.9269c-.0199.1676-.1624.2944-.3317.2943z"/><path id="_465155616" d="m33.9928 43.3492h-4.5657c-.1694 0-.3118-.1267-.3318-.2943l-.5886-4.927c-.0217-.1823.1085-.3481.2908-.3707.1833-.0208.3491.1086.3708.2918l.554 4.6334h3.9753l.5539-4.6335c.0218-.1823.1875-.3125.3707-.2917.1826.0226.3135.1885.2909.3708l-.5886 4.9269c-.0199.1676-.1625.2944-.3317.2943z"/></g></g></svg>