<svg clip-rule="evenodd" fill-rule="evenodd" height="512" image-rendering="optimizeQuality" shape-rendering="geometricPrecision" text-rendering="geometricPrecision" viewBox="0 0 43.3492 43.3492" width="512" xmlns="http://www.w3.org/2000/svg"><g id="Layer_x0020_1"><g id="_465163080"><path id="_465164352" d="m.6668 12.8151h42.0156v-2.332h-42.0156v2.332zm42.349.6668h-42.6824c-.1841 0-.3335-.1493-.3335-.3335v-2.9988c0-.1841.1494-.3334.3335-.3334l42.6824-.0002c.1841 0 .3334.1496.3334.3337v2.9987c0 .1842-.1493.3335-.3334.3335z"/><path id="_465163608" d="m41.5066 30.875h-39.6639c-.1842 0-.3335-.1491-.3335-.3333v-17.3933c0-.1841.1493-.3333.3334-.3333.1842 0 .3335.1492.3335.3333v17.0599h38.9971v-17.0599c0-.1841.1493-.3333.3334-.3333s.3335.1492.3335.3333v17.3932c0 .1842-.1494.3335-.3335.3334z"/><path id="_465163584" d="m4.4859 20.4659h10.4773v-4.6743h-10.4773zm10.8108.6668h-11.1442c-.1842 0-.3335-.1491-.3335-.3333l.0001-5.3411c0-.1843.1492-.3335.3334-.3335h11.1442c.1842 0 .3334.1493.3334.3335l.0001 5.3409c0 .1843-.1493.3336-.3335.3335z"/><path id="_465164184" d="m4.4859 27.8983h10.4773v-4.6743h-10.4773zm10.8108.6668h-11.1442c-.1842 0-.3335-.1491-.3335-.3332l.0001-5.3414c0-.184.1492-.3333.3334-.3333h11.1442c.1842 0 .3334.1494.3334.3335l.0001 5.3411c0 .1841-.1493.3335-.3335.3333z"/><path id="_465163560" d="m28.3857 20.4659h10.4777v-4.6743h-10.4777zm10.8112.6668h-11.1446c-.1841 0-.3334-.1491-.3334-.3333v-5.3411c0-.1843.1493-.3335.3334-.3335h11.1446c.1841 0 .3334.1493.3334.3335v5.3409c0 .1843-.1494.3336-.3334.3335z"/><path id="_465163896" d="m28.3857 27.8983h10.4777v-4.6743h-10.4777zm10.8112.6668h-11.1446c-.1841 0-.3334-.1491-.3334-.3332v-5.3414c0-.184.1493-.3333.3334-.3333h11.1446c.1841 0 .3334.1494.3334.3335v5.3411c0 .1841-.1494.3335-.3334.3333z"/><path id="_465164136" d="m18.093 30.875c-.1841 0-.3335-.1491-.3335-.3333l.0001-17.3933c0-.1841.1493-.3333.3334-.3333.1842 0 .3334.1492.3334.3333v17.3932c0 .1842-.1493.3335-.3334.3334zm6.5826 0c-.1841 0-.3334-.1491-.3334-.3333v-17.3933c0-.1841.1493-.3333.3334-.3333.1842 0 .3334.1492.3334.3333l.0001 17.3932c0 .1842-.1493.3335-.3335.3334z"/><path id="_465163848" d="m8.1338 33.5331h-3.4644c-.1518 0-.2844-.1024-.3227-.2492l-.6929-2.6581c-.0465-.1782.0602-.3603.2385-.4068.1785-.0465.3604.0605.4067.2386l.628 2.4087h2.9492l.6279-2.4088c.0465-.1781.2285-.2848.4068-.2385.1782.0465.285.2286.2385.4068l-.6929 2.658c-.0383.1468-.171.2494-.3227.2493z"/><path id="_465163680" d="m38.6793 33.5331h-3.4637c-.152 0-.2849-.1024-.3231-.2492l-.6929-2.6581c-.0465-.1782.0603-.3603.2385-.4068.1784-.0465.3607.0605.4067.2386l.6278 2.4087h2.9497l.6279-2.4088c.046-.1781.2283-.2848.4063-.2385.178.0465.2848.2286.2388.4068l-.6929 2.658c-.0382.1468-.1711.2494-.3231.2493z"/><path id="_465163512" d="m11.2836 18.4621h-3.118c-.1842 0-.3335-.1492-.3335-.3333 0-.1842.1493-.3334.3334-.3334l3.1181-.0001c.1841 0 .3335.1494.3335.3335s-.1494.3335-.3335.3333z"/><path id="_465164040" d="m35.1835 18.4621h-3.118c-.1842 0-.3335-.1492-.3335-.3333 0-.1842.1493-.3334.3334-.3334l3.1181-.0001c.184 0 .3334.1494.3334.3335s-.1494.3335-.3334.3333z"/><path id="_465163416" d="m35.1835 25.8946h-3.118c-.1842 0-.3335-.1491-.3335-.3333 0-.1843.1493-.3334.3334-.3334l3.1181-.0001c.184 0 .3334.1493.3334.3335 0 .184-.1494.3335-.3334.3333z"/><path id="_465163368" d="m11.2836 25.8946h-3.118c-.1842 0-.3335-.1491-.3335-.3333 0-.1843.1493-.3334.3334-.3334l3.1181-.0001c.1841 0 .3335.1493.3335.3335 0 .184-.1494.3335-.3335.3333z"/></g></g></svg>