<svg clip-rule="evenodd" fill-rule="evenodd" height="512" image-rendering="optimizeQuality" shape-rendering="geometricPrecision" text-rendering="geometricPrecision" viewBox="0 0 43.3492 43.3492" width="512" xmlns="http://www.w3.org/2000/svg"><g id="Layer_x0020_1"><g id="_465169128"><path id="_465171072" d="m4.7716 43.3492c-.1848 0-.3334-.1493-.3334-.3334l.0001-42.6824c0-.1843.1484-.3334.3333-.3334.1843-.0002.3335.1493.3335.3334v42.6823c0 .1841-.1494.3335-.3335.3335z"/><path id="_465170544" d="m38.5778 42.437h-33.8062c-.1848 0-.3334-.1491-.3334-.3333.0001-.1842.1485-.3334.3334-.3334l33.8062-.0001c.184 0 .3332.1494.3332.3335.0001.1841-.1494.3334-.3332.3333z"/><path id="_465171048" d="m38.5778 43.3492c-.1843 0-.3337-.1493-.3337-.3334l.0002-42.6824c0-.1843.1492-.3334.3333-.3334.1842-.0002.3334.1493.3334.3334l.0001 42.6823c0 .1841-.1495.3335-.3333.3335z"/><path id="_465170496" d="m38.5778 1.5789h-33.8062c-.1848 0-.3334-.1493-.3334-.3335.0001-.1843.1485-.3334.3334-.3334l33.8062-.0001c.184 0 .3332.1494.3332.3335.0001.184-.1494.3335-.3332.3335z"/><path id="_465169776" d="m7.3846 39.4902h13.103v-6.5154h-13.103zm13.4365.6668h-13.7693c-.1848 0-.3334-.1492-.3334-.3334l.0001-7.1821c0-.1842.1484-.3334.3333-.3334l13.7693-.0001c.184 0 .3334.1494.3334.3336l.0001 7.1819c0 .1842-.1495.3335-.3335.3335z"/><path id="_465169704" d="m22.8651 39.4902h13.0989v-6.5154h-13.0989zm13.4322.6668h-13.7655c-.1842 0-.3336-.1492-.3336-.3334l.0001-7.1821c0-.1842.1492-.3334.3333-.3334l13.7657-.0001c.1843 0 .3335.1494.3335.3336v7.1819c0 .1842-.1494.3335-.3335.3335z"/><path id="_465169656" d="m18.5409 37.9899c-.1841 0-.3336-.1491-.3336-.3333l.0001-2.6792c0-.184.1493-.3333.3334-.3333s.3334.1493.3334.3334l.0002 2.6791c0 .184-.1496.3334-.3335.3333z"/><path id="_465170376" d="m24.812 37.9899c-.185 0-.3336-.1491-.3336-.3333l.0001-2.6792c0-.184.1484-.3333.3334-.3333.1842 0 .3334.1493.3334.3334v2.6791c0 .184-.1493.3334-.3333.3333z"/><path id="_465170136" d="m30.5969 11.0067h-25.8253c-.1848 0-.3334-.1492-.3334-.3334.0001-.1842.1485-.3333.3334-.3333l25.8253-.0001c.184 0 .3333.1494.3333.3334 0 .1841-.1494.3335-.3333.3334z"/><path id="_465169944" d="m38.5778 23.5468h-25.8261c-.184 0-.3335-.1491-.3335-.3333 0-.184.1493-.3333.3334-.3333h25.8262c.184 0 .3332.1493.3332.3333.0001.184-.1494.3335-.3332.3333z"/><path id="_465169728" d="m36.4972 23.5468c-.1842 0-.3336-.1491-.3336-.3333l.0001-8.4447h-1.9268v8.4447c0 .184-.1495.3335-.3336.3335-.1839-.0002-.3334-.1493-.3334-.3335v-8.7782c0-.184.1493-.3333.3334-.3333l2.5939-.0002c.1841 0 .3333.1495.3333.3336v8.7781c0 .184-.1494.3335-.3333.3333z"/><path id="_465170088" d="m31.3809 23.5468c-.185 0-.3335-.1491-.3335-.3333v-8.4447h-1.9268v8.4447c0 .184-.1494.3335-.3335.3335-.184-.0002-.3334-.1493-.3334-.3335l.0001-8.7782c0-.184.1492-.3333.3333-.3333l2.5938-.0002c.1841 0 .3334.1495.3334.3336l.0001 8.7781c0 .184-.1495.3335-.3335.3333z"/><path id="_465170328" d="m26.2638 23.5468c-.184 0-.3335-.1491-.3335-.3333l.0001-8.4447h-1.9268v8.4447c0 .184-.1495.3335-.3336.3335-.184-.0002-.3334-.1493-.3334-.3335l.0002-8.7782c0-.184.1491-.3333.3332-.3333l2.5938-.0002c.1841 0 .3334.1495.3334.3336l.0001 8.7781c0 .184-.1495.3335-.3335.3333z"/><path id="_465170184" d="m17.3989 21.7947 1.6691.9634 4.056-7.0247-1.6689-.9634zm1.7906 1.7523c-.0565 0-.1138-.0144-.1659-.0447l-2.2464-1.2967c-.0764-.0444-.1329-.1172-.1554-.2025-.0233-.0855-.0113-.1765.033-.253l4.3894-7.6024c.0444-.0766.1172-.1322.2023-.1552.0851-.0231.1763-.0109.2527.0333l2.2465 1.2967c.1598.0922.2143.2963.1223.4557l-4.3893 7.602c-.0618.107-.1738.1669-.2892.1668z"/><path id="_465168912" d="m7.2222 11.0067c-.1842 0-.3336-.1492-.3336-.3334l.0001-6.2044c0-.1841.1493-.3333.3334-.3333.1849-.0001.3334.1493.3334.3334v6.2042c0 .1842-.1485.3336-.3333.3335zm8.6659 0c-.1841 0-.3335-.1492-.3335-.3334v-6.2044c0-.1841.1493-.3333.3334-.3333.1841-.0001.3335.1493.3335.3334l.0001 6.2042c0 .1842-.1495.3336-.3335.3335z"/><path id="_465169176" d="m7.3004 4.1355h8.5105v-.6257h-8.5105zm8.8438.6669h-9.1773c-.1841 0-.3336-.1493-.3336-.3334l.0001-1.2926c0-.1842.1493-.3334.3334-.3334l9.1774-.0001c.1842 0 .3334.1494.3334.3336l.0001 1.2924c0 .1842-.1494.3335-.3335.3335z"/><path id="_465168864" d="m13.4508 6.3534h-3.7913c-.184 0-.3335-.1492-.3335-.3334 0-.1841.1494-.3334.3335-.3334h3.7913c.184 0 .3332.1493.3332.3334.0001.1842-.1493.3335-.3332.3334z"/><path id="_465169152" d="m19.4794 11.0067c-.184 0-.3325-.1492-.3325-.3334v-6.2044c0-.1841.1485-.3333.3325-.3333.1851-.0001.3335.1493.3335.3334l.0001 6.2042c0 .1842-.1486.3336-.3336.3335zm8.6661 0c-.184 0-.3335-.1492-.3335-.3334v-6.2044c0-.1841.1493-.3333.3334-.3333.1841-.0001.3335.1493.3335.3334l.0001 6.2042c0 .1842-.1495.3336-.3335.3335z"/><path id="_465169512" d="m19.5576 4.1355h8.5105v-.6257h-8.5105zm8.844.6669h-9.1773c-.184 0-.3336-.1493-.3336-.3334l.0001-1.2926c0-.1842.1493-.3334.3333-.3334l9.1775-.0001c.1841 0 .3334.1494.3334.3336l.0002 1.2924c0 .1842-.1495.3335-.3336.3335z"/><path id="_465169416" d="m25.708 6.3534h-3.791c-.1841 0-.3336-.1492-.3336-.3334 0-.1841.1494-.3334.3335-.3334h3.7911c.1842 0 .3334.1493.3334.3334.0001.1842-.1493.3335-.3334.3334z"/><path id="_465168936" d="m38.5778 30.374h-33.8062c-.1848 0-.3334-.1492-.3334-.3334.0001-.1842.1485-.3333.3334-.3333l33.8062-.0001c.184 0 .3332.1493.3332.3334.0001.1841-.1494.3335-.3332.3334z"/></g></g></svg>