<svg clip-rule="evenodd" fill-rule="evenodd" height="512" image-rendering="optimizeQuality" shape-rendering="geometricPrecision" text-rendering="geometricPrecision" viewBox="0 0 43.3492 43.3492" width="512" xmlns="http://www.w3.org/2000/svg"><g id="Layer_x0020_1"><g id="_465147048"><path id="_465146856" d="m21.4958.6668c-4.9956 0-9.546 1.361-11.5927 3.4672-.7426.7643-1.107 1.574-1.0831 2.4069.0438 1.5278 1.392 2.9851 3.796 4.1033 2.4815 1.1542 5.7618 1.7899 9.2368 1.7899 4.9957 0 9.5462-1.361 11.5927-3.4672.7427-.7644 1.1072-1.574 1.0832-2.4069-.0438-1.5279-1.3919-2.9851-3.7961-4.1033-2.4813-1.1543-5.7617-1.7898-9.2368-1.7899zm.357 12.4341c-3.57 0-6.9503-.6577-9.5179-1.852-2.645-1.2304-4.1301-2.8955-4.1815-4.6889-.0293-1.0197.3985-1.9923 1.2714-2.8907 2.1994-2.2633 6.8247-3.6693 12.071-3.6693 3.5702 0 6.9504.6577 9.5181 1.852 2.645 1.2303 4.1299 2.8955 4.1814 4.6889.0293 1.0197-.3985 1.9923-1.2715 2.8907-2.1992 2.2634-6.8246 3.6693-12.071 3.6693z"/><path id="_465147072" d="m21.6594 19.4422c-.0179 0-.0348.0001-.0527.0001-6.4796-.0119-13.4535-2.2315-13.4535-7.0766v-5.8153c0-.1841.1493-.3333.3335-.3333.1841 0 .3334.1492.3334.3333v5.8153c0 2.4469 2.1219 3.9306 3.9019 4.7443 2.3356 1.0678 5.4913 1.6592 8.8859 1.6654 3.4116.0039 6.5887-.5783 8.947-1.6461 1.798-.8143 3.9432-2.3018 3.9523-4.7648l.0214-5.8154c.0007-.1836.1499-.332.3334-.332h.0013c.1841.0005.3328.1504.3322.3346l-.0214 5.8152c-.0179 4.865-7.0079 7.0754-13.5147 7.0753z"/><path id="_465146832" d="m5.7575 43.3492c-.1105 0-.2216-.0147-.3311-.0433-.6787-.1816-1.0834-.8814-.902-1.5604l6.6303-24.9958c.0473-.178.2301-.284.4078-.2368.178.0473.284.2298.2368.4078l-6.6305 24.9967c-.0866.3238.1063.6573.4298.7442.1566.0416.3204.0199.4608-.0608.1405-.0817.2409-.2128.2827-.3691l6.5962-24.6175c.0477-.1779.2307-.2833.4083-.2357.1779.0476.2835.2304.2358.4083l-6.5961 24.6168c-.0878.3291-.2984.6035-.5931.7737-.1965.1138-.4147.172-.6357.1719z"/><path id="_465146976" d="m22.428 36.9635c-.7034 0-1.2754-.5722-1.2754-1.2755v-16.5795c0-.1843.1493-.3335.3333-.3335.1842-.0001.3335.1493.3335.3335v16.5795c0 .3352.273.6087.6086.6087.3355 0 .6085-.2735.6085-.6087v-16.6302c0-.184.1493-.3332.3335-.3332.1841-.0001.3334.1492.3334.3333v16.6301c0 .7033-.5721 1.2756-1.2754 1.2755z"/><path id="_465146760" d="m37.5913 43.3492c-.2211 0-.4393-.0581-.6358-.1719-.2946-.1702-.5053-.4445-.5932-.7736l-6.5987-24.6274c-.0477-.1778.0579-.3607.2357-.4082.1777-.0479.3607.0578.4084.2357l6.5989 24.627c.0419.1571.1423.2883.2827.37.1405.0807.304.1024.4608.0608.1568-.0417.2878-.1425.369-.2831.0812-.1408.1029-.3039.0609-.4602l-6.6346-25.013c-.0473-.178.0588-.3605.2368-.4077.1779-.0476.3605.0587.4077.2368l6.6346 25.0119c.0877.3282.0423.6713-.1281.9665-.1703.2943-.4453.5054-.7741.5931-.1095.0286-.2206.0434-.331.0433z"/></g></g></svg>