<svg clip-rule="evenodd" fill-rule="evenodd" height="512" image-rendering="optimizeQuality" shape-rendering="geometricPrecision" text-rendering="geometricPrecision" viewBox="0 0 43.3492 43.3492" width="512" xmlns="http://www.w3.org/2000/svg"><g id="Layer_x0020_1"><g id="_465151560"><path id="_465153096" d="m21.6746 19.6819c1.346 0 2.6928.0385 3.9598.1157.1078-2.3628.7632-4.8407 1.3989-7.2408.4212-1.5908.825-3.1178 1.0473-4.5176.0009-.0179.0035-.0353.0078-.0523.515-3.3085-.0052-5.9005-3.7558-6.9416-1.8381-.5101-3.4778-.5101-5.3162 0-3.7547 1.0421-4.2715 3.635-3.754 6.9436.0044.0156.007.0318.0079.0481.2223 1.3948.6252 2.916 1.0446 4.5005.6384 2.4058 1.2965 4.89 1.4016 7.26 1.2671-.0771 2.6121-.1155 3.9581-.1156zm-7.8353-11.3383c-1.3243 0-2.2188.2885-2.7216.8732-1.0195 1.1873-.4064 3.6494.2431 6.256.4178 1.6747.8484 3.4017.9457 5.0586 1.1715-.3205 2.8482-.5503 4.7448-.6894-.1007-2.3032-.7512-4.7571-1.3807-7.1336-.3986-1.5056-.7859-2.9654-1.0195-4.3328-.2874-.0214-.5575-.032-.8118-.032zm12.4603 11.4985c1.8956.1391 3.5716.369 4.7421.6893.0982-1.6573.5289-3.3848.9466-5.0597.6496-2.6063 1.2635-5.068.244-6.2551-.5983-.6973-1.7559-.9732-3.5317-.8412-.2344 1.3731-.6226 2.8397-1.023 4.3521-.6267 2.3706-1.2747 4.8183-1.378 7.1146zm5.0583 1.4654c-.0355 0-.0713-.0055-.1051-.0168-3.76-1.2433-15.3973-1.2433-19.1574 0-.0998.0332-.2101.0168-.2961-.0441-.0868-.061-.1389-.1592-.1415-.265-.0381-1.7139-.4985-3.5611-.9439-5.3475-.7225-2.8992-1.346-5.403-.1016-6.8518.7261-.8457 2.0155-1.2013 3.9346-1.0821-.1179-.8816-.1598-1.7195-.0834-2.5003.2406-2.478 1.6717-4.0471 4.3749-4.7972 1.9349-.537 3.7375-.537 5.6723 0 2.7033.7501 4.1343 2.3216 4.3749 4.8042.0755.7788.0347 1.6143-.0825 2.4932 1.9192-.119 3.2086.2364 3.9355 1.082 1.2435 1.4484.6191 3.9521-.1034 6.851-.4453 1.7866-.9057 3.6343-.9439 5.3485-.0026.1057-.0547.2041-.1415.265-.0572.0402-.1242.061-.1919.0609z"/><path id="_465152832" d="m20.0984 24.5921c-.184 0-.3334-.1493-.3334-.3334l.0001-4.2222c0-.1842.1492-.3334.3333-.3334.1843-.0001.3335.1493.3335.3334l.0001 4.2221c0 .1842-.1495.3335-.3336.3335zm3.1514 0c-.184 0-.3335-.1493-.3335-.3334l.0002-4.2222c0-.1842.1492-.3334.3333-.3334.185-.0001.3335.1493.3335.3334l.0001 4.2221c0 .1842-.1486.3335-.3336.3335z"/><path id="_465153432" d="m31.4257 28.6448c-.1842 0-.3336-.1492-.3336-.3334l.0001-2.0265c0-.9334-.7599-1.6928-1.6934-1.6928h-15.4493c-.9326 0-1.6925.7594-1.6925 1.6928l.0001 2.0265c0 .1841-.1495.3335-.3336.3335-.184-.0001-.3334-.1493-.3334-.3335l.0001-2.0265c0-1.3012 1.0584-2.3597 2.3593-2.3597h15.4493c1.3018 0 2.3602 1.0586 2.3602 2.3597v2.0265c0 .1841-.1493.3335-.3333.3334z"/><path id="_465152160" d="m12.2571 32.0307h18.8351v-3.3859h-18.8351zm19.1686.6668h-19.5022c-.184 0-.3334-.1492-.3334-.3334l.0001-4.0527c0-.1842.1492-.3335.3333-.3335h19.5022c.1841 0 .3333.1494.3333.3335v4.0527c0 .1841-.1493.3335-.3333.3334z"/><path id="_465152088" d="m20.0984 38.0261c-.184 0-.3334-.1493-.3334-.3334l.0001-5.3286c0-.1842.1492-.3334.3333-.3334.1843 0 .3335.1492.3335.3334l.0001 5.3285c0 .1842-.1495.3335-.3336.3335zm3.1514 0c-.184 0-.3335-.1493-.3335-.3334l.0002-5.3286c0-.1842.1492-.3334.3333-.3334.185 0 .3335.1492.3335.3334l.0001 5.3285c0 .1842-.1486.3335-.3336.3335z"/><path id="_465152616" d="m11.6336 40.4298c-.1841 0-.3336-.1493-.3336-.3335l.0001-1.2019c0-.8466.6886-1.5352 1.5352-1.5352h7.6322c.1841 0 .3335.1494.3335.3335.0001.1841-.1494.3334-.3335.3334h-7.6321c-.4785 0-.8685.3899-.8685.8684l.0002 1.2018c0 .1841-.1495.3335-.3335.3335z"/><path id="_465152664" d="m31.7157 40.4298c-.185 0-.3335-.1493-.3335-.3335l.0001-1.2019c0-.4785-.39-.8683-.8685-.8683h-7.6338c-.1841 0-.3336-.1493-.3336-.3334s.1494-.3335.3335-.3335h7.634c.8458 0 1.5352.6886 1.5352 1.5353l.0001 1.2018c0 .1841-.1495.3335-.3335.3335z"/><path id="_465152544" d="m11.6336 40.4298c-.6209 0-1.1264.5054-1.1264 1.1263 0 .6208.5054 1.1263 1.1263 1.1263.621 0 1.1263-.5054 1.1263-1.1263 0-.621-.5054-1.1263-1.1262-1.1263zm0 2.9194c-.989 0-1.7933-.8049-1.7933-1.7931 0-.9892.8041-1.7932 1.7932-1.7932.9891-.0001 1.7932.8041 1.7932 1.7932.0001.9881-.8041 1.7932-1.7931 1.7931z"/><path id="_465152352" d="m31.7157 40.4298c-.6217 0-1.1264.5054-1.1264 1.1263.0002.6208.5046 1.1263 1.1263 1.1263.621 0 1.1263-.5054 1.1263-1.1263.0002-.621-.5054-1.1263-1.1262-1.1263zm0 2.9194c-.9891 0-1.7933-.8049-1.7933-1.7931 0-.9892.8041-1.7932 1.7932-1.7932.9883-.0001 1.7932.8041 1.7932 1.7932.0001.9881-.805 1.7932-1.7931 1.7931z"/><path id="_465152400" d="m20.4877 39.7628h2.3723l-.2667-1.7367h-1.8401zm2.7614.667h-3.1507c-.097 0-.1893-.0426-.2527-.1163-.0632-.0739-.0912-.172-.0764-.2675l.3682-2.4037c.0252-.1633.165-.2831.33-.2831h2.4125c.1649 0 .3047.1199.3298.2831l.3683 2.4037c.0148.0955-.0131.1936-.0765.2675-.0632.0737-.1554.1163-.2525.1163z"/><path id="_465152376" d="m21.6739 40.4298c-.621 0-1.1265.5054-1.1265 1.1263.0001.6208.5054 1.1263 1.1263 1.1263s1.1263-.5054 1.1263-1.1263c0-.621-.5054-1.1263-1.1261-1.1263zm0 2.9194c-.9893 0-1.7934-.8049-1.7934-1.7931.0001-.9892.8041-1.7932 1.7932-1.7932.9892-.0001 1.7932.8041 1.7932 1.7932 0 .9881-.8041 1.7932-1.793 1.7931z"/><path id="_465152280" d="m11.9235 27.7229h-3.5984c-.1842 0-.3336-.1493-.3336-.3335l.0001-4.5174c0-.1842.1492-.3334.3334-.3334.1842-.0001.3334.1493.3334.3335l.0001 4.184h3.265c.1843 0 .3335.1492.3335.3333.0001.1842-.1494.3335-.3335.3335zm0 1.8439h-4.5206c-.6922 0-1.2558-.5632-1.2558-1.2554l.0001-5.4394c0-.1842.1492-.3334.3333-.3334.1842-.0001.3335.1493.3335.3335v5.4393c0 .3244.2639.5885.5887.5885h4.5208c.1843 0 .3335.1493.3335.3335.0001.184-.1494.3334-.3335.3334z"/><path id="_465152016" d="m35.0241 27.7229h-3.5984c-.1842 0-.3336-.1493-.3336-.3335.0001-.1841.1494-.3333.3335-.3333h3.2652v-4.1841c0-.1842.1492-.3334.3333-.3334.1843-.0001.3335.1493.3335.3335v4.5173c0 .1842-.1494.3335-.3335.3335zm.9223 1.8439h-4.5207c-.1842 0-.3336-.1493-.3336-.3334.0001-.1842.1494-.3335.3335-.3335h4.5208c.3239 0 .5878-.264.5878-.5885l.0001-5.4394c0-.1842.1493-.3334.3334-.3334.1841-.0001.3335.1493.3335.3335l.0001 5.4393c0 .6922-.5628 1.2554-1.2549 1.2554z"/><path id="_465152208" d="m4.7863 22.5385h5.233v-.7728c0-.4261-.3466-.7728-.773-.7728l-3.6871-.0001c-.4263 0-.7729.3468-.7729.7729zm5.5663.667h-5.8996c-.1841 0-.3336-.1493-.3336-.3334l.0001-1.1064c0-.7939.6451-1.4397 1.4397-1.4397l3.6872-.0001c.7936 0 1.4397.646 1.4397 1.4398l.0001 1.1063c0 .1842-.1495.3335-.3336.3335z"/><path id="_465151656" d="m33.3292 22.5385h5.2338v-.7728c0-.4261-.3467-.7728-.7731-.7728l-3.688-.0001c-.4253 0-.7728.3468-.7728.7729zm5.5671.667h-5.9007c-.184 0-.3334-.1493-.3334-.3334l.0001-1.1064c0-.7939.6459-1.4397 1.4396-1.4397l3.6881-.0001c.7937 0 1.4397.646 1.4397 1.4398l.0001 1.1063c0 .1842-.1495.3335-.3335.3335z"/><path id="_465151608" d="m25.5927 8.7733h-7.8361c-.1843 0-.3336-.1493-.3336-.3335 0-.1841.1493-.3334.3334-.3334l7.8363-.0001c.185 0 .3334.1495.3334.3335.0001.1842-.1484.3335-.3334.3335z"/><path id="_465151752" d="m25.5927 12.8276h-7.8361c-.1843 0-.3336-.1492-.3336-.3334 0-.1841.1493-.3334.3334-.3334h7.8363c.185 0 .3334.1493.3334.3334.0001.1841-.1484.3335-.3334.3334z"/><path id="_465151584" d="m25.5927 4.7189h-7.8361c-.1843 0-.3336-.1493-.3336-.3334 0-.1843.1493-.3335.3334-.3335h7.8363c.185 0 .3334.1493.3334.3335.0001.184-.1484.3334-.3334.3334z"/></g></g></svg>