<svg clip-rule="evenodd" fill-rule="evenodd" height="512" image-rendering="optimizeQuality" shape-rendering="geometricPrecision" text-rendering="geometricPrecision" viewBox="0 0 43.3492 43.3492" width="512" xmlns="http://www.w3.org/2000/svg"><g id="Layer_x0020_1"><g id="_465154704"><path id="_465155256" d="m.6669 41.4632h3.851v-37.1171c0-1.0617-.8632-1.9255-1.9251-1.9255-1.062 0-1.926.8638-1.926 1.9255zm4.1845.6668h-4.518c-.184 0-.3335-.1492-.3335-.3333l.0002-37.4506c0-1.4294 1.1634-2.5923 2.5927-2.5923 1.4292 0 2.5919 1.1629 2.5919 2.5923v37.4506c0 .184-.1485.3334-.3333.3333z"/><path id="_465155640" d="m38.8313 41.4632h3.8509v-37.1171c0-1.0617-.864-1.9255-1.9259-1.9255-1.0611 0-1.9251.8638-1.9251 1.9255zm4.1844.6668h-4.5177c-.1843 0-.3337-.1492-.3337-.3333l.0001-37.4506c0-1.4294 1.1626-2.5923 2.5919-2.5923 1.4303 0 2.5928 1.1629 2.5928 2.5923l.0001 37.4506c0 .184-.1495.3334-.3335.3333z"/><path id="_465155664" d="m11.6868 8.8111h-6.8354c-.1841 0-.3336-.1493-.3336-.3335.0001-.1841.1494-.3333.3335-.3333l6.8355-.0001c.1841 0 .3333.1493.3333.3334.0001.1842-.1493.3335-.3333.3335zm26.8112 0h-3.3665c-.1842 0-.3336-.1493-.3336-.3335.0001-.1841.1493-.3333.3334-.3333l3.3667-.0001c.184 0 .3332.1493.3332.3334.0001.1842-.1493.3335-.3332.3335zm0 5.1122h-33.6466c-.1841 0-.3336-.1493-.3336-.3333.0001-.1843.1494-.3335.3335-.3335h33.6467c.184 0 .3332.1493.3332.3335.0001.184-.1493.3334-.3332.3333z"/><path id="_465155496" d="m10.261 8.8111c-2.0926 0-3.7955-1.7029-3.7955-3.796 0-2.0932 1.7028-3.796 3.7954-3.796 1.7341 0 3.2467 1.1719 3.6773 2.8497.0453.1784-.0616.3601-.2405.4059-.1779.0459-.3603-.0617-.4055-.2401-.3551-1.3829-1.6012-2.3486-3.0313-2.3486-1.7252 0-3.1286 1.4037-3.1286 3.1291s1.4032 3.1292 3.1286 3.1292c.5099-.0001.9959-.119 1.4457-.3534.1633-.0853.3647-.022.4498.1412s.0217.3647-.1415.4499c-.5375.2807-1.1444.4291-1.7539.4291z"/><path id="_465154800" d="m11.7832 10.8788h23.8734c-1.5395-4.5436-2.868-6.7302-4.6819-7.7444-1.8747-1.0475-4.3668-.8505-8.1388-.5525-2.228.1759-4.9894.3941-8.3359.4032l-2.7168 6.0939zm24.3363.6668h-24.6698c-.1841 0-.3335-.1493-.3335-.3334l.0002-2.2041c0-.0469.0102-.0931.0293-.1358l2.8335-6.3561c.0537-.1202.1726-.1976.3046-.1976 3.417-.0001 6.2354-.2226 8.4991-.4015 7.7351-.611 10.3409-.8171 13.6535 9.1903.034.1016.0165.2133-.046.3-.0632.0868-.1633.1382-.2709.1382z"/><path id="_465154728" d="m11.6868 30.6275h-6.8354c-.1841 0-.3336-.1492-.3336-.3334.0001-.1842.1494-.3334.3335-.3334l6.8355-.0001c.1841 0 .3333.1494.3333.3335.0001.1841-.1493.3335-.3333.3334zm26.8112 0h-3.3665c-.1842 0-.3336-.1492-.3336-.3334.0001-.1842.1493-.3334.3334-.3334l3.3667-.0001c.184 0 .3332.1494.3332.3335.0001.1841-.1493.3335-.3332.3334zm0 5.1126h-33.6466c-.1841 0-.3336-.1493-.3336-.3334.0001-.1841.1494-.3334.3335-.3334l33.6467-.0001c.184 0 .3332.1494.3332.3335.0001.184-.1493.3334-.3332.3334z"/><path id="_465154608" d="m10.261 30.6275c-2.0926 0-3.7955-1.7028-3.7955-3.7959 0-2.0932 1.7028-3.796 3.7954-3.796 1.7341 0 3.2467 1.1718 3.6773 2.8497.0453.1784-.0616.3601-.2405.4058-.1779.0457-.3603-.0616-.4055-.2399-.3551-1.3829-1.6012-2.3488-3.0313-2.3488-1.7252-.0001-3.1286 1.4038-3.1286 3.1292 0 1.7253 1.4032 3.1291 3.1286 3.1291.5099-.0001.9968-.1189 1.4457-.3533.1633-.0852.3647-.022.4498.1412.0851.1633.0217.3647-.1415.4499-.5375.2806-1.1444.4291-1.7539.429z"/><path id="_465154872" d="m11.7832 32.6952h23.8734c-1.5395-4.5435-2.868-6.7301-4.6819-7.7443-1.8747-1.0474-4.3668-.8506-8.1388-.5526-2.228.1761-4.9894.3942-8.3359.4033l-2.7168 6.0939zm24.3363.6668h-24.6698c-.1841 0-.3335-.1492-.3335-.3333l.0002-2.2042c0-.0467.0102-.093.0293-.1357l2.8335-6.3561c.0537-.1202.1726-.1976.3046-.1976 3.417 0 6.2354-.2226 8.4991-.4015 7.7351-.6111 10.3409-.817 13.6535 9.1903.034.1016.0165.2133-.046.3-.0632.0868-.1633.1382-.2709.1381z"/></g></g></svg>