<svg clip-rule="evenodd" fill-rule="evenodd" height="512" image-rendering="optimizeQuality" shape-rendering="geometricPrecision" text-rendering="geometricPrecision" viewBox="0 0 43.3492 43.3492" width="512" xmlns="http://www.w3.org/2000/svg"><g id="Layer_x0020_1"><g id="_282089776"><path id="_282090304" d="m31.4227 35.4213h-19.496c-2.7093 0-4.3644-.5748-5.2093-1.8087-.7639-1.115-.7641-2.6267-.765-4.228-.0007-2.4739-.0017-5.2786-2.7179-7.5372-.1414-.1181-.1606-.3282-.0426-.4697.1173-.1416.3274-.1607.4689-.0434 2.9569 2.4582 2.9576 5.5591 2.9585 8.0503.001 1.5595.0009 2.9064.6477 3.8511.7096 1.0359 2.1909 1.5188 4.6596 1.5188l19.4961-.0001c2.4696 0 3.9499-.4827 4.6594-1.5187.647-.9447.6477-2.2915.6477-3.8511.0009-2.4913.0018-5.5921 2.9585-8.0503.1417-.1173.3516-.0982.4697.0434.1174.1414.0982.3517-.0434.4697-2.7161 2.2585-2.717 5.0633-2.7179 7.5372 0 1.6012-.0008 3.113-.7641 4.228-.8448 1.2339-2.5008 1.8088-5.2099 1.8087z"/><path id="_282090640" d="m1.4875 19.6167c-.4525 0-.8207.3682-.8207.8205.0002.4525.3682.8206.8206.8206h40.3752c.4526 0 .8197-.3681.8197-.8206.0001-.4524-.3673-.8205-.8197-.8205h-40.3751zm40.3751 2.3071h-40.3751c-.8205 0-1.4876-.6668-1.4876-1.4866 0-.8197.6669-1.4874 1.4875-1.4874l40.3752-.0001c.8198 0 1.4866.6678 1.4866 1.4875.0001.8198-.6669 1.4866-1.4866 1.4866z"/><path id="_282089512" d="m6.6959 19.6167c-.1843 0-.3336-.1485-.3336-.3335l.0001-6.6368c0-.9899.4262-1.7557 1.1704-2.0996.5375-.2501 1.2252-.25 1.7636 0 .7433.3438 1.1696 1.1098 1.1696 2.0997.0001.4853.3231.8796.719.8796.397 0 .7199-.3942.7199-.8796.0001-1.7601-.7676-3.1252-2.1057-3.7452-.4323-.2006-.9118-.3065-1.385-.3065s-.9518.106-1.3842.3065c-1.338.62-2.1057 1.9851-2.1057 3.7452l.0001 6.6367c0 .185-.1495.3335-.3335.3335-.1841 0-.3335-.1485-.3335-.3335l.0002-6.6368c0-2.0006.9315-3.627 2.4911-4.3503.5202-.2406 1.0958-.3682 1.6655-.3682s1.1453.1277 1.6654.3682c1.5605.7232 2.4922 2.3497 2.4922 4.3504 0 .8526-.6218 1.5465-1.3868 1.5465-.7641 0-1.3858-.6938-1.3858-1.5465 0-.4229-.1017-1.1792-.7833-1.4953-.3637-.1685-.8397-.1685-1.2026 0-.6825.316-.7842 1.0724-.7842 1.4953l.0001 6.6367c0 .185-.1494.3335-.3333.3335z"/><path id="_282089440" d="m4.5909 17.0793h-1.6568c-.1841 0-.3335-.1493-.3335-.3334.0002-.1841.1493-.3334.3335-.3334l1.6568-.0001c.184 0 .3334.1494.3334.3335.0001.184-.1494.3335-.3334.3334z"/><path id="_282090016" d="m8.3527 17.0793h-1.6568c-.1843 0-.3336-.1493-.3336-.3334.0001-.1841.1493-.3334.3334-.3334l1.657-.0001c.184 0 .3332.1494.3332.3335.0001.184-.1493.3335-.3332.3334z"/><path id="_282089560" d="m8.3527 17.9225c-.1843 0-.3336-.1493-.3336-.3334l.0001-1.6872c0-.1842.1492-.3334.3333-.3334.1842 0 .3334.1493.3334.3334l.0001 1.6872c0 .184-.1494.3334-.3333.3334z"/><path id="_282089704" d="m2.9341 17.9225c-.1841 0-.3335-.1493-.3335-.3334l.0002-1.6872c0-.1842.1491-.3334.3333-.3334.1841 0 .3334.1493.3334.3334l.0001 1.6872c0 .184-.1494.3334-.3335.3334z"/></g></g></svg>