<svg clip-rule="evenodd" fill-rule="evenodd" height="512" image-rendering="optimizeQuality" shape-rendering="geometricPrecision" text-rendering="geometricPrecision" viewBox="0 0 43.3492 43.3492" width="512" xmlns="http://www.w3.org/2000/svg"><g id="Layer_x0020_1"><g id="_282093400"><path id="_282094840" d="m21.6743.6668c-4.3236 0-7.8421 4.9826-7.8421 11.1079.0001 6.1243 3.5185 11.1078 7.8419 11.1078 4.3247 0 7.8429-4.9834 7.8429-11.1078.0002-6.1253-3.5185-11.1078-7.8427-11.1079zm0 22.8825c-2.2941 0-4.4435-1.2399-6.0525-3.4907-1.5836-2.2168-2.4565-5.1596-2.4565-8.2839 0-3.1252.8726-6.0671 2.4565-8.284 1.6093-2.2516 3.7582-3.4907 6.0523-3.4907 2.2951 0 4.4442 1.2391 6.0524 3.4907 1.5847 2.2168 2.4574 5.1588 2.4574 8.284.0003 3.1242-.8727 6.0671-2.4574 8.2839-1.6081 2.2507-3.7573 3.4908-6.0522 3.4907z"/><path id="_282095008" d="m21.6743 2.3341c-3.4046 0-6.1749 4.2349-6.1749 9.4406.0003 5.2048 2.77 9.4406 6.1747 9.4406 3.4061-.0001 6.1757-4.2358 6.1757-9.4406 0-5.2058-2.77-9.4406-6.1755-9.4406zm0 19.548c-1.8529 0-3.5864-1.0698-4.8794-3.0114-1.2648-1.9008-1.9624-4.4207-1.9624-7.096.0001-2.6763.6973-5.1962 1.9624-7.0961 1.2931-1.9426 3.0262-3.0114 4.8792-3.0114 1.854-.0001 3.5871 1.0689 4.8801 3.0114 1.2655 1.8999 1.9624 4.4198 1.9624 7.0961.0002 2.6753-.6972 5.1952-1.9624 7.096-1.2928 1.9416-3.0262 3.0114-4.8799 3.0114z"/><path id="_282095176" d="m33.9725 41.0637h-24.5956c-.184 0-.3337-.1493-.3337-.3334v-16.0591c0-.1841.1494-.3334.3335-.3334.1843-.0001.3335.1494.3335.3335l.0001 15.7256h23.9289v-15.7257c0-.1841.1491-.3334.3332-.3334.1842-.0001.3335.1494.3335.3335l.0003 16.059c0 .184-.1497.3335-.3337.3334z"/><path id="_282094096" d="m8.8072 23.5493c-.218 0-.3943.1763-.3943.3943.0001.217.1762.3942.3941.3942l25.7352-.0001c.2173 0 .3941-.177.3941-.3941.0002-.218-.1772-.3942-.3942-.3942zm25.735 1.4553h-25.735c-.5853 0-1.0613-.4758-1.0613-1.061 0-.5853.4759-1.0611 1.0611-1.0611h25.7352c.5854 0 1.061.4758 1.061 1.0611.0003.5852-.4758 1.0611-1.061 1.061z"/><path id="_282094120" d="m16.1057 43.3492h-3.2808c-.1605 0-.2987-.1146-.3282-.2726l-.4228-2.2855c-.034-.1816.0858-.3551.2665-.389.1817-.0331.3551.0859.389.2674l.3726 2.0128h2.7259l.3731-2.0128c.0333-.1806.2067-.3004.3881-.2674.1817.0339.3005.2075.2675.389l-.4234 2.2855c-.029.1579-.1671.2726-.3275.2726z"/><path id="_282094624" d="m30.5245 43.3492h-3.2807c-.1607 0-.2988-.1146-.3275-.2726l-.4236-2.2855c-.034-.1816.0858-.3551.2673-.389.1809-.0331.3552.0868.3882.2674l.3734 2.0128h2.7259l.3724-2.0128c.0339-.1806.2074-.3004.3889-.2674.1808.0339.3004.2075.2665.389l-.4226 2.2855c-.0297.1579-.1678.2726-.3282.2726z"/><path id="_282094528" d="m30.8621 33.0342c-.184 0-.3335-.1493-.3335-.3334l.0002-6.3007h-17.7081v6.3006c0 .1842-.1496.3335-.3336.3335-.1838 0-.3335-.1493-.3335-.3334v-6.6342c0-.184.1494-.3334.3335-.3334h18.375c.1841 0 .3334.1494.3334.3335l.0004 6.634c0 .1842-.1497.3335-.3338.3335z"/><path id="_282094336" d="m12.8207 39.0014h17.7081v-5.9672h-17.7081zm18.0414.6669h-18.3748c-.184 0-.3337-.1493-.3337-.3334v-6.6342c0-.184.1494-.3333.3335-.3333l18.375-.0001c.1841 0 .3334.1494.3334.3335l.0004 6.634c0 .1842-.1497.3336-.3338.3335z"/><path id="_282094456" d="m19.3392 35.3709c-.3568 0-.647.2901-.647.6469.0003.3569.2901.6478.6469.6478.3572 0 .6478-.2909.6478-.6478.0002-.3568-.2909-.6469-.6477-.6469zm0 1.9616c-.724 0-1.3138-.5896-1.3138-1.3147.0001-.7241.5896-1.3138 1.3137-1.3138.7253 0 1.3147.5897 1.3147 1.3138.0003.7251-.5895 1.3147-1.3146 1.3147z"/><path id="_282094432" d="m24.0091 35.3709c-.3568 0-.6469.2901-.6469.6469.0002.3569.29.6478.6469.6478.3579 0 .6478-.2909.6478-.6478 0-.3568-.2901-.6469-.6478-.6469zm0 1.9616c-.7241 0-1.3138-.5896-1.3138-1.3147.0001-.7241.5896-1.3138 1.3138-1.3138.7252 0 1.3147.5897 1.3147 1.3138.0001.7251-.5896 1.3147-1.3147 1.3147z"/><path id="_282094552" d="m23.0291 36.3512h-2.7087c-.1841 0-.3335-.1493-.3335-.3334.0002-.1841.1494-.3334.3335-.3334h2.7087c.184 0 .3331.1494.3331.3334.0002.1841-.1494.3335-.3335.3335z"/><path id="_282093904" d="m19.3392 28.736c-.3568 0-.647.2908-.647.6477.0003.3569.2901.647.6469.647.3572-.0001.6478-.2901.6478-.647.0002-.3569-.2909-.6477-.6477-.6477zm0 1.9615c-.724 0-1.3138-.5896-1.3138-1.3138.0001-.725.5896-1.3146 1.3137-1.3146.7253-.0001 1.3147.5896 1.3147 1.3146.0003.7242-.5895 1.3138-1.3146 1.3138z"/><path id="_282094480" d="m24.0091 28.736c-.3568 0-.6469.2908-.6469.6477.0002.3569.29.647.6469.647.3579-.0001.6478-.2901.6478-.647s-.2901-.6477-.6478-.6477zm0 1.9615c-.7241 0-1.3138-.5896-1.3138-1.3138.0001-.725.5896-1.3146 1.3138-1.3146.7252-.0001 1.3147.5896 1.3147 1.3146.0001.7242-.5896 1.3138-1.3147 1.3138z"/><path id="_282093472" d="m23.0291 29.7171h-2.7087c-.1841 0-.3335-.1493-.3335-.3334.0002-.1841.1494-.3334.3335-.3334l2.7087-.0001c.184 0 .3331.1494.3331.3335.0002.1841-.1494.3335-.3335.3335z"/></g></g></svg>