<svg clip-rule="evenodd" fill-rule="evenodd" height="512" image-rendering="optimizeQuality" shape-rendering="geometricPrecision" text-rendering="geometricPrecision" viewBox="0 0 43.3492 43.3492" width="512" xmlns="http://www.w3.org/2000/svg"><g id="Layer_x0020_1"><g id="_282094912"><path id="_282095800" d="m7.6224 42.6823h17.7026v-1.8669c0-1.0298-.8379-1.8669-1.8669-1.8669h-13.968c-1.03 0-1.8679.8371-1.8679 1.8669zm18.0363.6669h-18.3697c-.184 0-.3337-.1493-.3337-.3334l.0001-2.2004c0-1.3971 1.1374-2.5338 2.5346-2.5338l13.9684-.0001c1.3969 0 2.5335 1.1368 2.5335 2.5339l.0001 2.2003c0 .1842-.1495.3335-.3333.3335z"/><path id="_282095584" d="m14.5985 38.9485c-.1153 0-.2276-.0599-.2893-.1667l-9.6941-16.7911c-.0918-.1598-.0373-.363.1225-.4559.1589-.0921.3629-.0373.455.1225l9.6942 16.791c.0922.1597.0373.363-.1216.455-.053.0304-.1103.0452-.1667.0452zm3.7566 0c-.1156 0-.2277-.0599-.2894-.1667l-10.6325-18.4166c-.0922-.1599-.0377-.3639.1213-.4559.1601-.0921.3638-.0374.4558.1224l10.6328 18.4166c.0923.1597.0374.363-.1223.455-.0519.0304-.1095.0452-.1657.0452z"/><path id="_282095728" d="m5.1302 16.4255c-1.399 0-2.5366 1.1384-2.5366 2.5373.0001 1.3988 1.1376 2.5364 2.5365 2.5364s2.5363-1.1375 2.5363-2.5364c.0001-1.399-1.1375-2.5373-2.5362-2.5373zm0 5.7405c-1.7663 0-3.2035-1.437-3.2035-3.2032 0-1.7663 1.4372-3.2042 3.2034-3.2042s3.2033 1.438 3.2033 3.2042c.0001 1.7661-1.4372 3.2033-3.2032 3.2032z"/><path id="_282095992" d="m5.8093 16.507c-.0918 0-.1834-.0372-.2486-.111-.1231-.1373-.1111-.3482.0261-.4707l14.0082-12.5266c.1372-.1226.348-.1103.4705.0269.1235.1372.1111.3482-.026.4706l-14.0079 12.5258c-.0641.0573-.1435.0851-.2223.085zm2.1682 2.4245c-.091 0-.1825-.0373-.2485-.1111-.1222-.1372-.1111-.3482.026-.4706l14.0767-12.5876c.1375-.1224.3482-.1111.4706.0261.1237.1372.1112.3483-.026.4715l-14.0764 12.5866c-.0634.0573-.1427.0851-.2224.0851z"/><path id="_282096064" d="m22.6534.6668c-1.3989 0-2.5375 1.1376-2.5375 2.5365s1.1383 2.5373 2.5372 2.5373c1.3992-.0001 2.5365-1.1384 2.5365-2.5373.0002-1.3989-1.1376-2.5364-2.5362-2.5365zm0 5.7407c-1.7662 0-3.2044-1.4371-3.2044-3.2042.0003-1.7662 1.4379-3.2033 3.2041-3.2033 1.7665 0 3.2033 1.4371 3.2033 3.2033 0 1.7671-1.4371 3.2042-3.203 3.2042z"/><path id="_282096016" d="m29.2216 7.1368-.6534.1745c-1.0155.2727-1.8677.9284-2.3974 1.8462-.5304.9186-.6721 1.9842-.4003 3.0001l1.0249 3.8224 8.2961-2.223-1.0238-3.8224c-.5654-2.1075-2.739-3.3622-4.8464-2.7977zm-2.6626 9.5848c-.0582 0-.1156-.0148-.1668-.0443-.0762-.0443-.132-.1172-.1554-.2023l-1.1103-4.1446c-.3181-1.1888-.1531-2.434.4668-3.5064.6195-1.0724 1.6143-1.8382 2.803-2.1569l.6522-.1746c2.4629-.66 5.0024.8068 5.6624 3.2694l1.1109 4.1445c.0476.178-.0576.3604-.2356.4082l-8.9404 2.3956c-.0286.0078-.0582.0114-.0868.0114z"/><path id="_282096088" d="m24.6635 24.6165c-.1478 0-.2824-.0981-.3223-.2474-.7777-2.9029-.0417-5.9699 1.9703-8.2041.1233-.1363.3334-.1476.4706-.0243.1376.1233.1476.3343.0243.4706-1.7842 1.9832-2.4835 4.6752-1.9008 7.2619l15.7682-4.2253c-.7882-2.5313-2.7396-4.5136-5.2769-5.3377-.1753-.0573-.2709-.2457-.2145-.4202.0576-.1755.2458-.2718.4203-.2145 2.8594.9299 5.0303 3.2172 5.8083 6.12.0228.0851.0113.1763-.033.2527-.0443.0772-.1172.1329-.2032.1555l-16.4253 4.4015c-.0286.0078-.0583.0113-.086.0113z"/><path id="_282095104" d="m26.8146 8.1945c-.0853 0-.1705-.033-.2357-.0981l-2.3945-2.395c-.1305-.1302-.1306-.3412-.0004-.4714.1297-.1303.3413-.1303.4715 0l2.3951 2.3948c.1301.1302.1301.3413-.0002.4716-.0651.065-.1502.0981-.2358.0981z"/><path id="_282094936" d="m29.1345 7.1481c-.0848 0-.1703-.0321-.2354-.0972l-3.6112-3.6115c-.1301-.1302-.1305-.3412-.0002-.4714.1303-.1303.3412-.1303.4715 0l3.6117 3.6114c.1301.1293.13.3412-.0003.4715-.065.0651-.1511.0973-.2361.0972z"/></g></g></svg>