<svg clip-rule="evenodd" fill-rule="evenodd" height="512" image-rendering="optimizeQuality" shape-rendering="geometricPrecision" text-rendering="geometricPrecision" viewBox="0 0 43.3492 43.3492" width="512" xmlns="http://www.w3.org/2000/svg"><g id="Layer_x0020_1"><g id="_282099328"><path id="_282065680" d="m11.8947 29.0374c-.125 0-.244-.0703-.3014-.1902l-10.7056-22.6349c-.2032-.4316-.2267-.916-.0661-1.365.1616-.4489.4872-.8075.9187-1.0116.4308-.2032.9153-.2266 1.3642-.0651.449.1606.8084.4871 1.0116.9178l10.3714 21.935c.0782.1667.0069.3656-.1598.4438-.1658.0789-.3647.0077-.4437-.159l-10.3705-21.935c-.1276-.27-.3525-.4741-.6339-.5757-.2813-.1007-.5844-.0859-.8544.0417-.2709.1276-.475.3525-.5757.6339-.1007.2805-.086.5844.0416.8544l10.7049 22.634c.079.1667.0078.3656-.1589.4446-.046.0217-.0947.0313-.1424.0313z"/><path id="_282066040" d="m38.8235 34.0998c-.1198 0-.2363-.0652-.2953-.1789l-8.6138-16.4654c-.086-.1632-.0227-.3647.1406-.4498.1633-.0859.3647-.0225.4498.1407l8.6139 16.4654c.086.1632.0225.3647-.1407.4498-.0495.026-.1024.0382-.1545.0382zm-2.5954 1.2947c-.1208 0-.2372-.0652-.2962-.1798l-8.2769-15.8818c-.0851-.1633-.0218-.3647.1415-.4498s.3647-.0217.4498.1415l8.2769 15.8819c.0851.1641.0217.3647-.1415.4498-.0494.026-.1025.0382-.1536.0382z"/><path id="_282066112" d="m1.1898 33.5197c-.0469 0-.0946.0061-.1415.0191-.1345.0382-.2458.1259-.3144.2475-.1414.2509-.0521.5705.1989.712 1.0542.594 11.924 4.8948 23.3104 4.4928 7.2012-.2553 13.335-2.2689 18.2316-5.9846.1112-.0851.1832-.2075.2023-.3455.0191-.139-.0174-.2762-.1016-.3873-.0842-.1112-.2066-.1833-.3456-.2024-.138-.0182-.2752.0174-.3864.1016-4.7203 3.5819-10.6536 5.5226-17.6367 5.771-6.0575.2144-11.7451-.8987-15.4494-1.8704-4.069-1.0672-6.9129-2.2611-7.3114-2.4869-.0798-.0444-.1676-.0669-.2562-.0669zm21.5148 6.1651c-5.6745 0-10.9358-1.061-14.4709-1.9962-4.2383-1.1211-7.2097-2.3732-7.6283-2.6093-.5713-.3222-.7745-1.049-.4524-1.6204.1555-.277.4099-.4767.7164-.5618.3057-.0859.6269-.0469.9039.1086.9578.5409 10.4765 4.2974 20.9165 4.2974.4968-.0001.9933-.0087 1.4935-.0261 6.8426-.2423 12.6491-2.1387 17.2564-5.6355.2537-.1919.5662-.2735.8814-.2309.3144.0433.5939.2066.7859.4601.1919.2527.2743.5662.2309.8806-.0433.3151-.2066.5939-.4593.7858-5.0085 3.8007-11.2702 5.8604-18.611 6.12-.5237.0191-1.0455.0278-1.563.0277z"/><path id="_282065608" d="m21.0843 25.2193c-.171 0-.317-.1302-.3318-.3039-.0165-.1832.1199-.3456.3031-.3612l9.411-.8241c.1833-.0165.3447.1199.3612.3031.0157.184-.1198.3456-.303.3612l-9.411.824c-.0096.0009-.02.0009-.0295.0009zm13.9827 1.7011c-.171 0-.316-.1303-.3317-.3039-.0156-.1841.1199-.3456.3031-.3613l5.2769-.4646c1.1046-.0963 1.5543-.646 1.5109-1.1487-.0521-.5939-.7633-1.1679-1.9799-1.062l-6.2128.5435c-.1841.0157-.3448-.1198-.3613-.303-.0156-.1841.1198-.3456.303-.3612l6.213-.5436c1.6481-.1433 2.6224.752 2.7022 1.6681.0704.8067-.5618 1.7358-2.117 1.8713l-5.2768.4645c-.0095.0009-.02.0009-.0296.0009zm-17.9241 1.576c-.171 0-.317-.1311-.3317-.3048-.0165-.1832.1189-.3447.303-.3612l14.8095-1.3034c.1832-.0156.3455.1199.3612.3031.0165.184-.119.3456-.3022.3612l-14.8103 1.3033c-.0095.0009-.02.0018-.0295.0018z"/><path id="_282065584" d="m4.9428 34.9203c-.0956 0-.1893-.0399-.2553-.1181-.119-.1407-.1016-.3508.039-.4697l21.3099-18.031-15.9739 1.9867c-.1832.0235-.35-.1067-.3726-.2891-.0225-.1832.1077-.3499.2901-.3725l17.0862-2.1257c.1468-.0174.2874.0625.3465.1971.059.1355.0225.2935-.0903.3891l-22.1651 18.7542c-.0625.053-.139.0791-.2145.079zm3.2736.996c-.0954 0-.1902-.0408-.2562-.1198-.118-.1415-.0989-.3517.0426-.4698l24.6556-20.4944c.0095-.0087.019-.0156.0294-.0226.5384-.3543.5696-.93.4333-1.3146-.132-.3717-.501-.7815-1.1141-.7425-.0129.0035-.0269.0061-.0408.0078l-23.1905 2.81c-.1824.0217-.3483-.1086-.3709-.2909-.0225-.1833.1077-.3491.2909-.3717l23.1385-2.803c.0192-.0061.0382-.0095.0582-.0112.8301-.0851 1.5769.389 1.8574 1.1783.2796.7867.0069 1.6221-.6791 2.084l-24.6415 20.484c-.0617.0512-.1373.0764-.2128.0764z"/></g></g></svg>