<svg id="Layer_1" height="512" viewBox="0 0 512 512" width="512" xmlns="http://www.w3.org/2000/svg" data-name="Layer 1"><path d="m151.34 76.991a25.124 25.124 0 1 0 25.143 25.124 25.163 25.163 0 0 0 -25.143-25.124zm0 38.248a13.124 13.124 0 1 1 13.143-13.124 13.149 13.149 0 0 1 -13.143 13.124z"/><path d="m79.749 76.991a25.124 25.124 0 1 0 25.144 25.124 25.163 25.163 0 0 0 -25.144-25.124zm0 38.248a13.124 13.124 0 1 1 13.144-13.124 13.149 13.149 0 0 1 -13.144 13.124z"/><path d="m440.121 97.137h-61.421a6 6 0 0 0 0 12h61.424a6 6 0 0 0 0-12z"/><path d="m365.453 244.183a5.978 5.978 0 0 0 4.24-1.756l20.126-20.1a6 6 0 1 0 -8.48-8.489l-20.126 20.1a6 6 0 0 0 4.24 10.245z"/><path d="m366.056 278.084a6 6 0 0 0 8.485 0l50.327-50.275a6 6 0 1 0 -8.48-8.49l-50.328 50.281a6 6 0 0 0 -.004 8.484z"/><path d="m45.928 188.945v217.467a18.828 18.828 0 0 0 18.812 18.8h383.542a18.829 18.829 0 0 0 18.814-18.8v-217.467a18.828 18.828 0 0 0 -18.814-18.8h-383.542a18.827 18.827 0 0 0 -18.812 18.8zm409.172 217.467a6.815 6.815 0 0 1 -6.814 6.8h-383.546a6.814 6.814 0 0 1 -6.812-6.8v-33h397.172zm0-217.467v172.469h-397.172v-172.469a6.813 6.813 0 0 1 6.812-6.8h383.542a6.814 6.814 0 0 1 6.818 6.8z"/><path d="m224.111 216.628h63.778a6 6 0 0 0 0-12h-63.778a6 6 0 0 0 0 12z"/><path d="m81.749 333.1a6 6 0 0 0 6-6v-72.1a6 6 0 0 0 -12 0v72.1a6 6 0 0 0 6 6z"/><path d="m81.749 239.482a6 6 0 0 0 6-6v-12.042a6 6 0 0 0 -12 0v12.042a6 6 0 0 0 6 6z"/><path d="m472.115 53.5h-432.23a29.918 29.918 0 0 0 -29.885 29.885v345.23a29.918 29.918 0 0 0 29.885 29.885h432.23a29.918 29.918 0 0 0 29.885-29.885v-345.23a29.918 29.918 0 0 0 -29.885-29.885zm17.885 85.041h-111.3a6 6 0 0 0 0 12h111.3v278.074a17.885 17.885 0 0 1 -17.885 17.885h-432.23a17.885 17.885 0 0 1 -17.885-17.885v-278.074h306.7a6 6 0 0 0 0-12h-306.7v-55.156a17.885 17.885 0 0 1 17.885-17.885h432.23a17.885 17.885 0 0 1 17.885 17.885z"/></svg>