<svg id="Layer_1" height="512" viewBox="0 0 512 512" width="512" xmlns="http://www.w3.org/2000/svg" data-name="Layer 1"><path d="m136.97 223.746h6.8a6 6 0 0 0 0-12h-6.8a6 6 0 0 0 0 12z"/><path d="m167.568 223.746h97.858a6 6 0 0 0 0-12h-97.858a6 6 0 0 0 0 12z"/><path d="m484.524 238.523h-6.424v-57.123a14.017 14.017 0 0 0 -14-14h-18.941v-19.115a14 14 0 0 0 -14-14h-24.266a14 14 0 0 0 -14 14v15.487a6 6 0 0 0 12 0v-15.487a2 2 0 0 1 2-2h24.266a2 2 0 0 1 2 2v215.43a2 2 0 0 1 -2 2h-24.266a2 2 0 0 1 -2-2v-149.943a6 6 0 0 0 -12 0v22.92h-273.786v-88.407a14.015 14.015 0 0 0 -14-14h-24.266a14.015 14.015 0 0 0 -14 14v19.115h-18.941a14.017 14.017 0 0 0 -14 14v57.124h-6.424a17.477 17.477 0 0 0 0 34.954h6.424v57.122a14.017 14.017 0 0 0 14 14h18.941v19.114a14.015 14.015 0 0 0 14 14h24.266a14.015 14.015 0 0 0 14-14v-88.406h273.786v88.407a14 14 0 0 0 14 14h24.266a14 14 0 0 0 14-14v-19.115h18.941a14.017 14.017 0 0 0 14-14v-57.123h6.424a17.477 17.477 0 0 0 0-34.954zm-450.624 22.954h-6.424a5.477 5.477 0 0 1 0-10.954h6.424zm14 71.124a2 2 0 0 1 -2-2v-149.201a2 2 0 0 1 2-2h18.941v153.2zm57.207 33.114h-24.266a2 2 0 0 1 -2-2v-215.43a2 2 0 0 1 2-2h24.266a2 2 0 0 1 2 2v215.43a2 2 0 0 1 -2 2zm14-102.407v-14.616h94.264v14.616zm106.265 0v-14.616h61.257v14.616zm167.521 0h-94.264v-14.616h94.265zm73.207 67.292a2 2 0 0 1 -2 2h-18.941v-153.2h18.941a2 2 0 0 1 2 2zm22.3-70.728a5.442 5.442 0 0 1 -3.872 1.6h-6.428v-10.949h6.424a5.477 5.477 0 0 1 3.872 9.35z"/></svg>