<svg id="Layer_1" height="512" viewBox="0 0 512 512" width="512" xmlns="http://www.w3.org/2000/svg" data-name="Layer 1"><path d="m207.036 167.182h97.928a18.021 18.021 0 0 0 18-18v-21.952a18.021 18.021 0 0 0 -18-18h-97.928a18.021 18.021 0 0 0 -18 18v21.952a18.021 18.021 0 0 0 18 18zm-6-39.952a6.007 6.007 0 0 1 6-6h97.928a6.007 6.007 0 0 1 6 6v21.952a6.007 6.007 0 0 1 -6 6h-97.928a6.007 6.007 0 0 1 -6-6z"/><path d="m252.211 205.314a13.654 13.654 0 1 0 -13.654 13.655 13.669 13.669 0 0 0 13.654-13.655zm-15.308 0a1.654 1.654 0 1 1 1.654 1.655 1.655 1.655 0 0 1 -1.657-1.655z"/><path d="m203.671 191.661a13.654 13.654 0 1 0 13.654 13.653 13.669 13.669 0 0 0 -13.654-13.653zm0 15.308a1.654 1.654 0 1 1 1.654-1.655 1.656 1.656 0 0 1 -1.654 1.655z"/><path d="m287.1 205.314a13.654 13.654 0 1 0 -13.654 13.655 13.669 13.669 0 0 0 13.654-13.655zm-15.308 0a1.654 1.654 0 1 1 1.654 1.655 1.655 1.655 0 0 1 -1.657-1.655z"/><path d="m308.329 191.661a13.654 13.654 0 1 0 13.654 13.653 13.669 13.669 0 0 0 -13.654-13.653zm0 15.308a1.654 1.654 0 1 1 1.654-1.655 1.656 1.656 0 0 1 -1.654 1.655z"/><path d="m274.325 242.874h-36.65a18.642 18.642 0 1 0 0 37.283h36.65a18.642 18.642 0 1 0 0-37.283zm0 25.283h-36.65a6.642 6.642 0 1 1 0-13.283h36.65a6.642 6.642 0 1 1 0 13.283z"/><path d="m119.212 134.295a6 6 0 0 0 -6 6v69.418a6 6 0 0 0 12 0v-69.418a6 6 0 0 0 -6-6z"/><path d="m125.212 112.651a6 6 0 0 0 -12 0v6.277a6 6 0 0 0 12 0z"/><path d="m376.43 10h-240.824a46.781 46.781 0 0 0 -46.781 46.781v268.579a46.028 46.028 0 0 0 46.028 46.028h2.367a.029.029 0 0 1 .029.029v40.758a6.028 6.028 0 0 0 6.028 6.029h20.752a.028.028 0 0 1 .028.028v24.574a6.028 6.028 0 0 0 6.029 6.028h24.084a.028.028 0 0 1 .028.028v41.11a.028.028 0 0 1 -.028.028h-17.66a6.184 6.184 0 0 0 -6.276 5.841 6 6 0 0 0 6 6.159h47.655a6.184 6.184 0 0 0 6.276-5.841 6 6 0 0 0 -6-6.159h-17.938a.029.029 0 0 1 -.029-.028v-41.11a.029.029 0 0 1 .029-.028h24.085a6.028 6.028 0 0 0 6.028-6.028v-24.574a.028.028 0 0 1 .028-.028h39.264a.028.028 0 0 1 .028.028v24.574a6.028 6.028 0 0 0 6.028 6.028h24.085a.029.029 0 0 1 .029.028v41.11a.029.029 0 0 1 -.029.028h-17.66a6.184 6.184 0 0 0 -6.276 5.841 6 6 0 0 0 6 6.159h47.653a6.184 6.184 0 0 0 6.276-5.841 6 6 0 0 0 -6-6.159h-17.936a.028.028 0 0 1 -.028-.028v-41.11a.028.028 0 0 1 .028-.028h24.084a6.028 6.028 0 0 0 6.029-6.028v-24.574a.028.028 0 0 1 .028-.028h20.752a6.028 6.028 0 0 0 6.028-6.029v-40.758a.029.029 0 0 1 .029-.029h1.65a46.8 46.8 0 0 0 46.748-46.755v-20.861a6 6 0 0 0 -12 0v20.861a34.792 34.792 0 0 1 -34.748 34.755h-241.577a34.028 34.028 0 0 1 -34.028-34.028v-236.36a.029.029 0 0 1 .028-.028h58.576v136.954a96.571 96.571 0 0 0 193.142 0v-136.953h58.579a.029.029 0 0 1 .028.028v164.771a6 6 0 1 0 12 0v-197.02a46.809 46.809 0 0 0 -46.748-46.752zm-152.09 426.806a.029.029 0 0 1 -.028.028h-48.226a.029.029 0 0 1 -.029-.028v-18.574a.028.028 0 0 1 .029-.028h48.226a.028.028 0 0 1 .028.028zm111.6 0a.029.029 0 0 1 -.029.028h-48.223a.029.029 0 0 1 -.028-.028v-18.574a.028.028 0 0 1 .028-.028h48.226a.028.028 0 0 1 .029.028zm-186.691-65.389a.028.028 0 0 1 .028-.029h213.446a.028.028 0 0 1 .028.029v34.758a.028.028 0 0 1 -.028.029h-213.446a.028.028 0 0 1 -.028-.029zm191.322-145.491a84.571 84.571 0 0 1 -169.142 0v-136.953h169.142zm70.607-148.981a.029.029 0 0 1 -.028.028h-310.3a.029.029 0 0 1 -.028-.028v-20.164a34.781 34.781 0 0 1 34.784-34.781h240.823a34.794 34.794 0 0 1 34.749 34.752z"/></svg>