<svg id="Layer_1" height="512" viewBox="0 0 512 512" width="512" xmlns="http://www.w3.org/2000/svg" data-name="Layer 1"><path d="m420.615 193.874a22.438 22.438 0 0 0 -25.152-16.522l-87.354 13.79c-56.141 6.87-129.089 38.458-165.609 93.558a5.987 5.987 0 0 0 5 9.3h223.641a58.525 58.525 0 0 0 56.553-73.637zm-164.808 88.126 2.057-6h68.5l1.713 6zm152.245-18.186a46.2 46.2 0 0 1 -36.911 18.186h-30.652l-3.695-13.783a5.778 5.778 0 0 0 -5.8-4.217h-77.527a5.778 5.778 0 0 0 -5.722 3.937l-4.521 14.063h-84c36.155-46 100.3-72.856 150.442-78.968.07-.009.14-.014.21-.025l87.457-13.8a10.458 10.458 0 0 1 11.687 7.768l7.08 26.489a46.2 46.2 0 0 1 -8.048 40.35z"/><path d="m492.419 98.4-24.331 18.1a29.323 29.323 0 0 0 -36.39-1.1l-20.841 15.5a56.387 56.387 0 0 0 -13.374.439l-125.041 19.1c-.1.015-.2.034-.3.054a332.725 332.725 0 0 0 -116.193 47.967 365.533 365.533 0 0 0 -77.429 68.83c-39.259 46.1-56.039 87.1-56.734 88.822a5.652 5.652 0 0 0 .591 5.423 5.84 5.84 0 0 0 4.974 2.465h461.143a5.3 5.3 0 0 0 5.506-5.643v-14.969a368.2 368.2 0 0 0 -13.566-99.938l-20.025-71.491c-.38-1.35-.759-2.668-1.231-3.968l7.485-5.545a29.362 29.362 0 0 0 8.8-36.488l24.106-17.927a6 6 0 1 0 -7.154-9.628zm-10.419 253.6h-445.335c2.225-4 5.473-11 9.8-18h435.535zm-12.87-105.183a350.858 350.858 0 0 1 12.695 75.183h-428.225a365.26 365.26 0 0 1 34.06-46.817 353.827 353.827 0 0 1 74.879-66.635 320.834 320.834 0 0 1 111.868-46.238l124.893-19.089a44.715 44.715 0 0 1 49.688 32.057zm-9.6-94-5.669 4.217a56.859 56.859 0 0 0 -27.655-22.593l12.653-9.412a17.317 17.317 0 0 1 20.671 27.788z"/><path d="m492 383h-476a6 6 0 0 0 -6 6v20a6 6 0 0 0 6 6h476a6 6 0 0 0 6-6v-20a6 6 0 0 0 -6-6zm-6 20h-464v-8h464z"/></svg>