<svg id="Layer_1" height="512" viewBox="0 0 512 512" width="512" xmlns="http://www.w3.org/2000/svg" data-name="Layer 1"><path d="m492.585 396.722q-.072-.052-.147-.1l-43.575-28.822a8.976 8.976 0 0 1 -3.24-4.468l-65.355-202.32 7.168-54.063a63.118 63.118 0 0 0 -55.847-71.076 63.21 63.21 0 0 0 -67.9 46.505l-13.639 51.173h-24.225l4.732-17.575a64.684 64.684 0 0 0 -56.583-81.176c-30.567-2.837-57.94 16.393-66.569 46.78l-95.823 342.879a15.807 15.807 0 0 0 14.644 20.018q.309.012.616.012a15.79 15.79 0 0 0 15.2-11.45l5.468-19.058h94.5l-2.839 9.837a17.3 17.3 0 0 0 16.639 22.1 17.4 17.4 0 0 0 16.652-12.531l45.2-157.742 49.762 149.972a31.413 31.413 0 0 0 15.339 18.029l60.553 31.666a18.983 18.983 0 0 0 25.523-25.832l101.936-19.071a20.086 20.086 0 0 0 21.808-33.687zm-219.236-311.768a53.214 53.214 0 0 1 104.174 20.674l-4.407 33.244-1.875-5.8c-.012-.037-.024-.075-.037-.112a37.048 37.048 0 0 0 -10.04-15.392l.983-5.756a40.733 40.733 0 0 0 -78.678-21.077c-.025.085-.047.171-.066.257l-9.816 42.562h-13.187zm79.059 24.576c-.034.133-.062.266-.085.4l-.27 1.58a49.906 49.906 0 0 0 -21.647-4.539h-40.427l3.137-13.6a30.732 30.732 0 0 1 59.292 16.16zm-319.973 320.75a5.825 5.825 0 0 1 -11.22-3.136l95.816-342.853c7.287-25.66 30.321-41.92 56.019-39.534a54.685 54.685 0 0 1 47.851 68.62l-5.432 20.174h-7.427l-.215-.609a5.061 5.061 0 0 0 -.21-.507 44.382 44.382 0 0 0 -4.068-6.8l3.18-13.673a41.606 41.606 0 0 0 -6.375-34.975 37.917 37.917 0 0 0 -28.928-15.64 40.5 40.5 0 0 0 -41.562 29.39zm164.593-320.75c-.009.036-.018.073-.026.109l-1.708 7.342a45.218 45.218 0 0 0 -28.259-10.01h-31.427l3.868-13.479a30.57 30.57 0 0 1 31.362-22.167 28.083 28.083 0 0 1 21.438 11.553 31.648 31.648 0 0 1 4.752 26.652zm-133.679 249.27 1.707-5.948h94.6l-1.716 5.948zm91.705 10-5.554 19.234h-94.539l5.519-19.234zm-87.129-25.949 5.519-19.234h94.649l-5.55 19.234zm8.389-29.234 1.707-5.949h94.679l-1.717 5.949zm4.576-15.949 5.519-19.234h94.724l-5.551 19.234zm8.388-29.234 1.707-5.948h94.75l-1.716 5.948zm4.576-15.948 5.52-19.234h94.8l-5.551 19.234zm8.389-29.234 1.707-5.948h94.356l.251.756-1.5 5.192zm4.576-15.948 5.519-19.235h76.268l6.382 19.235zm8.388-29.235 1.707-5.948h66.4l1.973 5.948zm4.577-15.948 5.328-18.57h31.088a24.775 24.775 0 0 1 22.295 14.043l1.5 4.527zm25.116 241.86h-94.515l1.706-5.947h94.526zm17.953 26.648a7.348 7.348 0 0 1 -7.039 5.289 7.3 7.3 0 0 1 -7.033-9.322l55.341-191.76 7.958 23.986zm197.358 31.817a9.008 9.008 0 0 1 -12.26 4l-60.551-31.661a21.46 21.46 0 0 1 -10.481-12.317l-89.028-268.306a5.033 5.033 0 0 0 -.21-.53 34.808 34.808 0 0 0 -31.481-20.081h-28.219l4.758-16.58h34.3a35.229 35.229 0 0 1 31.457 19.567l96.561 273.7a23.627 23.627 0 0 0 10.98 12.895l50.417 27.522a8.938 8.938 0 0 1 3.758 11.791zm-.534-21.425-48.853-26.669a13.644 13.644 0 0 1 -6.342-7.444l-92.912-263.357h108c11.621 0 19.082 4.6 22.176 13.683l63.008 217.328a38.038 38.038 0 0 0 13.671 19.747c.05.038.1.074.152.109l40.524 28zm128.9-21.415a10.158 10.158 0 0 1 -13.768 1.519c-.051-.037-.1-.074-.153-.109l-50.314-34.768a27.978 27.978 0 0 1 -9.984-14.47l-63.04-217.434q-.029-.1-.063-.2c-4.464-13.279-15.717-20.592-31.686-20.592h-35.72l3.824-16.58h42.733c15.855 0 26.982 6.829 31.339 19.231l74.362 230.2a19.049 19.049 0 0 0 7.009 9.578c.048.035.1.068.147.1l43.576 28.823a10.066 10.066 0 0 1 1.738 14.7z"/></svg>