<?xml version="1.0" encoding="UTF-8"?>
<svg xmlns="http://www.w3.org/2000/svg" id="Layer_1" data-name="Layer 1" viewBox="0 0 512 512" width="512" height="512"><path d="M89,322.913a6,6,0,0,0,6-6V241.106a6,6,0,0,0-12,0v75.807A6,6,0,0,0,89,322.913Z"/><path d="M89,226.726a6,6,0,0,0,6-6v-4.834a6,6,0,0,0-12,0v4.834A6,6,0,0,0,89,226.726Z"/><path d="M234.944,411.07A17.842,17.842,0,1,0,253,428.911v0A18.057,18.057,0,0,0,234.944,411.07Zm-.215,23.682a5.841,5.841,0,1,1,5.84-5.838A5.847,5.847,0,0,1,234.729,434.752Z"/><path d="M277.215,411.07A17.841,17.841,0,1,0,295,428.911v0A17.824,17.824,0,0,0,277.215,411.07Zm.056,23.682a5.841,5.841,0,1,1,5.841-5.838A5.847,5.847,0,0,1,277.271,434.752Z"/><path d="M276.99,359H234.01A19.01,19.01,0,0,0,215,378.01v1.98A19.01,19.01,0,0,0,234.01,399h42.98A19.01,19.01,0,0,0,296,379.99v-1.98A19.01,19.01,0,0,0,276.99,359ZM250,387H234.319A7.445,7.445,0,0,1,227,379.809v-1.656A7.412,7.412,0,0,1,234.319,371H250Zm35-7.191A7.445,7.445,0,0,1,277.681,387H262V371h15.681A7.412,7.412,0,0,1,285,378.153Z"/><path d="M479.133,200H457V153h.3a5.677,5.677,0,0,0,5.7-5.913v-2.446A47.493,47.493,0,0,0,415.294,97H394.767c-1.827-25-22.587-45-47.861-45H262V44h16.857A16.223,16.223,0,0,0,295,27.905V26a16.142,16.142,0,0,0-16.143-16H233.143A16.142,16.142,0,0,0,217,26v1.905A16.223,16.223,0,0,0,233.143,44H250v8H165.094c-25.274,0-46.034,20-47.861,45H96.706A47.493,47.493,0,0,0,49,144.641v2.446A5.677,5.677,0,0,0,54.7,153H55v47H32.867A10.02,10.02,0,0,0,23,210.141v68.453C23,284.108,27.353,289,32.867,289H55V419.49C55,446.551,77.231,469,104.292,469H110v18.529A14.512,14.512,0,0,0,124.5,502h263A14.512,14.512,0,0,0,402,487.529V469h5.708C434.769,469,457,446.551,457,419.49V289h22.133c5.514,0,9.867-4.892,9.867-10.406V210.141A10.02,10.02,0,0,0,479.133,200ZM55,277H35V212H55ZM233,32a4,4,0,0,1-4-4V26a4,4,0,0,1,4-4h46a4,4,0,0,1,4,4v2a4,4,0,0,1-4,4ZM165.094,64H346.906a35.9,35.9,0,0,1,35.829,33H129.264A35.9,35.9,0,0,1,165.094,64ZM390,487.529A2.5,2.5,0,0,1,387.5,490h-263a2.5,2.5,0,0,1-2.5-2.471V469H390ZM193,457V345H319V457Zm252-37.51c0,20.445-16.848,37.51-37.292,37.51H331V338.707c0-3.314-3.044-5.707-6.357-5.707H187.357c-3.313,0-6.357,2.393-6.357,5.707V457H104.292C83.848,457,67,439.935,67,419.49V191H445ZM445,179H67V153H445ZM60.873,141a35.822,35.822,0,0,1,35.833-32H415.294a35.822,35.822,0,0,1,35.833,32ZM477,277H457V212h20Z"/></svg>
