<svg height="432pt" viewBox="-12 0 431 432" width="432pt" xmlns="http://www.w3.org/2000/svg"><path d="m67.238281 302.527344h-60.738281c-3.3125 0-6 2.6875-6 6v117.472656c0 3.3125 2.6875 6 6 6h60.738281c3.3125 0 6-2.6875 6-6v-54.472656l131.160157-51.347656c2.300781-.902344 3.8125-3.117188 3.8125-5.585938v-90.007812h27.746093c3.3125 0 6-2.6875 6-6v-35.617188h10.871094c3.316406 0 6-2.6875 6-6v-18.746094h79.484375c2.453125 0 4.660156-1.492187 5.570312-3.769531l8.839844-22.101563h48.578125c3.3125 0 6-2.6875 6-6v-64.113281c0-3.3125-2.6875-6-6-6h-18.128906l19.199219-48.007812c.738281-1.851563.511718-3.945313-.601563-5.59375-1.117187-1.648438-2.980469-2.636719-4.96875-2.636719h-289.070312c-19.457031.0234375-35.222657 15.789062-35.246094 35.246094v87.734375c.023437 19.453125 15.789063 35.222656 35.246094 35.242187h37.871093v18.746094c0 3.3125 2.683594 6 6 6h10.871094v35.617188c0 3.3125 2.6875 6 6 6h27.742188v85.914062l-122.976563 48.144531v-50.117187c0-3.3125-2.6875-6-6-6zm-6 117.472656h-48.738281v-105.472656h48.738281zm334.0625-351.761719v52.113281h-37.777343l20.84375-52.113281zm-287.570312 77.984375c-12.832031-.015625-23.230469-10.414062-23.246094-23.242187v-87.734375c.015625-12.832032 10.414063-23.230469 23.246094-23.246094h280.210937l-53.691406 134.222656zm49.871093 24.746094v-12.746094h89.230469v12.746094zm16.871094 41.617188v-29.617188h55.488282v29.617188zm0 0"/><path d="m114.480469 34.867188c-3.316407 0-6 2.6875-6 6v6.574218c0 3.3125 2.683593 6 6 6 3.3125 0 6-2.6875 6-6v-6.574218c0-3.3125-2.6875-6-6-6zm0 0"/><path d="m147.089844 34.867188c-3.316406 0-6 2.6875-6 6v6.574218c0 3.3125 2.683594 6 6 6 3.3125 0 6-2.6875 6-6v-6.574218c0-3.3125-2.6875-6-6-6zm0 0"/><path d="m179.699219 34.867188c-3.3125 0-6 2.6875-6 6v6.574218c0 3.3125 2.6875 6 6 6 3.316406 0 6-2.6875 6-6v-6.574218c0-3.3125-2.683594-6-6-6zm0 0"/><path d="m212.3125 34.867188c-3.316406 0-6 2.6875-6 6v6.574218c0 3.3125 2.683594 6 6 6 3.3125 0 6-2.6875 6-6v-6.574218c0-3.3125-2.6875-6-6-6zm0 0"/><path d="m244.921875 34.867188c-3.3125 0-6 2.6875-6 6v6.574218c0 3.3125 2.6875 6 6 6s6-2.6875 6-6v-6.574218c0-3.3125-2.6875-6-6-6zm0 0"/><path d="m277.53125 34.867188c-3.3125 0-6 2.6875-6 6v6.574218c0 3.3125 2.6875 6 6 6 3.316406 0 6-2.6875 6-6v-6.574218c0-3.3125-2.683594-6-6-6zm0 0"/><path d="m310.144531 34.867188c-3.316406 0-6 2.6875-6 6v6.574218c0 3.3125 2.683594 6 6 6 3.3125 0 6-2.6875 6-6v-6.574218c0-3.3125-2.6875-6-6-6zm0 0"/><path d="m342.753906 53.441406c3.3125 0 6-2.6875 6-6v-6.574218c0-3.3125-2.6875-6-6-6s-6 2.6875-6 6v6.574218c0 3.3125 2.6875 6 6 6zm0 0"/></svg>