<svg id="Layer_1" height="512" viewBox="0 0 512 512" width="512" xmlns="http://www.w3.org/2000/svg" data-name="Layer 1"><path d="m40.127 147.59v204.69a28.711 28.711 0 0 0 28.678 28.679h272.333a28.711 28.711 0 0 0 28.679-28.679v-204.69a28.711 28.711 0 0 0 -28.679-28.678h-272.333a28.711 28.711 0 0 0 -28.678 28.678zm317.69 204.69a16.7 16.7 0 0 1 -16.679 16.679h-272.333a16.7 16.7 0 0 1 -16.678-16.679v-17.712h305.69zm0-29.712h-305.69v-144.368h305.69zm0-174.978v18.61h-305.69v-18.61a16.7 16.7 0 0 1 16.678-16.678h272.333a16.7 16.7 0 0 1 16.679 16.678z"/><path d="m165.2 256.938a5.981 5.981 0 0 0 4.326-1.842l24.918-25.919a6 6 0 0 0 -8.651-8.316l-24.917 25.918a6 6 0 0 0 4.324 10.159z"/><path d="m173.441 281.111a6 6 0 0 0 8.485-.057l58.274-59.077a6 6 0 0 0 -8.543-8.426l-58.276 59.075a6 6 0 0 0 .06 8.485z"/><path d="m381.023 332.17a19.825 19.825 0 1 0 19.825-19.8 19.835 19.835 0 0 0 -19.825 19.8zm19.825-7.8a7.8 7.8 0 1 1 -7.825 7.8 7.821 7.821 0 0 1 7.825-7.801z"/><path d="m437.435 332.17a19.825 19.825 0 1 0 19.825-19.8 19.835 19.835 0 0 0 -19.825 19.8zm27.65 0a7.825 7.825 0 1 1 -7.825-7.8 7.821 7.821 0 0 1 7.825 7.8z"/><path d="m66.767 215.821h.025a6 6 0 0 0 5.975-6.025l-.049-11.946a6 6 0 0 0 -6-5.975h-.025a6 6 0 0 0 -5.975 6.025l.049 11.946a6 6 0 0 0 6 5.975z"/><path d="m66.828 223.018h-.018a6 6 0 0 0 -5.983 6.018l.192 64.6a6 6 0 0 0 6 5.982h.018a6 6 0 0 0 5.982-6.018l-.192-64.6a6 6 0 0 0 -5.999-5.982z"/><path d="m424.89 190.96a35.523 35.523 0 1 0 -35.574-35.523 35.59 35.59 0 0 0 35.574 35.523zm0-59.046a23.523 23.523 0 1 1 -23.574 23.523 23.576 23.576 0 0 1 23.574-23.523z"/><path d="m424.89 281.184a35.523 35.523 0 1 0 -35.574-35.523 35.59 35.59 0 0 0 35.574 35.523zm0-59.046a23.523 23.523 0 1 1 -23.574 23.523 23.576 23.576 0 0 1 23.574-23.523z"/><path d="m473.2 81h-332.938a6 6 0 0 0 0 12h332.938a16.8 16.8 0 0 1 16.8 16.8v275.836a16.8 16.8 0 0 1 -16.8 16.8h-434.4a16.8 16.8 0 0 1 -16.8-16.8v-275.836a16.8 16.8 0 0 1 16.8-16.8h51.462a6 6 0 0 0 0-12h-51.462a28.8 28.8 0 0 0 -28.8 28.8v275.836a28.845 28.845 0 0 0 22.818 28.17v7.083a10.111 10.111 0 0 0 10.111 10.111h15.471a10.11 10.11 0 0 0 10.11-10.111v-6.454h376.05v6.465a10.1 10.1 0 0 0 10.1 10.1h15.47a10.111 10.111 0 0 0 10.111-10.111v-7.328a28.848 28.848 0 0 0 21.759-27.925v-275.836a28.8 28.8 0 0 0 -28.8-28.8zm-416.695 338h-11.687v-4.565h11.687zm411.736 0h-11.686v-4.565h11.686z"/></svg>