<?xml version="1.0" encoding="UTF-8"?>
<svg xmlns="http://www.w3.org/2000/svg" id="Layer_1" data-name="Layer 1" viewBox="0 0 512 512" width="512" height="512"><path d="M61.949,502h70a6,6,0,0,0,6-6V474.417a6,6,0,0,0-6-6H116.364V424.3H253.441v44.117H237.859a6,6,0,0,0-6,6V496a6,6,0,0,0,6,6h70a6,6,0,0,0,6-6V474.417a6,6,0,0,0-6-6H292.274V357.934a6,6,0,0,0-12,0V468.417H265.441V22h14.833V307.934a6,6,0,1,0,12,0V257.829H394.411V468.417H378.828a6,6,0,0,0-6,6V496a6,6,0,0,0,6,6h71.223a6,6,0,0,0,6-6V474.417a6,6,0,0,0-6-6H434.468V223.772a6,6,0,0,0-6-6H292.274V16a6,6,0,0,0-6-6H259.441a6,6,0,0,0-6,6V66.117H116.364V16a6,6,0,0,0-6-6H83.532a6,6,0,0,0-6,6V468.417H61.949a6,6,0,0,0-6,6V496A6,6,0,0,0,61.949,502Zm382.1-21.583V490H384.828v-9.583ZM422.468,229.772V468.417H406.411V251.829a6,6,0,0,0-6-6H292.274V229.772ZM301.857,480.417V490h-58v-9.583ZM116.364,78.117H253.441v8.315H116.364Zm0,20.315H253.441V174.74H116.364Zm0,88.308H253.441v8.314H116.364Zm0,20.314H253.441v76.309H116.364Zm0,88.309H253.441v8.314H116.364Zm0,20.314H253.441v76.309H116.364Zm0,88.309H253.441V412.3H116.364ZM89.532,22h14.832V468.417H89.532ZM67.949,480.417h58V490h-58Z"/><path d="M310.419,91.621a6,6,0,0,0,6-6V78.982a6,6,0,1,0-12,0v6.639A6,6,0,0,0,310.419,91.621Z"/><path d="M310.419,200.641a6,6,0,0,0,6-6V108.857a6,6,0,1,0-12,0v85.784A6,6,0,0,0,310.419,200.641Z"/></svg>
