<svg id="Layer_1" height="512" viewBox="0 0 512 512" width="512" xmlns="http://www.w3.org/2000/svg" data-name="Layer 1"><path d="m75 185.058 20.04-24.937a6 6 0 1 0 -9.354-7.517l-20.04 24.937a6 6 0 0 0 9.354 7.517z"/><path d="m126.154 149.185a6 6 0 0 0 -8.427 1l-44.34 56.263a6 6 0 1 0 9.424 7.427l44.341-56.263a6 6 0 0 0 -.998-8.427z"/><path d="m40 349h432a6 6 0 0 0 6-6v-219a6 6 0 0 0 -6-6h-432a6 6 0 0 0 -6 6v219a6 6 0 0 0 6 6zm6-219h420v207h-420z"/><path d="m496 94h-480a6 6 0 0 0 -6 6v267a6 6 0 0 0 6 6h79.557l-43.863 33.215a6 6 0 0 0 3.622 10.785h34a6 6 0 0 0 3.622-1.218l56.497-42.782h213.13l56.5 42.783a6.005 6.005 0 0 0 3.619 1.217h34a6 6 0 0 0 3.622-10.785l-43.863-33.215h79.557a6 6 0 0 0 6-6v-267a6 6 0 0 0 -6-6zm-408.7 311h-14.122l42.258-32h14.123zm351.522 0h-14.122l-42.258-32h14.122zm51.178-44h-468v-255h468z"/></svg>