<svg id="Layer_1" height="512" viewBox="0 0 512 512" width="512" xmlns="http://www.w3.org/2000/svg" data-name="Layer 1"><path d="m369.2 371.235h87.5a6 6 0 0 0 0-12h-87.5a6 6 0 0 0 0 12z"/><path d="m322.6 371.235h21.75a6 6 0 0 0 0-12h-21.75a6 6 0 0 0 0 12z"/><path d="m163.227 224.057a6 6 0 0 0 -8.452-.76l-7.768 6.486a58.288 58.288 0 0 0 -72.916-6.445l-6.091-7.262-.407-.484a6 6 0 0 0 -9.191 7.715l6.484 7.725a57.832 57.832 0 0 0 -6.466 72.718l-7.748 6.469a6 6 0 0 0 7.691 9.211l7.778-6.5a58.219 58.219 0 0 0 72.9 6.446l6.509 7.755a6 6 0 1 0 9.191-7.715l-6.485-7.726a57.834 57.834 0 0 0 6.463-72.718l7.747-6.469a6 6 0 0 0 .761-8.446zm-10.767 51.35a45.509 45.509 0 0 1 -11.973 27.033l-2.775-3.307a6 6 0 0 0 -9.191 7.715l2.749 3.275a46.249 46.249 0 0 1 -55.851-4.933l3.285-2.744a6 6 0 1 0 -7.691-9.211l-3.317 2.77a45.8 45.8 0 0 1 4.955-55.717l3.183 3.791.027-.023a6 6 0 0 0 9.139-7.67l.026-.022-.406-.483-2.758-3.281a46.224 46.224 0 0 1 55.858 4.943l-3.286 2.743a6 6 0 1 0 7.691 9.211l3.317-2.77a45.473 45.473 0 0 1 7.018 28.68z"/><path d="m89.145 250.581a27.136 27.136 0 1 0 38.24 3.383 27.226 27.226 0 0 0 -38.24-3.383zm32.509 22.109a14.978 14.978 0 0 1 -5.352 10.245 15.205 15.205 0 0 1 -21.356-1.886 15.083 15.083 0 0 1 1.89-21.257 15.2 15.2 0 0 1 21.358 1.887 14.959 14.959 0 0 1 3.46 11.011z"/><path d="m360.706 308.315-7.071 7.2a6 6 0 1 0 8.559 8.41l7.092-7.216a58.281 58.281 0 0 0 73.2-.731l7.234 7.072a6 6 0 1 0 8.388-8.58l-7.215-7.053a57.831 57.831 0 0 0 -.734-73l7.072-7.2a6 6 0 1 0 -8.559-8.41l-7.091 7.216a58.294 58.294 0 0 0 -73.2.731l-7.235-7.072a6 6 0 1 0 -8.388 8.58l.453.443 6.763 6.611a57.831 57.831 0 0 0 .733 73zm7.908-64.553 3.542 3.463.044-.046a5.966 5.966 0 0 0 8.3-8.489l.045-.045-.45-.44-3.06-2.991a46.208 46.208 0 0 1 56.068-.561l-3 3.052a6 6 0 1 0 8.558 8.41l3.027-3.08a45.8 45.8 0 0 1 .564 55.934l-3.089-3.02a6 6 0 1 0 -8.389 8.58l3.06 2.992a46.256 46.256 0 0 1 -56.068.56l3-3.052a6 6 0 0 0 -8.558-8.41l-3.028 3.081a45.8 45.8 0 0 1 -.563-55.934z"/><path d="m405.429 298.447a27.083 27.083 0 1 0 -19-7.725 27.1 27.1 0 0 0 19 7.725zm-10.829-37.647a15.205 15.205 0 0 1 21.441-.215 15.082 15.082 0 0 1 .214 21.338 15.207 15.207 0 0 1 -21.439.215 15.084 15.084 0 0 1 -.216-21.338z"/><path d="m208.288 232.437-7.661 6.571a6 6 0 0 0 7.813 9.107l7.689-6.595a58.23 58.23 0 0 0 72.981 5.48l6.611 7.667a6 6 0 0 0 9.088-7.836l-6.587-7.639a57.833 57.833 0 0 0 5.491-72.8l7.661-6.572a6 6 0 1 0 -7.813-9.107l-7.681 6.587a58.283 58.283 0 0 0 -72.995-5.478l-6.191-7.179-.414-.48a6 6 0 1 0 -9.088 7.837l6.587 7.639a57.833 57.833 0 0 0 -5.491 72.8zm1.772-36.458a45.513 45.513 0 0 1 11.61-27.189l2.82 3.27.413.479.026-.023a6 6 0 0 0 9.036-7.791l.026-.022-3.213-3.726a46.219 46.219 0 0 1 55.917 4.2l-3.248 2.786a6 6 0 1 0 7.814 9.107l3.279-2.813a45.8 45.8 0 0 1 -4.211 55.778l-2.819-3.269a6 6 0 1 0 -9.088 7.836l2.793 3.239a46.251 46.251 0 0 1 -55.915-4.191l3.248-2.787a6 6 0 1 0 -7.812-9.107l-3.28 2.813a45.467 45.467 0 0 1 -7.396-28.59z"/><path d="m256.021 226.5a27.082 27.082 0 1 0 -20.6-9.409 27.067 27.067 0 0 0 20.6 9.409zm-15.121-28.215a15.1 15.1 0 0 1 15.09-13.964 15.15 15.15 0 0 1 11.5 5.254 15.083 15.083 0 0 1 -1.607 21.28 15.2 15.2 0 0 1 -21.38-1.6 14.961 14.961 0 0 1 -3.603-10.97z"/><path d="m479.18 105.5h-364.637a6 6 0 0 0 0 12h364.636a10.821 10.821 0 0 1 10.821 10.821v211.628h-468v-211.629a10.82 10.82 0 0 1 10.82-10.82h31.723a6 6 0 0 0 0-12h-31.722a22.821 22.821 0 0 0 -22.821 22.821v239.832a22.82 22.82 0 0 0 22.82 22.821h45.251l-.818 2.537a10.113 10.113 0 0 0 -.451 4.5 9.8 9.8 0 0 0 9.71 8.49h36.944a10.062 10.062 0 0 0 5.32-1.435 9.8 9.8 0 0 0 4.135-11.564l-.879-2.527h100.623l-.819 2.54a10.113 10.113 0 0 0 -.45 4.5 9.8 9.8 0 0 0 9.71 8.487h36.937a10.083 10.083 0 0 0 5.321-1.432 9.8 9.8 0 0 0 4.146-11.57l-.879-2.527h100.619l-.821 2.544a10.1 10.1 0 0 0 -.449 4.5 9.8 9.8 0 0 0 9.71 8.484h36.938a10.082 10.082 0 0 0 5.32-1.432 9.8 9.8 0 0 0 4.141-11.567l-.879-2.527h37.979a22.821 22.821 0 0 0 22.821-22.822v-239.833a22.82 22.82 0 0 0 -22.82-22.82zm-389.637 289 1.137-3.526h28.646l1.227 3.526zm154.584 0 1.137-3.526h28.646l1.227 3.526zm154.584 0 1.137-3.526h28.646l1.227 3.526zm91.289-26.347a10.833 10.833 0 0 1 -10.821 10.821h-446.358a10.833 10.833 0 0 1 -10.821-10.821v-16.2h468z"/></svg>