<svg id="Layer_1" height="512" viewBox="0 0 512 512" width="512" xmlns="http://www.w3.org/2000/svg" data-name="Layer 1"><path d="m231.68 422.493a28 28 0 0 0 4.682 55.6 28.038 28.038 0 0 0 27.652-32.745 28 28 0 0 0 -32.333-22.851zm13.973 14.529a15.891 15.891 0 0 1 6.534 10.355 16 16 0 1 1 -18.475-13.057 16.236 16.236 0 0 1 2.744-.235 15.875 15.875 0 0 1 9.197 2.937z"/><path d="m145.748 222.683c-41.292 22-54.139 60.839-58.121 82.035a6 6 0 0 0 4.789 7 6.066 6.066 0 0 0 1.115.1 6 6 0 0 0 5.89-4.893c3.585-19.08 15.1-54.022 51.968-73.661a6 6 0 1 0 -5.641-10.59z"/><path d="m90.677 443.461a31.969 31.969 0 0 0 6.248 17.339 26.927 26.927 0 0 0 22.284 10.96 37.786 37.786 0 0 0 8.274-.96 6 6 0 1 0 -2.631-11.708c-8.158 1.833-14.162.03-18.347-5.517a20.027 20.027 0 0 1 -3.852-10.863l-3.505-55.7a6 6 0 0 0 -11.977.754z"/><path d="m406.434 470h-8.679a44.679 44.679 0 0 0 -74.781-26.623l-37.622-104.792a175.172 175.172 0 0 1 -10.352-59.294v-204.584a65 65 0 0 0 -130 0v52.959a28.026 28.026 0 0 0 -19.387 31.539l5.414 31.513a152.672 152.672 0 0 0 -79.3 145.876l8.8 115.4a53.944 53.944 0 0 0 62.891 49.039l78.63-13.512a51.533 51.533 0 0 0 5.036 4.073 50.456 50.456 0 0 0 29.228 9.333 51.437 51.437 0 0 0 8.716-.747 50.8 50.8 0 0 0 16.917-94.016l-34.329-199.77a41.535 41.535 0 0 0 -42.926-34.455l-3.819-22.229a28.064 28.064 0 0 0 -23.871-23.042v-51.961a53 53 0 0 1 106 0v204.584a187.252 187.252 0 0 0 11.057 63.367l40.155 111.849a48.205 48.205 0 0 0 -5.13 15.493h-.766a10.44 10.44 0 0 0 -10.316 10.179v12c0 5.514 4.8 9.821 10.316 9.821h146.4a5.921 5.921 0 0 0 5.544-3.615 6.074 6.074 0 0 0 -1.3-6.583 73.842 73.842 0 0 0 -52.526-21.802zm-131.744-26.491a38.8 38.8 0 1 1 -38.249-32.257 38.582 38.582 0 0 1 38.249 32.257zm-25.839-42.693a50.848 50.848 0 0 0 -55.654 76.05l-71.81 12.34a41.918 41.918 0 0 1 -48.894-38.124l-6.408-84.024 171.843-29.8zm-12.951-75.386-170.731 29.608-.991-13 169.521-29.4zm-34.062-137.353a29.5 29.5 0 0 1 13.953 20.349l15.876 92.39-168.29 29.184a140.686 140.686 0 0 1 96.08-138.613l17.853-5.972a29.507 29.507 0 0 1 24.528 2.662zm-39.338-46.714a15.928 15.928 0 0 1 6.549 10.379l3.865 22.493-17.26 5.774q-6.873 2.3-13.4 5.193l-4.816-28.029a16.034 16.034 0 0 1 25.057-15.81zm190.919 301.886a32.994 32.994 0 0 1 32.189 26.751h-64.379a32.994 32.994 0 0 1 32.19-26.751zm-43.419 46.751v-8h96.434a64.373 64.373 0 0 1 30.594 8z"/></svg>