<svg id="Layer_1" enable-background="new 0 0 512 512" height="512" viewBox="0 0 512 512" width="512" xmlns="http://www.w3.org/2000/svg"><g fill="rgb(0,0,0)"><path d="m141 380.8c-17.1 0-30.9 13.8-30.9 30.9s13.8 30.9 30.9 30.9 30.9-13.8 30.9-30.9c0-8.2-3.3-16-9-21.8-5.9-5.9-13.7-9.1-21.9-9.1zm-13.4 17.5c5.7-5.7 14.5-7.2 21.8-3.5l-25.3 25.3c-3.7-7.2-2.2-16 3.5-21.8zm26.7 26.8c-5.7 5.7-14.5 7.2-21.8 3.5l25.3-25.3c3.7 7.2 2.3 16-3.5 21.8z"/><path d="m389 158.5c3.3 0 6-2.7 6-6v-45.1c0-3.3-2.7-6-6-6s-6 2.7-6 6v45.1c0 3.4 2.7 6 6 6z"/><path d="m420.1 28h-8c-.5-10.1-8.9-18.1-19-18h-69.1c-10.1-.1-18.5 7.9-19 18h-8c-10.5 0-18.9 8.9-18.9 19.4v9.8c-.1 3.1 2.4 5.7 5.6 5.8h5.2l3.5 82.6c.1 19.4 10.5 37.2 27.4 46.7l-5.3 24.5 11.7 2.5 4.8-22.5c4.9 1.4 10 2.1 15.2 2h24.8c5.1.1 10.2-.6 15.2-2l4.8 22.4 11.7-2.5-5.3-24.5c16.9-9.5 27.3-27.4 27.4-46.8l3.5-82.6h5c3.2.1 5.8-2.4 5.9-5.6v-10.1c-.2-10.2-8.6-19.1-19.1-19.1zm-96.2-6h69.1c3.5.1 6.4 2.6 7 6h-83.2c.7-3.4 3.6-5.9 7.1-6zm88.8 123.4c0 23-18.7 41.7-41.8 41.6h-24.8c-23 .1-41.7-18.5-41.8-41.5l-3.5-82.5h115.4zm14.3-94.4h-137v-3.6c0-3.9 3-7.4 6.9-7.4h123.2c3.9 0 6.9 3.5 6.9 7.4z"/><path d="m389 97.2c3.3 0 6-2.7 6-6v-9.8c0-3.3-2.7-6-6-6s-6 2.7-6 6v9.8c0 3.3 2.7 6 6 6z"/><path d="m458.2 459.8c0-.5 0-1-.1-1.5l-26.2-216.1c-2.1-17.3-16.8-30.2-34.2-30.2h-77.9c-16.1-.2-30.1 10.9-33.6 26.7l-26.3 116.3h-141.3c-14.1 0-26.8 8.6-32 21.8l-31.8 78.9c-.3.8-.5 1.7-.5 2.6l-.3 37.7c-.1 3.2 2.5 5.9 5.7 6h.1 392.4c3.2 0 5.8-2.6 5.8-5.9v-.1zm-360.5-78.8c3.4-8.5 11.7-14.1 20.9-14h146.1c2.8.1 5.2-1.8 5.9-4.5l27.3-121.1c2.3-10.2 11.4-17.5 21.9-17.4h77.9c11.4 0 20.9 8.4 22.3 19.7l11.2 92.2-58.8 75.2c-2 2.7-1.4 6.4 1.2 8.4 2.6 1.9 6.2 1.5 8.2-1l51.5-65.6 12.1 100.1h-132.3l64.4-81.1c2-2.6 1.6-6.3-1-8.3-2.6-2-6.4-1.6-8.4 1l-69.4 88.4h-230zm295.3 109h-327v-25h327zm53 0h-41v-25h41z"/></g></svg>