<svg id="Layer_1" height="512" viewBox="0 0 512 512" width="512" xmlns="http://www.w3.org/2000/svg" data-name="Layer 1"><path d="m375.224 14.92a6 6 0 0 0 -5.9-4.92h-226.646a6 6 0 0 0 -5.9 4.92l-48.567 265.5a5.476 5.476 0 0 0 1.294 4.673 5.782 5.782 0 0 0 4.606 1.907h135.889v146h-37v-12.469a6 6 0 1 0 -12 0v12.469h-13.277c-13.101 0-23.723 11-23.723 24.1v38.9a5.968 5.968 0 0 0 5.963 6h212.074a5.968 5.968 0 0 0 5.963-6v-38.9c0-13.1-10.622-24.1-23.723-24.1h-62.277v-146h135.889a5.638 5.638 0 0 0 5.9-6.706zm-227.544 7.08h177.287l19.015 208h-234.367zm191.32 423h5.277a12.036 12.036 0 0 1 11.723 12.1v32.9h-17zm-12 0v45h-171v-32.9a12.036 12.036 0 0 1 11.723-12.1zm-57-96v84h-28v-84zm-28-12v-50h28v50zm-140.692-62 6.112-33h237.659l3.053 33zm235.709-253h27.3l38.065 208h-46.35zm23.165 253-3.053-33h47.451l6.112 33z"/></svg>