<svg id="Layer_1" height="512" viewBox="0 0 512 512" width="512" xmlns="http://www.w3.org/2000/svg" data-name="Layer 1"><path d="m472 315h-31v-13.867a20.837 20.837 0 0 0 -20.837-21.133h-23.163v-100.527a6 6 0 1 0 -12 0v100.527h-22.2a20.8 20.8 0 0 0 -20.8 21.133v13.867h-302a29.937 29.937 0 0 0 -30 29.886v71.606c0 16.542 13.458 29.508 30 29.508h432c16.542 0 30-12.966 30-29.508v-71.606a29.937 29.937 0 0 0 -30-29.886zm-118-13.867a8.8 8.8 0 0 1 8.8-9.133h57.366a8.828 8.828 0 0 1 8.834 9.133v13.867h-75zm-287 132.867h-27c-9.925 0-18-7.583-18-17.508v-71.606a17.923 17.923 0 0 1 18-17.886h27zm41 0h-29v-107h29zm382-17.508c0 9.925-8.075 17.508-18 17.508h-352v-107h352a17.923 17.923 0 0 1 18 17.886z"/><path d="m340.258 359.767a20.922 20.922 0 1 0 20.922 20.922 20.946 20.946 0 0 0 -20.922-20.922zm0 29.844a8.922 8.922 0 1 1 8.922-8.922 8.932 8.932 0 0 1 -8.922 8.922z"/><path d="m388.683 359.767a20.922 20.922 0 1 0 20.922 20.922 20.946 20.946 0 0 0 -20.922-20.922zm0 29.844a8.922 8.922 0 1 1 8.922-8.922 8.933 8.933 0 0 1 -8.922 8.922z"/><path d="m437.106 359.767a20.922 20.922 0 1 0 20.923 20.922 20.945 20.945 0 0 0 -20.923-20.922zm0 29.844a8.922 8.922 0 1 1 8.923-8.922 8.932 8.932 0 0 1 -8.923 8.922z"/><path d="m153 360.886a6 6 0 0 0 -6 6v27.606a6 6 0 0 0 12 0v-27.606a6 6 0 0 0 -6-6z"/><path d="m179 360.886a6 6 0 0 0 -6 6v27.606a6 6 0 0 0 12 0v-27.606a6 6 0 0 0 -6-6z"/><path d="m205 360.886a6 6 0 0 0 -6 6v27.606a6 6 0 0 0 12 0v-27.606a6 6 0 0 0 -6-6z"/><path d="m231 360.886a6 6 0 0 0 -6 6v27.606a6 6 0 0 0 12 0v-27.606a6 6 0 0 0 -6-6z"/><path d="m299.693 131.52a6 6 0 0 0 7.815-3.307 73.792 73.792 0 0 1 20.86-28.4c34.8-29.77 91.423-29.77 126.224 0a73.8 73.8 0 0 1 20.86 28.4 6 6 0 1 0 11.121-4.508 85.67 85.67 0 0 0 -24.18-33.012c-39.1-33.449-102.724-33.449-141.826 0a85.667 85.667 0 0 0 -24.18 33.012 6 6 0 0 0 3.306 7.815z"/><path d="m429.929 123.42c-21.2-18.136-55.7-18.136-76.9 0a47.049 47.049 0 0 0 -13.271 18.136 6 6 0 1 0 11.121 4.508 35.164 35.164 0 0 1 9.951-13.525c16.9-14.457 44.4-14.457 61.3 0a35.154 35.154 0 0 1 9.95 13.525 6 6 0 1 0 11.121-4.508 47.049 47.049 0 0 0 -13.272-18.136z"/></svg>