<svg id="Capa_1" enable-background="new 0 0 512 512" height="512" viewBox="0 0 512 512" width="512" xmlns="http://www.w3.org/2000/svg"><path d="m110.849 398.009c0-12.322 8.192-14.36 12.513-26.299 1.411-3.899-.606-8.204-4.505-9.615-3.902-1.41-8.204.605-9.616 4.505-3.008 8.314-13.409 13.459-13.409 31.409 0 21.471 14.531 23.55 14.531 38.548 0 15.327-14.531 16.74-14.531 38.553 0 4.147 3.361 7.508 7.508 7.508s7.508-3.362 7.508-7.508c0-15.327 14.531-16.739 14.531-38.553.001-21.475-14.53-23.54-14.53-38.548z"/><path d="m266.728 398.009c0-12.322 8.184-14.338 12.513-26.299 1.412-3.899-.605-8.204-4.504-9.615-3.893-1.409-8.203.604-9.615 4.504-3.013 8.32-13.411 13.451-13.411 31.41 0 21.471 14.531 23.55 14.531 38.548 0 15.327-14.531 16.74-14.531 38.553 0 4.147 3.361 7.508 7.508 7.508s7.508-3.362 7.508-7.508c0-15.327 14.531-16.739 14.531-38.553.002-21.475-14.53-23.54-14.53-38.548z"/><path d="m188.789 398.009c0-12.323 8.183-14.337 12.512-26.299 1.412-3.899-.605-8.204-4.504-9.615-3.893-1.409-8.203.604-9.615 4.504-3.015 8.325-13.41 13.451-13.41 31.41 0 21.471 14.531 23.55 14.531 38.548 0 15.327-14.531 16.74-14.531 38.553 0 4.147 3.361 7.508 7.508 7.508s7.508-3.362 7.508-7.508c0-15.327 14.531-16.739 14.531-38.553.001-21.475-14.53-23.54-14.53-38.548z"/><path d="m344.669 398.009c0-12.323 8.183-14.337 12.512-26.299 1.412-3.899-.605-8.204-4.504-9.615-3.892-1.409-8.203.604-9.615 4.504-3.015 8.325-13.41 13.451-13.41 31.41 0 21.471 14.531 23.55 14.531 38.548 0 15.327-14.531 16.74-14.531 38.553 0 4.147 3.361 7.508 7.508 7.508s7.508-3.362 7.508-7.508c0-15.327 14.531-16.739 14.531-38.553.001-21.475-14.53-23.54-14.53-38.548z"/><path d="m422.609 398.009c0-12.323 8.183-14.337 12.512-26.299 1.412-3.899-.605-8.204-4.504-9.615-3.893-1.409-8.203.604-9.615 4.504-3.015 8.325-13.41 13.451-13.41 31.41 0 21.471 14.53 23.55 14.53 38.548 0 15.327-14.53 16.74-14.53 38.553 0 4.147 3.361 7.508 7.508 7.508s7.508-3.362 7.508-7.508c0-15.327 14.53-16.739 14.53-38.553.001-21.475-14.529-23.54-14.529-38.548z"/><path d="m42.519 115.364-.586 2.67c-.889 4.05 1.675 8.054 5.725 8.942 4.057.888 8.055-1.68 8.943-5.725l1.292-5.887h13.28v13.28l-5.888 1.292c-4.05.889-6.614 4.893-5.724 8.943.889 4.05 4.894 6.612 8.942 5.724l2.67-.586v4.16c0 4.147 3.361 7.508 7.508 7.508s7.508-3.362 7.508-7.508v-4.159l2.669.586c4.04.886 8.052-1.664 8.942-5.724.89-4.05-1.674-8.054-5.724-8.943l-5.887-1.292v-13.28h13.28l1.292 5.888c.889 4.054 4.896 6.611 8.942 5.724 4.05-.889 6.614-4.893 5.724-8.943l-.586-2.669h4.16c4.147 0 7.508-3.362 7.508-7.508 0-4.147-3.361-7.508-7.508-7.508h-4.16l.586-2.669c.89-4.05-1.674-8.054-5.724-8.943-4.047-.886-8.054 1.675-8.942 5.724l-1.292 5.888h-13.28v-13.28l5.887-1.292c4.05-.889 6.614-4.892 5.725-8.943-.889-4.05-4.894-6.61-8.943-5.724l-2.669.586v-4.16c0-4.147-3.361-7.508-7.508-7.508s-7.508 3.362-7.508 7.508v4.16l-2.67-.586c-4.056-.885-8.054 1.675-8.943 5.724-.889 4.05 1.675 8.054 5.725 8.943l5.888 1.292v13.28h-13.28l-1.292-5.887c-.89-4.05-4.885-6.611-8.943-5.725-4.05.889-6.614 4.892-5.725 8.942l.586 2.67h-4.16c-4.147 0-7.508 3.362-7.508 7.508 0 4.147 3.361 7.508 7.508 7.508h4.16z"/><path d="m453.86 166.402c0-15.815-12.866-28.682-28.682-28.682s-28.682 12.867-28.682 28.682 12.866 28.682 28.682 28.682 28.682-12.867 28.682-28.682zm-42.348 0c0-7.535 6.131-13.666 13.666-13.666s13.666 6.131 13.666 13.666-6.131 13.666-13.666 13.666-13.666-6.131-13.666-13.666z"/><path d="m379.941 166.402c0-15.815-12.866-28.682-28.682-28.682s-28.682 12.867-28.682 28.682 12.866 28.682 28.682 28.682 28.682-12.867 28.682-28.682zm-42.348 0c0-7.535 6.131-13.666 13.666-13.666s13.666 6.131 13.666 13.666-6.131 13.666-13.666 13.666c-7.536 0-13.666-6.131-13.666-13.666z"/><path d="m78.681 186.744c43.385 0 78.68-35.296 78.68-78.681s-35.296-78.681-78.68-78.681-78.681 35.296-78.681 78.681 35.297 78.681 78.681 78.681zm0-142.346c35.104 0 63.664 28.56 63.664 63.665s-28.56 63.665-63.664 63.665c-35.105 0-63.665-28.56-63.665-63.665s28.56-63.665 63.665-63.665z"/><path d="m478.128 81.371h-295.443c-4.147 0-7.508 3.362-7.508 7.508s3.361 7.508 7.508 7.508h295.443c10.397 0 18.856 8.459 18.856 18.857v182.581c0 10.397-8.459 18.857-18.856 18.857h-24.268v-65.883c0-14.198-11.551-25.749-25.748-25.749h-323.251c-14.198 0-25.748 11.551-25.748 25.749v65.883h-24.268c-10.398 0-18.857-8.459-18.857-18.857v-97.885c0-4.147-3.361-7.508-7.508-7.508s-7.508 3.362-7.508 7.508v97.885c0 18.677 15.195 33.873 33.873 33.873h423.283c18.677 0 33.872-15.196 33.872-33.873v-182.581c0-18.678-15.195-33.873-33.872-33.873zm-383.999 188.947h344.716v16.112h-344.716zm10.732-30.252h323.251c5.918 0 10.732 4.815 10.732 10.733v4.503h-344.715v-4.503c0-5.918 4.814-10.733 10.732-10.733zm-10.732 61.38h344.716v15.236h-344.716z"/></svg>