<svg height="512" viewBox="0 0 48 48" width="512" xmlns="http://www.w3.org/2000/svg"><g id="Outline"><g id="Outline-2" data-name="Outline"><path d="m41.5 17.5a17.5 17.5 0 1 0 -26.5 14.98v3.571a4.49 4.49 0 0 0 -4 4.449v3a4.505 4.505 0 0 0 4.5 4.5h17a4.505 4.505 0 0 0 4.5-4.5v-3a4.49 4.49 0 0 0 -4-4.449v-3.571a17.489 17.489 0 0 0 8.5-14.98zm-5.5 23v3a3.5 3.5 0 0 1 -3.5 3.5h-17a3.5 3.5 0 0 1 -3.5-3.5v-3a3.5 3.5 0 0 1 3.5-3.5h17a3.5 3.5 0 0 1 3.5 3.5zm-20-4.5v-2.954a17.354 17.354 0 0 0 16 0v2.954zm8-2a16.5 16.5 0 1 1 16.5-16.5 16.519 16.519 0 0 1 -16.5 16.5z"/><path d="m11.5 11.388a.5.5 0 0 0 .678-.2 13.5 13.5 0 0 1 3.422-4.128.5.5 0 1 0 -.629-.777 14.485 14.485 0 0 0 -3.671 4.427.5.5 0 0 0 .2.678z"/><path d="m24.418 30.9a13.177 13.177 0 0 1 -5.253-.894.5.5 0 0 0 -.365.932 14.172 14.172 0 0 0 5.689.959.5.5 0 0 0 .463-.534.491.491 0 0 0 -.534-.463z"/><path d="m37.25 15.443a.5.5 0 0 0 .988-.151 14.22 14.22 0 0 0 -2.007-5.392.5.5 0 1 0 -.848.528 13.236 13.236 0 0 1 1.867 5.015z"/><path d="m24 39a3 3 0 1 0 3 3 3 3 0 0 0 -3-3zm0 5a2 2 0 1 1 2-2 2 2 0 0 1 -2 2z"/><path d="m28.421 14.791a3.513 3.513 0 0 1 2.114-2.4 2.8 2.8 0 0 0 1.559-3.969c-2.744-4.912-6.725-5.072-9.378-3.672a7.827 7.827 0 0 0 -3.29 10.188 3.5 3.5 0 0 1 -3.136-.638 2.8 2.8 0 0 0 -4.217.635c-2.864 4.8-1.042 8.325 1.464 9.927a7.538 7.538 0 0 0 4.047 1.157 7.971 7.971 0 0 0 6.452-3.373 3.471 3.471 0 0 1 1.03 3.036 2.854 2.854 0 0 0 3.02 3.34c5.328-.268 7.382-3.343 7.505-6.259a7.827 7.827 0 0 0 -7.17-7.972zm-5.238-9.16c2.25-1.184 5.644-1.01 8.031 3.264a1.784 1.784 0 0 1 -.977 2.538 4.28 4.28 0 0 0 -2.614 2.641 4.944 4.944 0 0 0 -7.4.19 6.822 6.822 0 0 1 2.96-8.633zm-9.108 18.387c-2.123-1.358-3.646-4.383-1.15-8.562a1.784 1.784 0 0 1 2.687-.422 4.35 4.35 0 0 0 3.653.935 4.926 4.926 0 0 0 -.265 1.531 5.007 5.007 0 0 0 3.981 4.894 6.814 6.814 0 0 1 -8.906 1.624zm9.925-2.518a4 4 0 1 1 4-4 4 4 0 0 1 -4 4zm3.752 6.515a1.787 1.787 0 0 1 -1.71-2.116 4.264 4.264 0 0 0 -.941-3.53 5 5 0 0 0 3.899-4.869 4.945 4.945 0 0 0 -.309-1.672 6.816 6.816 0 0 1 5.9 6.891c-.107 2.527-1.991 5.374-6.839 5.296z"/></g></g></svg>