<svg id="Layer_1" enable-background="new 0 0 134 134" height="512" viewBox="0 0 134 134" width="512" xmlns="http://www.w3.org/2000/svg"><g><g><path d="m112.02 56.97c-.07 0-.14-.01-.2-.03-.4-.11-.63-.53-.52-.93 1.55-5.48 3.64-11.12 6.22-16.78.98-2.15 1.48-4.39 1.48-6.66 0-15.48-23.33-28.07-52-28.07s-52 12.6-52 28.08c0 2.25.5 4.49 1.48 6.66 2.6 5.7 4.69 11.34 6.22 16.77.11.4-.12.81-.52.92s-.81-.12-.93-.52c-1.51-5.35-3.57-10.92-6.14-16.55-1.07-2.37-1.62-4.82-1.62-7.28.01-16.31 24.01-29.58 53.51-29.58s53.5 13.27 53.5 29.58c0 2.48-.54 4.93-1.62 7.28-2.55 5.59-4.61 11.16-6.14 16.56-.09.33-.39.55-.72.55z"/></g><g><path d="m109.27 119h-84.53c-6.15 0-11.15-5-11.15-11.15v-21.34c0-2.89-1.53-5.55-4.1-7.12-4.09-2.51-6.58-7.05-6.49-11.84.13-7.05 5.97-13.01 13.01-13.29 3.72-.16 7.26 1.2 9.95 3.78 2.68 2.58 4.16 6.05 4.16 9.77v29.13h73.75v-29.14c0-3.71 1.48-7.18 4.16-9.76 2.69-2.59 6.22-3.93 9.96-3.79 7.04.27 12.87 6.24 13 13.3.09 4.79-2.4 9.32-6.48 11.83-2.56 1.57-4.09 4.23-4.09 7.12v21.34c0 6.16-5 11.16-11.15 11.16zm-92.71-63.25c-.16 0-.32 0-.49.01-6.26.24-11.45 5.54-11.57 11.81-.08 4.26 2.13 8.3 5.78 10.53 3.01 1.85 4.81 4.99 4.81 8.4v21.34c0 5.32 4.33 9.65 9.65 9.65h84.53c5.32 0 9.65-4.33 9.65-9.65v-21.33c0-3.41 1.8-6.55 4.81-8.4 3.63-2.23 5.84-6.26 5.77-10.52-.11-6.28-5.3-11.58-11.56-11.83-3.32-.12-6.47 1.07-8.87 3.37-2.39 2.3-3.7 5.38-3.7 8.68v29.88c0 .41-.34.75-.75.75h-75.24c-.41 0-.75-.34-.75-.75v-29.89c0-3.3-1.31-6.39-3.7-8.68-2.28-2.18-5.23-3.37-8.37-3.37z"/></g><g><path d="m104.62 92.51c-.41 0-.75-.34-.75-.75 0-5.28-4.3-9.58-9.58-9.58h-54.59c-5.28 0-9.58 4.3-9.58 9.58 0 .41-.34.75-.75.75s-.75-.34-.75-.75c0-6.11 4.97-11.08 11.08-11.08h54.6c6.11 0 11.08 4.97 11.08 11.08-.01.41-.34.75-.76.75z"/></g><g><path d="m87.92 40.9c-3.87 0-7.02-3.16-7.02-7.04 0-3.87 3.15-7.02 7.02-7.02 3.88 0 7.04 3.15 7.04 7.02 0 3.89-3.16 7.04-7.04 7.04zm0-12.55c-3.04 0-5.52 2.48-5.52 5.52 0 3.05 2.48 5.54 5.52 5.54 3.05 0 5.54-2.48 5.54-5.54 0-3.05-2.49-5.52-5.54-5.52z"/></g><g><path d="m66.99 58.22c-3.87 0-7.02-3.16-7.02-7.04 0-3.87 3.15-7.02 7.02-7.02 3.88 0 7.04 3.15 7.04 7.02 0 3.88-3.16 7.04-7.04 7.04zm0-12.56c-3.04 0-5.52 2.48-5.52 5.52 0 3.05 2.48 5.54 5.52 5.54 3.05 0 5.54-2.48 5.54-5.54 0-3.04-2.49-5.52-5.54-5.52z"/></g><g><path d="m46.06 75.54c-3.87 0-7.02-3.16-7.02-7.04 0-3.87 3.15-7.02 7.02-7.02 3.88 0 7.04 3.15 7.04 7.02 0 3.88-3.16 7.04-7.04 7.04zm0-12.56c-3.04 0-5.52 2.48-5.52 5.52 0 3.05 2.48 5.54 5.52 5.54 3.05 0 5.54-2.48 5.54-5.54 0-3.04-2.49-5.52-5.54-5.52z"/></g><g><path d="m46.08 40.9c-3.88 0-7.04-3.16-7.04-7.04 0-3.87 3.16-7.02 7.04-7.02 3.87 0 7.02 3.15 7.02 7.02 0 3.89-3.15 7.04-7.02 7.04zm0-12.55c-3.05 0-5.54 2.48-5.54 5.52 0 3.05 2.48 5.54 5.54 5.54 3.04 0 5.52-2.48 5.52-5.54 0-3.05-2.48-5.52-5.52-5.52z"/></g><g><path d="m87.94 75.54c-3.88 0-7.04-3.16-7.04-7.04 0-3.87 3.16-7.02 7.04-7.02 3.87 0 7.02 3.15 7.02 7.02 0 3.88-3.15 7.04-7.02 7.04zm0-12.56c-3.05 0-5.54 2.48-5.54 5.52 0 3.05 2.48 5.54 5.54 5.54 3.04 0 5.52-2.48 5.52-5.54 0-3.04-2.48-5.52-5.52-5.52z"/></g><g><path d="m34.32 131h-6.29c-.41 0-.75-.34-.75-.75v-12c0-.41.34-.75.75-.75h13.86c.27 0 .52.15.66.39s.12.53-.02.76l-7.57 12c-.14.22-.38.35-.64.35zm-5.54-1.5h5.13l6.62-10.5h-11.75z"/></g><g><path d="m105.97 131h-6.29c-.26 0-.5-.13-.63-.35l-7.57-12c-.15-.23-.15-.52-.02-.76s.38-.39.66-.39h13.86c.41 0 .75.34.75.75v12c-.01.42-.34.75-.76.75zm-5.88-1.5h5.13v-10.5h-11.75z"/></g></g></svg>