<svg id="Capa_1" enable-background="new 0 0 329.731 329.731" height="512" viewBox="0 0 329.731 329.731" width="512" xmlns="http://www.w3.org/2000/svg"><g><g><path d="m316.106 115.694c-3.08-1.484-6.443-2.236-9.998-2.236-13.064 0-23.59 15.406-23.59 28.16v33.37h-99.431c-9.523 0-17.476 6.529-19.811 15.327-2.335-8.798-10.288-15.327-19.811-15.327h-96.298l-.013-33.152c.178-1.062.138-2.592 0-4.788 0-13.005-10.572-23.59-23.564-23.59-.95 0-1.899.053-2.889.158-11.804 1.478-20.701 11.555-20.701 23.432 0 8.448 4.432 16.131 11.66 20.372v60.772c0 10.967 8.923 19.884 19.884 19.884h2.414l-3.812 28.312c-.007.053.013.099.013.158-.007.053-.033.099-.033.152 0 .106.046.198.059.297.02.152.04.303.092.442.046.145.119.264.191.396.073.125.145.244.237.35.099.112.211.204.33.29.112.086.224.171.356.237.138.073.277.106.429.152.099.026.185.086.284.099.106.013.204.02.303.02h7.822c.284 0 .561-.066.818-.165.086-.033.165-.086.244-.132.158-.086.31-.178.442-.303.079-.073.145-.145.211-.224.112-.132.204-.264.284-.422.053-.099.099-.198.132-.303.026-.066.066-.119.086-.191l6.001-24.586h-4.709l-5.309 21.757h-3.41l3.548-26.333h249.583l3.548 26.333h-3.41l-5.309-21.757h-4.709l6.001 24.586c.02.073.059.125.086.191.04.106.079.204.132.303.079.152.171.29.284.422.066.079.132.158.211.224.138.119.284.218.442.303.086.046.158.099.244.132.257.099.534.165.818.165h7.815c.099 0 .198-.007.303-.02.106-.013.185-.073.284-.099.152-.04.297-.079.429-.152.132-.066.237-.152.356-.237.119-.092.231-.178.33-.29.092-.106.165-.224.237-.35.073-.125.145-.251.191-.396.053-.145.066-.29.092-.442.013-.099.059-.191.059-.297 0-.053-.026-.099-.033-.152s.02-.099.013-.158l-3.812-28.312h4.656c11.37 0 20.616-9.253 20.616-20.616v-60.04c7.254-4.227 11.706-11.91 11.706-20.378.014-9.108-5.347-17.496-13.624-21.348zm-149.018 79.871c0-8.824 7.182-15.999 15.999-15.999h99.431v24.276h-115.166c-.099-.699-.264-1.385-.264-2.104zm-23.616-15.999c8.824 0 15.999 7.182 15.999 15.999v6.173c0 .719-.165 1.405-.264 2.104h-112.027l-.013-24.276zm171.249-25.536c-.765.389-1.253 1.174-1.253 2.038v61.392c0 8.85-7.202 16.045-16.045 16.045h-265.88c-8.441 0-15.313-6.872-15.313-15.313v-62.124c0-.857-.481-1.642-1.246-2.038-6.417-3.278-10.407-9.78-10.407-16.982 0-9.576 7.182-17.701 16.652-18.894.791-.086 1.576-.125 2.368-.125 10.473 0 18.993 8.534 18.993 19.02l.026.6c.152 2.453.086 3.218.026 3.456-.04.171-.059.343-.059.521l.026 64.505c0 1.266 1.022 2.288 2.288 2.288h239.915c1.266 0 2.288-1.022 2.288-2.288v-64.505c0-10.618 8.778-23.59 19.02-23.59 2.862 0 5.56.6 8.039 1.794 6.694 3.119 11.02 9.879 11.02 17.219-.005 7.208-4.008 13.717-10.458 16.981z"/><path d="m115.16 131.502c.448.495 1.068.745 1.688.745.554 0 1.101-.198 1.543-.6.93-.851 1.002-2.295.145-3.225-6.067-6.648-9.279-14.337-9.279-22.231 0-5.289 1.392-10.4 4.135-15.188 8.89-15.604 29.928-25.68 53.603-25.68 24.137 0 45.914 10.802 54.197 26.874 2.321 4.504 3.495 9.213 3.495 13.994 0 7.386-2.836 14.634-8.191 20.972-.818.963-.692 2.407.27 3.218.963.811 2.407.692 3.218-.27 6.067-7.169 9.272-15.445 9.272-23.92 0-5.513-1.345-10.921-4.003-16.085-9.042-17.556-32.46-29.354-58.259-29.354-25.291 0-47.892 10.987-57.573 27.982-3.139 5.487-4.735 11.356-4.735 17.457.001 9.055 3.622 17.806 10.474 25.311z"/><path d="m166.989 69.787c-1.266 0-2.288 1.022-2.288 2.288s1.022 2.288 2.288 2.288c17.391 0 33.073 7.749 39.015 19.283.409.785 1.207 1.24 2.031 1.24.35 0 .712-.079 1.042-.257 1.121-.58 1.563-1.959.983-3.08-6.7-13.017-24.012-21.762-43.071-21.762z"/><path d="m23.069 108.915c2.572-14.548 24.269-25.951 50.576-25.951 11.205 0 21.816 2.091 30.62 5.902.396-.805.732-1.616 1.187-2.407.317-.554.679-1.075 1.016-1.616-9.464-4.168-20.846-6.45-32.829-6.45-29.229 0-53.188 13.731-55.212 31.055.574-.106 1.108-.303 1.688-.376 1.074-.105 2.011-.144 2.954-.157z"/><path d="m230.168 89.908c9.173-4.432 20.754-6.944 32.829-6.944 26.927 0 48.967 11.95 50.669 26.986 1.517.429 3.001.943 4.425 1.629.106.053.198.119.303.171-.059-18.4-24.883-33.357-55.404-33.357-12.787 0-25.1 2.697-34.92 7.459.422.719.864 1.424 1.246 2.157.331.626.569 1.266.852 1.899z"/><path d="m307.678 122.935c-1.266 0-2.288 1.022-2.288 2.288s1.022 2.288 2.288 2.288c5.197 0 9.431 4.227 9.431 9.431 0 1.266 1.022 2.288 2.288 2.288s2.288-1.022 2.288-2.288c-.006-7.728-6.291-14.007-14.007-14.007z"/><path d="m284.807 225.433h-14.383c-1.266 0-2.288 1.022-2.288 2.288s1.022 2.288 2.288 2.288h14.383c1.266 0 2.288-1.022 2.288-2.288-.006-1.266-1.029-2.288-2.288-2.288z"/><path d="m259.37 225.433h-71.238c-1.266 0-2.288 1.022-2.288 2.288s1.022 2.288 2.288 2.288h71.238c1.266 0 2.288-1.022 2.288-2.288.001-1.266-1.021-2.288-2.288-2.288z"/></g></g></svg>