<?xml version="1.0" encoding="utf-8"?>
<!-- Generator: Adobe Illustrator 22.1.0, SVG Export Plug-In . SVG Version: 6.00 Build 0)  -->
<svg xmlns="http://www.w3.org/2000/svg" xmlns:xlink="http://www.w3.org/1999/xlink" version="1.1" id="Layer_1" x="0px" y="0px" viewBox="0 0 100 100" style="enable-background:new 0 0 100 100;" xml:space="preserve" width="512" height="512">
<path d="M12.88232,39.37646C11.29297,39.37646,10,40.66943,10,42.25879v2.80811c0,1.58936,1.29297,2.88232,2.88232,2.88232h3.83887  v30.43018h-5.60596c-0.55225,0-1,0.44775-1,1v3.2417c0,4.13232,3.36182,7.49414,7.49365,7.49414h64.89697  c4.13232,0,7.49414-3.36182,7.49414-7.49414v-3.2417c0-0.55225-0.44775-1-1-1h-6.31006V35.65137H89c0.55225,0,1-0.44775,1-1  v-5.37793C90,18.646,81.354,10,70.72656,10H29.38818c-10.62695,0-19.27295,8.646-19.27295,19.27344v5.37793c0,0.55225,0.44775,1,1,1  h5.60596v3.7251H12.88232z M12,45.06689v-2.80811c0-0.48633,0.396-0.88232,0.88232-0.88232h16.26514  c0.48633,0,0.88232,0.396,0.88232,0.88232v2.80811c0,0.48633-0.396,0.88232-0.88232,0.88232H12.88232  C12.396,45.94922,12,45.55322,12,45.06689z M88,82.62109c0,3.0293-2.46484,5.49414-5.49414,5.49414H17.60889  c-3.0293,0-5.49365-2.46484-5.49365-5.49414v-2.2417h34.21777h8.97021H88V82.62109z M36.27051,60.6499v-2.28711h29.09521v2.28711  c0,1.52216-0.1507,3.01514-0.43445,4.45264H36.70496C36.4212,63.66504,36.27051,62.17206,36.27051,60.6499z M36.06238,69.98926  h-2.31189c-1.74023,0-3.15625-1.41162-3.15625-3.14648s1.41602-3.146,3.15625-3.146h0.70673  C34.72095,65.92279,35.26709,68.04199,36.06238,69.98926z M37.20697,67.10254h27.22229  c-1.55719,5.27014-4.95172,9.53955-9.31403,11.27686H46.521C42.15869,76.64209,38.76416,72.37268,37.20697,67.10254z   M80.68994,78.37939H59.20331c4.99719-3.62683,8.16241-10.27551,8.16241-17.72949v-3.28711c0-0.55225-0.44775-1-1-1H35.27051  c-0.55225,0-1,0.44775-1,1v3.28711c0,0.35205,0.01984,0.69867,0.03381,1.04688h-0.55383c-2.84326,0-5.15625,2.30859-5.15625,5.146  c0,2.83789,2.31299,5.14648,5.15625,5.14648h3.25397c1.37695,2.5921,3.22064,4.78772,5.42847,6.39014H18.72119V47.94922h10.42627  c1.58936,0,2.88232-1.29297,2.88232-2.88232v-0.4043h5.09314c0.05603,3.14636,2.6308,5.68945,5.7926,5.68945h14.16895  c3.19678,0,5.79785-2.59863,5.79785-5.79297v-8.90771h17.80762V78.37939z M60.88232,35.65137v8.90771  c0,2.09131-1.70361,3.79297-3.79785,3.79297H42.91553c-2.09424,0-3.79785-1.70166-3.79785-3.79297v-8.90771H60.88232z   M12.11523,29.27344C12.11523,19.74902,19.86377,12,29.38818,12h41.33838C80.25098,12,88,19.74902,88,29.27344v4.37793H12.11523  V29.27344z M18.72119,35.65137h18.39648v7.01123h-5.08789v-0.40381c0-1.58936-1.29297-2.88232-2.88232-2.88232H18.72119V35.65137z"/>
<path d="M57.16748,19.77002c-2.4292,0-4.40576,1.97852-4.40576,4.41064s1.97656,4.41064,4.40576,4.41064  c2.42969,0,4.40625-1.97852,4.40625-4.41064S59.59717,19.77002,57.16748,19.77002z M57.16748,26.59131  c-1.32666,0-2.40576-1.08154-2.40576-2.41064s1.0791-2.41064,2.40576-2.41064s2.40625,1.08154,2.40625,2.41064  S58.49414,26.59131,57.16748,26.59131z"/>
<path d="M41.65381,19.77002c-2.42969,0-4.40625,1.97852-4.40625,4.41064s1.97656,4.41064,4.40625,4.41064  c2.4292,0,4.40576-1.97852,4.40576-4.41064S44.08301,19.77002,41.65381,19.77002z M41.65381,26.59131  c-1.32666,0-2.40625-1.08154-2.40625-2.41064s1.07959-2.41064,2.40625-2.41064s2.40576,1.08154,2.40576,2.41064  S42.98047,26.59131,41.65381,26.59131z"/>
</svg>
