<svg clip-rule="evenodd" fill-rule="evenodd" height="512" stroke-linejoin="round" stroke-miterlimit="2" viewBox="0 0 64 64" width="512" xmlns="http://www.w3.org/2000/svg"><g transform="translate(-192 -192)"><g id="Icon"><path d="m200 227.141v19.859c0 .552.448 1 1 1s1-.448 1-1v-12h14v12c0 .552.448 1 1 1s1-.448 1-1v-20c0-.552-.448-1-1-1h-15.205l-3.819-17.186c-.12-.538-.654-.879-1.193-.759s-.879.654-.759 1.193zm16 .859v5h-14v-5z"/><path d="m246.198 226.031h-15.198c-.552 0-1 .448-1 1v19.969c0 .552.448 1 1 1s1-.448 1-1v-12h14v12c0 .552.448 1 1 1s1-.448 1-1v-19.859s3.976-17.893 3.976-17.893c.12-.539-.22-1.073-.759-1.193s-1.073.221-1.193.759zm-14.198 2h14v4.969h-14z"/><path d="m223 218v29c0 .552.448 1 1 1s1-.448 1-1v-29h16.5c.552 0 1-.448 1-1s-.448-1-1-1h-7.962l.909-2.679c.104-.305.054-.642-.134-.904s-.491-.417-.813-.417h-.449c-.391-3.487-2.801-6.378-6.051-7.499v-1.501c0-.796-.316-1.559-.879-2.121-.562-.563-1.325-.879-2.121-.879-1.657 0-3 1.343-3 3v1.501c-3.25 1.121-5.66 4.012-6.051 7.499h-.449c-.322 0-.625.155-.813.417s-.238.599-.134.904l.909 2.679h-7.962c-.552 0-1 .448-1 1s.448 1 1 1zm8.426-2h-14.852s-.679-2-.679-2h16.21zm-.391-4c-.494-3.393-3.46-6-7.035-6s-6.541 2.607-7.035 6zm-7.035-10c-.552 0-1 .448-1 1v1h2v-1c0-.265-.105-.52-.293-.707-.187-.188-.442-.293-.707-.293z"/></g></g></svg>