<svg id="Layer_1" enable-background="new 0 0 512 512" height="512" viewBox="0 0 512 512" width="512" xmlns="http://www.w3.org/2000/svg"><g><g><g><path d="m83 261.2c-1.7 0-3.4-.9-4.3-2.5-1.3-2.4-.4-5.3 1.9-6.6l231.9-126.8c2.4-1.3 5.3-.4 6.6 1.9 1.3 2.4.4 5.3-1.9 6.6l-231.9 126.8c-.7.4-1.5.6-2.3.6z"/></g><g><path d="m122.7 326.5c-1.4 0-2.8-.6-3.8-1.8-1.7-2.1-1.4-5.2.8-6.9l213.2-171.1c2.1-1.7 5.2-1.4 6.9.8 1.7 2.1 1.4 5.2-.8 6.9l-213.2 171.1c-.9.7-2 1-3.1 1z"/></g><g><path d="m187.4 384c-1.1 0-2.2-.4-3.1-1.1-2.1-1.7-2.4-4.8-.7-6.9l170.2-206.9c1.7-2.1 4.8-2.4 6.9-.7s2.4 4.8.7 6.9l-170.2 206.9c-1 1.2-2.4 1.8-3.8 1.8z"/></g><g><path d="m247.2 430.7c-.8 0-1.7-.2-2.4-.6-2.3-1.3-3.2-4.3-1.8-6.7l132-232c1.3-2.3 4.3-3.2 6.7-1.8 2.3 1.3 3.2 4.3 1.8 6.7l-132 231.9c-.9 1.6-2.6 2.5-4.3 2.5z"/></g></g><g><path d="m287.5 471c-13.8 0-26.7-7.7-33-20.2l-10.3-20.2-15.5-.4c-19.5-.5-36-13.5-41.2-32.3l-4-14.4-23.1-3.3c-17.7-2.6-32-15.4-36.4-32.8l-5.5-22-12-4.4c-17.5-6.4-29.1-23.2-28.9-41.9l.3-19.3-10-3.3c-17.2-5.7-28.3-23-26.4-41.1.8-7.7 5.8-14.2 13-17l238.1-92.4 41.5-41.5c15.3-15.2 35.3-23.5 56.7-23.5s41.4 8.3 56.5 23.4 23.4 35.1 23.4 56.5-8.3 41.4-23.4 56.5l-41.5 41.5-92.7 238.1c-2.6 7.1-9 12.2-16.6 13.2l-4.2.5c-1.6.2-3.2.3-4.8.3zm103.3-420.2c-18.7 0-36.3 7.3-49.5 20.5l-42.3 42.3c-.5.5-1.1.9-1.7 1.1l-239.1 92.8c-3.8 1.5-6.4 4.9-6.9 8.9-1.5 13.5 6.9 26.5 19.8 30.8l13.4 4.5c2 .7 3.4 2.6 3.3 4.7l-.3 22.9c-.2 14.5 8.8 27.6 22.4 32.6l14.4 5.3c1.5.6 2.7 1.8 3.1 3.4l6.1 24.5c3.4 13.5 14.5 23.5 28.3 25.5l26.2 3.8c1.9.3 3.5 1.7 4 3.5l4.8 17.4c4 14.6 16.9 24.7 32 25.1l18.4.5c1.8 0 3.4 1.1 4.2 2.7l11.6 22.8c5.2 10.2 16.4 16.1 27.8 14.7l4.2-.5c4-.5 7.4-3.2 8.8-7l93-239.2c.2-.6.6-1.2 1.1-1.7l42.3-42.3c13.2-13.2 20.5-30.8 20.5-49.5s-7.3-36.3-20.5-49.5c-13.1-13.3-30.7-20.6-49.4-20.6z"/></g><g><path d="m426.6 195.9c-1.3 0-2.5-.5-3.5-1.4l-106-106c-1.9-1.9-1.9-5 0-6.9s5-1.9 6.9 0l106 106c1.9 1.9 1.9 5 0 6.9-.9.9-2.1 1.4-3.4 1.4z"/></g><g><path d="m401.5 221c-1.3 0-2.5-.5-3.5-1.4l-106-106c-1.9-1.9-1.9-5 0-6.9s5-1.9 6.9 0l106 106c1.9 1.9 1.9 5 0 6.9-.9.9-2.2 1.4-3.4 1.4z"/></g><g><g><path d="m331.8 119.7c-1.3 0-2.5-.5-3.5-1.4-1.9-1.9-1.9-5 0-6.9l9.3-9.3c1.9-1.9 5-1.9 6.9 0s1.9 5 0 6.9l-9.3 9.3c-.9.9-2.2 1.4-3.4 1.4z"/></g><g><path d="m353.4 141.4c-1.3 0-2.5-.5-3.5-1.4-1.9-1.9-1.9-5 0-6.9l9.3-9.3c1.9-1.9 5-1.9 6.9 0s1.9 5 0 6.9l-9.3 9.3c-.9.9-2.1 1.4-3.4 1.4z"/></g><g><path d="m375.1 163c-1.3 0-2.5-.5-3.5-1.4-1.9-1.9-1.9-5 0-6.9l9.3-9.3c1.9-1.9 5-1.9 6.9 0s1.9 5 0 6.9l-9.3 9.3c-.9 1-2.1 1.4-3.4 1.4z"/></g><g><path d="m396.8 184.7c-1.3 0-2.5-.5-3.5-1.4-1.9-1.9-1.9-5 0-6.9l9.3-9.3c1.9-1.9 5-1.9 6.9 0s1.9 5 0 6.9l-9.3 9.3c-.9 1-2.1 1.4-3.4 1.4z"/></g></g></g></svg>