<svg id="Icons" height="512" viewBox="0 0 74 74" width="512" xmlns="http://www.w3.org/2000/svg"><path d="m68.48 46.81h-14.83a1 1 0 0 1 0-2h13.83v-29.22a11.6 11.6 0 0 0 -11.59-11.59h-3.89a1 1 0 0 1 0-2h3.89a13.6 13.6 0 0 1 13.59 13.59v30.22a1 1 0 0 1 -1 1z"/><path d="m35.03 4h-2.9a1 1 0 1 1 0-2h2.9a1 1 0 0 1 0 2z"/><path d="m20.35 46.81h-14.83a1 1 0 0 1 -1-1v-30.22a13.6 13.6 0 0 1 13.59-13.59h7.02a1 1 0 0 1 0 2h-7.02a11.6 11.6 0 0 0 -11.59 11.59v29.22h13.83a1 1 0 0 1 0 2z"/><path d="m45 4h-2.97a1 1 0 0 1 0-2h2.97a1 1 0 0 1 0 2z"/><path d="m57.817 38h-41.634a1.591 1.591 0 0 1 -1.59-1.59v-5.116a1.591 1.591 0 0 1 1.59-1.59h41.634a1.591 1.591 0 0 1 1.59 1.59v5.116a1.591 1.591 0 0 1 -1.59 1.59zm-41.224-2h40.814v-4.3h-40.814z"/><path d="m50.84 72h-27.68a1 1 0 0 1 -.993-.889l-3.79-34a1 1 0 0 1 .994-1.111h35.258a1 1 0 0 1 .994 1.111l-3.79 34a1 1 0 0 1 -.993.889zm-26.785-2h25.89l3.567-32h-33.024z"/><path d="m43.92 72h-13.84a1 1 0 0 1 -1-.944l-1.895-34a1 1 0 0 1 1-1.056h17.63a1 1 0 0 1 1 1.056l-1.9 34a1 1 0 0 1 -.995.944zm-12.894-2h11.948l1.784-32h-15.516z"/><path d="m37 72a1 1 0 0 1 -1-1v-34a1 1 0 0 1 2 0v34a1 1 0 0 1 -1 1z"/><path d="m51.821 63.185h-29.642a1 1 0 0 1 0-2h29.642a1 1 0 0 1 0 2z"/><path d="m53.786 45.556h-33.572a1 1 0 0 1 0-2h33.572a1 1 0 0 1 0 2z"/><path d="m52.8 54.371h-31.6a1 1 0 0 1 0-2h31.6a1 1 0 0 1 0 2z"/><path d="m49.042 31.7h-24.871a1 1 0 0 1 -1-1v-13.848a1 1 0 0 1 1-1h24.871a1 1 0 0 1 1 1v13.848a1 1 0 0 1 -1 1zm-23.871-2h22.871v-11.848h-22.871z"/></svg>