<svg id="Capa_1" enable-background="new 0 0 512 512" height="512" viewBox="0 0 512 512" width="512" xmlns="http://www.w3.org/2000/svg"><g><path d="m392.579 355.182c-.581-.07-1.162-.063-1.733.001-19.799.222-39.53 7.851-54.604 22.918 0 0 0 0-.001 0-14.662 14.657-22.792 34.1-22.96 54.809-.025.315-.024.633-.008.952.077 20.843 8.223 40.424 22.969 55.164 15.098 15.091 34.86 22.72 54.69 22.921.286.033.572.053.857.053.25 0 .496-.028.743-.053 19.829-.199 39.603-7.831 54.699-22.921 14.663-14.656 22.793-34.098 22.961-54.808.025-.315.024-.633.009-.951-.077-20.842-8.223-40.424-22.97-55.165-15.087-15.08-34.837-22.709-54.652-22.92zm-5.825 141.581c-14.558-1.136-28.797-7.24-39.908-18.347-10.798-10.794-17.207-24.803-18.37-39.87 16.348-5.31 34.718-1.069 47.045 11.253 12.323 12.298 16.555 30.637 11.233 46.964zm49.871-18.347c-9.636 9.633-21.626 15.497-34.135 17.63 4.575-20.198-1.381-41.905-16.369-56.86-14.984-14.978-36.72-20.936-56.936-16.37 2.182-12.857 8.253-24.702 17.662-34.106h-.001c9.639-9.635 21.635-15.5 34.148-17.631-4.558 20.197 1.393 41.904 16.357 56.862 11.684 11.68 27.471 17.877 43.445 17.877 4.513 0 9.038-.511 13.493-1.517-2.181 12.86-8.253 24.709-17.664 34.115zm-28.669-61.084c-12.302-12.297-16.533-30.637-11.231-46.968 14.556 1.137 28.792 7.241 39.9 18.346 10.799 10.795 17.208 24.803 18.372 39.87-16.347 5.308-34.717 1.071-47.041-11.248z"/><path d="m474.285 37.219c-28.622-28.626-69.503-41.411-115.114-36.007-44.944 5.327-89.2 27.758-124.618 63.16-2.93 2.929-2.931 7.678-.003 10.606 2.929 2.931 7.678 2.93 10.606.003 67.752-67.723 165.778-79.904 218.525-27.154 25.313 25.291 36.577 61.761 31.714 102.692-4.94 41.594-25.862 82.695-58.91 115.73-39.368 39.351-88.956 59.947-133.953 59.944-6.614 0-13.126-.454-19.494-1.35-.084-.012-.169-.024-.254-.036-24.756-3.533-47.292-13.881-64.822-31.403-45.074-45.055-43.361-125.512 4.071-191.308 2.422-3.36 1.662-8.048-1.698-10.47-3.356-2.421-8.047-1.662-10.47 1.698-24.719 34.288-38.803 74.014-39.661 111.858-.181 7.992.242 15.82 1.228 23.435.017.28.047.562.097.845 3.378 19.099-8.873 71.491-45.301 107.906l-2.152 2.151c-4.972-1.306-10.489-.03-14.38 3.858l-70.425 70.396c-3.55-1.859-7.522-2.847-11.652-2.847-.01 0-.02 0-.028 0-6.714.008-13.009 2.618-17.675 7.303l-2.081 2.051c-4.735 4.734-7.344 11.042-7.344 17.762 0 6.721 2.608 13.028 7.344 17.763l47.725 47.707h.001c4.898 4.895 11.332 7.343 17.765 7.343 6.434 0 12.867-2.447 17.765-7.343l2.015-2.014c4.735-4.734 7.344-11.042 7.344-17.761 0-4.123-.986-8.088-2.837-11.631l70.44-70.412c2.816-2.814 4.367-6.565 4.367-10.562 0-1.313-.183-2.594-.508-3.829l2.111-2.121c5.477-5.448 11.459-10.536 17.775-15.122 3.353-2.433 4.098-7.123 1.664-10.474-2.433-3.354-7.125-4.098-10.475-1.664-6.942 5.039-13.517 10.633-19.569 16.651l-.683.686-26.607-26.576.703-.703c23.717-23.709 38.556-54.395 45.512-80.359 6.15 13.632 14.543 25.929 25.013 36.395 10.511 10.507 22.675 18.875 36.114 24.998-9.842 2.672-20.122 6.416-30.13 11.089-3.753 1.753-5.374 6.216-3.622 9.97 1.273 2.727 3.978 4.328 6.801 4.328 1.063 0 2.143-.228 3.169-.706 24.438-11.413 46.98-15.252 59.277-14.213 7.556 1.16 15.347 1.752 23.333 1.752 6.602-.001 13.341-.402 20.179-1.213 44.936-5.326 89.189-27.758 124.607-63.16 35.42-35.406 57.865-79.646 63.202-124.57 5.42-45.597-7.368-86.464-36.001-115.072zm-391.782 453.67-2.014 2.013c-3.949 3.947-10.374 3.947-14.323 0h.001l-47.726-47.706c-1.901-1.9-2.948-4.441-2.948-7.153s1.047-5.253 2.91-7.115l2.092-2.061c1.885-1.892 4.411-2.936 7.113-2.938h.012c2.574 0 4.987.953 6.854 2.675.09.101.175.204.272.301.187.187.382.361.583.525l46.543 46.524c.186.237.382.468.6.686.145.145.297.277.45.407 1.63 1.842 2.531 4.191 2.531 6.693-.002 2.708-1.048 5.249-2.95 7.149zm5.315-30.202-37.134-37.118 41.859-41.886 37.156 37.14zm69.014-70.22c.177.228.367.45.574.661l-17.098 17.092-37.161-37.146 17.073-17.084z"/><path d="m240.736 270.679c15.673 15.667 37.184 23.857 61.881 23.857 6.537 0 13.301-.574 20.234-1.735 32.197-5.392 64.475-22.902 90.889-49.305.001-.001.002-.002.002-.003v-.001c26.41-26.4 43.923-58.665 49.314-90.853 5.546-33.117-2.31-62.268-22.12-82.086-.001 0-.002-.001-.002-.002-19.822-19.813-48.988-27.668-82.12-22.122-32.198 5.392-64.485 22.901-90.914 49.305-.001.001-.002.002-.002.003s0 .001-.001.001c-26.412 26.402-43.923 58.667-49.309 90.854-5.542 33.119 2.323 62.271 22.148 82.087zm31.699 3.285c-7.892-3.214-15.023-7.823-21.096-13.894-5.996-5.993-10.643-13.101-13.895-21.092.684-.349 1.328-.805 1.9-1.378l31.551-31.533 34.462 34.448-31.529 31.516c-.581.582-1.042 1.237-1.393 1.933zm80.316-80.823-36.785 36.77-34.461-34.447 36.784-36.763zm-23.853-45.043 36.798-36.777 34.45 34.444-36.787 36.772zm-40.277 130.355 27.344-27.333 22.475 22.466c-17.337 5.639-34.464 7.361-49.819 4.867zm65.079-10.822-27.126-27.115 36.786-36.771 34.356 34.335c-13.777 12.689-28.801 22.6-44.016 29.551zm54.626-40.155-34.357-34.336 36.784-36.769 27.132 27.128c-7.058 15.489-17.068 30.435-29.559 43.977zm39.938-77.314c-1.009 6.027-2.503 12.063-4.44 18.063l-22.462-22.458 27.326-27.315c1.573 9.791 1.46 20.455-.424 31.71zm-39.034-82.881c7.892 3.213 15.029 7.81 21.099 13.878 5.991 5.992 10.634 13.099 13.883 21.089-.689.349-1.337.807-1.914 1.383l-31.544 31.531-34.449-34.443 31.537-31.519c.578-.578 1.038-1.228 1.388-1.919zm-30.404-5.623c4.871 0 9.623.378 14.218 1.124l-27.346 27.33-22.475-22.472c12.151-3.95 24.197-5.982 35.603-5.982zm-50.864 11.935 27.127 27.123-36.8 36.779-34.364-34.343c13.786-12.69 28.816-22.609 44.037-29.559zm-54.647 40.162 34.364 34.343-36.783 36.762-27.123-27.113c7.059-15.491 17.049-30.447 29.542-43.992zm-39.933 77.313c1.008-6.022 2.519-12.052 4.453-18.047l22.451 22.442-27.324 27.308c-1.574-9.789-1.463-20.45.42-31.703z"/></g></svg>