<svg id="Capa_1" enable-background="new 0 0 512 512" height="512" viewBox="0 0 512 512" width="512" xmlns="http://www.w3.org/2000/svg"><path d="m204.409 319.549c1.923.002 3.852-.708 5.303-2.159 2.929-2.929 2.929-7.677 0-10.606l-9.749-9.749c-2.929-2.929-7.678-2.929-10.606 0-2.929 2.929-2.929 7.678 0 10.606 0 0 9.747 9.747 9.749 9.749 1.427 1.428 3.361 2.157 5.303 2.159z"/><path d="m312.136 211.821c1.923.003 3.853-.707 5.303-2.157 2.929-2.929 2.929-7.678 0-10.607l-9.749-9.749c-2.929-2.929-7.678-2.929-10.606 0-2.929 2.929-2.929 7.678 0 10.607 0 0 9.743 9.743 9.749 9.748 1.425 1.426 3.36 2.155 5.303 2.158z"/><path d="m244.802 263.357c-4.147-.276-7.708 2.848-7.986 6.98-.278 4.133 2.847 7.708 6.98 7.986 9.263.621 18.444-3.054 24.982-9.592 6.712-6.712 10.208-15.817 9.592-24.982-.277-4.133-3.856-7.26-7.985-6.98-4.133.277-7.258 3.853-6.98 7.986.325 4.846-1.582 9.719-5.233 13.37-3.651 3.65-8.522 5.559-13.37 5.232z"/><path d="m404.212 56.32c-10.813-5.818-22.42-10.021-34.5-12.493-4.055-.83-8.021 1.786-8.851 5.845-.83 4.058 1.787 8.021 5.845 8.851 10.646 2.178 20.874 5.881 30.399 11.006 3.517 1.892 8.195.597 10.158-3.051 1.963-3.647.597-8.195-3.051-10.158z"/><path d="m152.576 201.553 24.491-24.491c2.929-2.929 2.929-7.678 0-10.606-2.929-2.93-7.678-2.93-10.606 0l-24.491 24.491c-2.929 2.929-2.929 7.678 0 10.606 2.838 2.838 7.688 2.919 10.606 0z"/><path d="m300.161 64.589c.929.014 1.866-.144 2.76-.498 10.058-3.983 20.649-6.481 31.48-7.423 4.127-.359 7.181-3.995 6.822-8.122-.359-4.126-3.982-7.183-8.122-6.821-12.28 1.068-24.292 3.901-35.703 8.42-3.851 1.525-5.736 5.883-4.212 9.734 1.13 2.855 4.012 4.664 6.975 4.71z"/><path d="m201.559 152.57 24.491-24.491c2.929-2.929 2.929-7.677 0-10.606s-7.678-2.929-10.606 0l-24.491 24.491c-2.929 2.929-2.929 7.677 0 10.606 2.837 2.838 7.689 2.917 10.606 0z"/><path d="m250.542 103.588c7.934-7.934 15.579-16.35 24.389-23.335 3.247-2.572 3.793-7.29 1.221-10.536-2.572-3.247-7.289-3.793-10.536-1.221-9.255 7.334-17.338 16.144-25.68 24.486-2.929 2.929-2.929 7.678 0 10.606 2.826 2.826 7.702 2.904 10.606 0z"/><path d="m103.593 250.536 24.491-24.492c2.929-2.929 2.929-7.678 0-10.606-2.929-2.929-7.678-2.929-10.606 0l-24.492 24.492c-2.929 2.929-2.929 7.678 0 10.606 2.889 2.888 7.723 2.884 10.607 0z"/><path d="m359.464 310.31-24.492 24.492c-2.929 2.929-2.929 7.678 0 10.606 2.826 2.826 7.682 2.925 10.607 0l24.492-24.491c2.929-2.929 2.929-7.678 0-10.606-2.929-2.93-7.678-2.93-10.607-.001z"/><path d="m310.481 359.293-24.492 24.492c-2.929 2.929-2.929 7.677 0 10.606 2.826 2.826 7.675 2.932 10.607 0l24.492-24.492c2.929-2.929 2.929-7.677 0-10.606s-7.678-2.929-10.607 0z"/><path d="m261.498 408.276c-7.929 7.929-15.575 16.372-24.388 23.342-3.245 2.574-3.79 7.291-1.216 10.537 2.476 3.123 7.308 3.775 10.537 1.216 9.137-7.241 17.347-16.163 25.673-24.489 2.929-2.929 2.929-7.677 0-10.606-2.928-2.93-7.677-2.93-10.606 0z"/><path d="m408.447 261.327-24.492 24.492c-2.929 2.929-2.929 7.677 0 10.606 2.821 2.821 7.68 2.927 10.607 0l24.492-24.492c2.929-2.929 2.929-7.677 0-10.606s-7.679-2.929-10.607 0z"/><path d="m470.237 178.736c1.054-12.221.332-24.594-2.137-36.609-.834-4.058-4.801-6.671-8.856-5.837-4.058.834-6.67 4.799-5.836 8.856 2.178 10.597 2.813 21.523 1.885 32.301-.366 4.257 3.223 8.145 7.48 8.145 3.851.001 7.127-2.948 7.464-6.856z"/><path d="m209.127 447.793c-10.056 3.988-20.646 6.491-31.476 7.438-4.126.36-7.179 3.998-6.818 8.125.353 4.033 4.091 7.172 8.125 6.818 12.28-1.074 24.291-3.913 35.7-8.438 3.85-1.527 5.734-5.886 4.207-9.736-1.528-3.851-5.886-5.735-9.738-4.207z"/><path d="m457.628 204.715c-3.853-1.521-8.208.368-9.731 4.22-3.979 10.075-9.408 19.497-16.134 28.003-2.569 3.249-2.018 7.966 1.231 10.535 3.216 2.541 7.994 1.981 10.535-1.232 7.636-9.658 13.799-20.356 18.318-31.796 1.523-3.851-.366-8.208-4.219-9.73z"/><path d="m433.644 78.228c-2.929-2.929-7.678-2.929-10.606 0-2.929 2.929-2.929 7.678 0 10.606.013.013.033.033.054.054 7.682 7.684 14.17 16.388 19.283 25.869 1.93 3.579 6.589 4.967 10.161 3.041 3.646-1.966 5.007-6.515 3.041-10.161-5.808-10.77-13.173-20.651-21.928-29.405"/><path d="m54.389 307.135c3.804 1.505 8.229-.413 9.733-4.216 3.985-10.074 9.417-19.493 16.147-27.995 2.571-3.248 2.021-7.965-1.226-10.536-3.248-2.571-7.965-2.021-10.536 1.226-7.641 9.654-13.809 20.349-18.333 31.788-1.524 3.851.363 8.209 4.215 9.733z"/><path d="m41.768 333.108c-1.057 12.221-.344 24.593 2.12 36.61.818 3.991 4.872 6.656 8.854 5.842 4.058-.832 6.673-4.796 5.841-8.854-2.173-10.6-2.803-21.525-1.87-32.305.357-4.126-2.699-7.762-6.826-8.119-4.126-.355-7.762 2.699-8.119 6.826z"/><path d="m114.942 442.398c-3.65-1.961-8.196-.592-10.157 3.056s-.593 8.196 3.056 10.157c10.815 5.813 22.425 10.011 34.506 12.476 4.003.818 8.031-1.844 8.848-5.849.828-4.058-1.791-8.02-5.849-8.848-10.648-2.173-20.877-5.871-30.404-10.992z"/><path d="m78.361 433.68.035.035c3.056 2.585 7.493 3.034 10.567-.04 2.929-2.929 2.889-7.718-.04-10.646-7.701-7.701-14.201-16.425-19.321-25.929-1.964-3.647-6.515-5.011-10.16-3.047-3.647 1.965-5.011 6.513-3.046 10.16 5.812 10.791 13.187 20.689 21.965 29.467z"/><path d="m167.833 511.952c44.83 0 86.977-17.458 118.676-49.158l176.333-176.333c31.7-31.699 49.158-73.846 49.158-118.676s-17.458-86.977-49.158-118.676c-25.358-25.358-57.449-41.663-92.802-47.15-4.096-.635-7.926 2.167-8.562 6.261-.636 4.093 2.167 7.926 6.261 8.562 32.186 4.996 61.404 19.843 84.497 42.935 28.866 28.865 44.764 67.245 44.764 108.068s-15.898 79.204-44.764 108.07l-176.333 176.333c-28.867 28.867-67.247 44.764-108.07 44.764s-79.203-15.898-108.07-44.765c-28.866-28.866-44.763-67.246-44.763-108.069s15.897-79.203 44.764-108.07l176.332-176.333c27.533-27.533 64.126-43.397 103.039-44.671 4.14-.136 7.386-3.602 7.251-7.741-.135-4.14-3.634-7.389-7.741-7.251-42.733 1.398-82.919 18.82-113.155 49.057l-176.333 176.333c-31.699 31.699-49.157 73.846-49.157 118.676s17.458 86.977 49.158 118.676c31.699 31.7 73.845 49.158 118.675 49.158z"/><path d="m344.166 82.462c-22.824 0-44.26 8.866-60.359 24.965 0 0-176.291 176.291-176.333 176.333-32.857 32.857-32.819 87.899 0 120.718 8.347 8.346 18.143 14.758 29.114 19.058 3.858 1.511 8.208-.389 9.72-4.247 1.511-3.856-.39-8.208-4.246-9.719-9.037-3.541-17.105-8.823-23.981-15.699-27.09-27.087-27.06-72.445 0-99.505 0 0 176.221-176.221 176.332-176.332 27.079-27.079 72.454-27.05 99.504-.001 27.096 27.095 27.065 72.441 0 99.505l-176.331 176.332c-13.071 13.071-30.491 20.37-49.051 20.553-4.142.041-7.466 3.432-7.425 7.573.041 4.117 3.39 7.427 7.498 7.426h.076c22.511-.222 43.645-9.082 59.509-24.946l176.333-176.333c33.282-33.282 33.282-87.436 0-120.718-16.1-16.098-37.536-24.963-60.36-24.963z"/></svg>