<svg height="512" viewBox="0 0 64 64" width="512" xmlns="http://www.w3.org/2000/svg"><g id="Layer_29" data-name="Layer 29"><path d="m49.833 43.757-10.833-2.549v-2.1a14.013 14.013 0 0 0 6.846-10.141 4.475 4.475 0 0 0 .154-8.916v-1.933l.447-.223a.99.99 0 0 0 .54-.895h.013v-4.586l3.121-3.121a2.978 2.978 0 0 0 .879-2.121v-.645a3.006 3.006 0 0 0 -2.21-2.894l-8.49-2.316a8.973 8.973 0 0 0 -2.371-.317h-11.858a8.973 8.973 0 0 0 -2.368.317l-8.493 2.316a3.006 3.006 0 0 0 -2.21 2.894v.645a2.978 2.978 0 0 0 .879 2.121l3.121 3.121v4.586h.013a.99.99 0 0 0 .54.895l.447.223v1.933a4.475 4.475 0 0 0 .154 8.914 14.013 14.013 0 0 0 6.846 10.141v2.1l-10.833 2.551a7.968 7.968 0 0 0 -6.167 7.787v10.456a1 1 0 0 0 1 1h46a1 1 0 0 0 1-1v-10.456a7.968 7.968 0 0 0 -6.167-7.787zm-24.146-.657 4.7 4.7-2.872 1.724-2.362-6.3zm5.213 10.9h2.2l.778 7h-3.761zm2.384-2h-2.563l-.574-1.722 1.853-1.112 1.853 1.112zm.334-4.2 4.7-4.7.534.126-2.362 6.3zm14.382-23.3a2.5 2.5 0 0 1 -2 2.449v-4.9a2.5 2.5 0 0 1 2 2.451zm-33-17.328v-.645a1 1 0 0 1 .737-.965l8.493-2.315a6.976 6.976 0 0 1 1.841-.247h11.858a6.989 6.989 0 0 1 1.842.247l8.492 2.315a1 1 0 0 1 .737.965v.645a1.009 1.009 0 0 1 -.293.707l-2.935 2.935-6.378-2.733-.788 1.838 6.394 2.74v3.341h-26v-3.341l6.394-2.74-.788-1.838-6.378 2.733-2.935-2.935a1.009 1.009 0 0 1 -.293-.707zm26.764 10.828-6.422 3.211a7.6 7.6 0 0 1 -6.684 0l-6.422-3.211zm-25.764 6.5a2.5 2.5 0 0 1 2-2.449v4.9a2.5 2.5 0 0 1 -2-2.451zm4 2.5v-7.882l7.764 3.882a9.472 9.472 0 0 0 8.472 0l7.764-3.882v7.882a12 12 0 0 1 -24 0zm12 14a13.894 13.894 0 0 0 5-.939v1.525l-5 5-5-5v-1.525a13.894 13.894 0 0 0 5 .939zm-22 10.544a5.977 5.977 0 0 1 4.625-5.84l8.565-2.015 2.873 7.663a1 1 0 0 0 .607.592 1.017 1.017 0 0 0 .33.056 1 1 0 0 0 .515-.143l.875-.525.592 1.777-.877 7.891h-10.105v-7h-2v7h-6zm44 9.456h-6v-7h-2v7h-10.1l-.877-7.891.592-1.777.875.525a1 1 0 0 0 .51.143 1.017 1.017 0 0 0 .33-.056 1 1 0 0 0 .607-.592l2.873-7.663 8.565 2.011a5.977 5.977 0 0 1 4.625 5.844z"/><path d="m36 33h-2a2 2 0 0 1 -4 0h-2a4 4 0 0 0 8 0z"/><path d="m24 24h2v2h-2z"/><path d="m38 24h2v2h-2z"/><path d="m38 54h6v2h-6z"/><path d="m20 54h6v2h-6z"/><path d="m28.445 11.832 3 2a1 1 0 0 0 1.11 0l3-2a1 1 0 0 0 .445-.832v-4a1 1 0 0 0 -1-1h-6a1 1 0 0 0 -1 1v4a1 1 0 0 0 .445.832zm1.555-3.832h4v2.465l-2 1.335-2-1.333z"/></g></svg>