<svg id="Line" height="512" viewBox="0 0 64 64" width="512" xmlns="http://www.w3.org/2000/svg"><path d="m10.97174 25.09418c-.06433 7.86444 1.3678 18.55554 8.56635 24.858a6.35671 6.35671 0 0 0 3.17191 1.47018 51.03946 51.03946 0 0 0 8.15137.65772 51.01186 51.01186 0 0 0 8.15137-.6582c3.3018-.54954 5.39362-3.63094 7.10934-6.18234 5.04-1.29881 12.46921-6.52586 12.5596-11.27274.13943-4.14179-4.87488-4.80671-8.06247-4.5151.103-1.518.1437-2.98707.12979-4.37107-.022-3.68671-8.89624-4.97809-12.71576-5.36237a1.00028 1.00028 0 0 0 -.19916 1.99025c7.71479.77538 10.91694 2.58739 10.91694 3.38524 0 1.26318-6.31446 3.72217-17.88965 3.72217s-17.88965-2.459-17.88965-3.72217c0-.83105 3.3457-2.69043 11.40527-3.43164a1 1 0 0 0 -.18365-1.9912c-3.97884.36927-13.1927 1.61477-13.2216 5.42327zm45.13666 7.34382c2.53093 3.25816-4.28087 8.43723-8.59491 10.22859a35.96215 35.96215 0 0 0 2.92993-11.19624c2.65167-.22035 4.74371.12651 5.66498.96765zm-25.24707-1.62208c6.99158 0 14.36786-.9552 17.8454-2.99927-.27723 7.03839-1.98554 15.5047-7.83954 20.62964a4.34773 4.34773 0 0 1 -2.17481 1.00146 49.05111 49.05111 0 0 1 -15.66211.00049 4.36443 4.36443 0 0 1 -2.18652-1.01172c-5.84467-5.11645-7.55175-13.58209-7.82875-20.62052 3.47707 2.04447 10.85408 2.99992 17.84633 2.99992z"/><path d="m31.69922 60c16.10281.19483 33.51469-6.618 23.40163-15.39808a1.0003 1.0003 0 0 0 -1.20726 1.59489c7.82574 6.195-7.24111 11.85593-22.19419 11.80324-16.10888.06191-32.33461-6.569-20.0414-13.1255a1.0003 1.0003 0 0 0 -.9061-1.78321c-3.55463 1.80466-5.43452 4.04-5.43452 6.46384 0 5.85693 11.58789 10.44482 26.38184 10.44482z"/><path d="m27.88574 23.29346a1.0006 1.0006 0 0 0 1.60746 1.19135c1.123-1.51508 2.54-5.01606-.1348-7.42085-1.98926-1.79.03711-4.70849.14258-4.85644a1.00044 1.00044 0 0 0 -1.62308-1.16938c-1.11618 1.54926-2.52438 5.11323.14261 7.51264 1.98926 1.78858-.04883 4.62549-.13477 4.74268z"/><path d="m34.50977 16.6709a1.0003 1.0003 0 0 0 1.60745 1.19037c1.122-1.51459 2.539-5.01557-.1348-7.42133-1.99512-1.79394.04883-4.72314.14358-4.85644a1.00056 1.00056 0 0 0 -1.62406-1.1684c-1.11715 1.54926-2.52438 5.11322.14261 7.51166 1.98826 1.78955-.04885 4.62646-.13478 4.74414z"/></svg>