<?xml version="1.0" encoding="UTF-8"?>
<svg xmlns="http://www.w3.org/2000/svg" viewBox="0 0 64 64" width="512" height="512"><g id="parking-parking_lot-motorcycle-Vehicle-Automobile" data-name="parking-parking lot-motorcycle-Vehicle-Automobile"><path d="M17,7A10,10,0,1,0,27,17,10.016,10.016,0,0,0,17,7Zm0,18a8,8,0,1,1,8-8A8.011,8.011,0,0,1,17,25Z"/><path d="M58.78,40.22a10.928,10.928,0,0,0-6.9-3.18l-.42-3.17-1.98.26.5,3.82L48.1,46.12A4.975,4.975,0,0,1,43.23,50H38v2h5.23a6.894,6.894,0,0,0,1.88-.28A8.958,8.958,0,0,0,45,53a8,8,0,0,0,16,0,8.1,8.1,0,0,0-1.08-4H61a1,1,0,0,0,1-1A10.922,10.922,0,0,0,58.78,40.22ZM53,59a6,6,0,0,1-6-6,5.879,5.879,0,0,1,.55-2.49A6.989,6.989,0,0,0,48.96,49h8.5A5.99,5.99,0,0,1,53,59ZM49.91,47c.04-.14.1-.28.14-.43l1.74-7.53A9.021,9.021,0,0,1,59.95,47Z"/><path d="M53,56a3,3,0,1,0-3-3A3,3,0,0,0,53,56Zm0-4a1,1,0,1,1-1,1A1,1,0,0,1,53,52Z"/><path d="M57,15H56a3.979,3.979,0,0,0-2.05.58A2,2,0,0,0,52,14H44a4,4,0,0,0-3.86,3H36.5a2.5,2.5,0,0,0,0,5h4.05A3.959,3.959,0,0,0,44,24V43a3.009,3.009,0,0,1-3,3H35a1,1,0,0,1-1-1V34a1,1,0,0,0,1-1V31a3.009,3.009,0,0,0-3-3H27.16a15,15,0,1,0-19.28.88A3.011,3.011,0,0,0,7,31a3,3,0,0,0,3,3h.1a13.3,13.3,0,0,0-3.14,2.75A2.952,2.952,0,0,0,5,36a3,3,0,0,0-.62,5.93A12.971,12.971,0,0,0,4,45v6a1,1,0,0,0,1,1H9.07A8.258,8.258,0,0,0,9,53a8,8,0,0,0,16,0,8.258,8.258,0,0,0-.07-1H36V50H30V43a3.009,3.009,0,0,0-3-3H19v2h8a1,1,0,0,1,1,1v3H10.1A5.017,5.017,0,0,1,15,42h2V40H15a7.008,7.008,0,0,0-7,7v3H6V45A11.007,11.007,0,0,1,17,34H32V45a3.009,3.009,0,0,0,3,3h6a5,5,0,0,0,5-5V24h2.12l1.09,8.13,1.98-.26L50.14,24H52a2,2,0,0,0,1.95-1.58A3.979,3.979,0,0,0,56,23h1a1,1,0,0,0,1-1V16A1,1,0,0,0,57,15ZM17,59a6,6,0,0,1-6-6,6.638,6.638,0,0,1,.09-1h3.09a3,3,0,1,0,5.64,0h3.09A6.638,6.638,0,0,1,23,53,6,6,0,0,1,17,59Zm-1-6a1,1,0,1,1,1,1A1,1,0,0,1,16,53Zm-6-5H28v2H10ZM5.01,39.99A1.03,1.03,0,0,1,4,39a1,1,0,0,1,1.81-.58A12.182,12.182,0,0,0,5.01,39.99ZM4,17A13,13,0,1,1,17,30,13.012,13.012,0,0,1,4,17ZM23,32H10a.949.949,0,0,1-.71-.31A.928.928,0,0,1,9,31a1.013,1.013,0,0,1,.65-.94A14.9,14.9,0,0,0,23,30.74Zm10,0H25V30h7a1,1,0,0,1,1,1Zm3.5-12a.5.5,0,0,1,0-1h9a.5.5,0,0,1,0,1ZM52,22H45.5a2.5,2.5,0,0,0,0-5H42.28A2,2,0,0,1,44,16h8Zm4-1a2,2,0,0,1,0-4Z"/><path d="M18,12H15a1,1,0,0,0-1,1v9h2V18h2a3,3,0,0,0,0-6Zm0,4H16V14h2a1,1,0,0,1,0,2Z"/></g></svg>
