<?xml version="1.0" encoding="iso-8859-1"?>
<!-- Generator: Adobe Illustrator 19.0.0, SVG Export Plug-In . SVG Version: 6.00 Build 0)  -->
<svg version="1.1" id="Capa_1" xmlns="http://www.w3.org/2000/svg" xmlns:xlink="http://www.w3.org/1999/xlink" x="0px" y="0px"
	 viewBox="0 0 512 512" style="enable-background:new 0 0 512 512;" xml:space="preserve">
<g>
	<g>
		<path d="M329.65,174.901c-0.13-0.64-0.32-1.27-0.57-1.87c-0.25-0.609-0.56-1.189-0.92-1.729c-0.37-0.55-0.79-1.06-1.25-1.521
			c-0.46-0.46-0.97-0.88-1.52-1.25c-0.54-0.359-1.12-0.659-1.72-0.909c-0.61-0.25-1.24-0.45-1.87-0.58c-1.29-0.25-2.62-0.25-3.91,0
			c-0.64,0.13-1.27,0.33-1.87,0.58c-0.61,0.25-1.19,0.55-1.73,0.909c-0.55,0.37-1.06,0.79-1.52,1.25
			c-0.46,0.461-0.88,0.971-1.24,1.521c-0.36,0.54-0.67,1.12-0.92,1.729c-0.25,0.601-0.44,1.23-0.57,1.87
			c-0.13,0.641-0.2,1.301-0.2,1.95c0,0.65,0.07,1.311,0.2,1.95c0.13,0.638,0.32,1.268,0.57,1.869c0.25,0.609,0.56,1.189,0.92,1.729
			c0.36,0.551,0.78,1.061,1.24,1.521c1.86,1.859,4.44,2.93,7.07,2.93c0.65,0,1.31-0.06,1.96-0.189c0.63-0.131,1.26-0.33,1.87-0.58
			c0.6-0.25,1.18-0.561,1.72-0.92c0.55-0.36,1.06-0.78,1.52-1.24c0.46-0.46,0.88-0.97,1.25-1.521c0.36-0.54,0.67-1.12,0.92-1.729
			c0.25-0.601,0.44-1.23,0.57-1.87c0.13-0.64,0.19-1.3,0.19-1.95C329.84,176.202,329.78,175.541,329.65,174.901z"/>
	</g>
</g>
<g>
	<g>
		<path d="M493.569,350.146c11.954-30.037,18.019-61.769,18.019-94.417c0-58.185-20.07-115.133-56.52-160.362
			c-11.498-14.24-24.548-27.29-38.795-38.794C371.003,20.092,314.055,0,255.917,0C187.628,0,123.424,26.605,75.13,74.915
			C26.841,123.22,0.248,187.435,0.248,255.729c0,58.186,20.07,115.134,56.52,160.362c11.498,14.24,24.548,27.29,38.795,38.794
			c45.222,36.443,102.17,56.514,160.355,56.514c32.378,0,63.868-5.968,93.694-17.731C366.304,505.22,386.542,512,408.337,512
			c57.023,0,103.415-46.365,103.415-103.355C511.752,386.948,505.031,366.795,493.569,350.146z M255.917,491.399
			c-53.635,0-106.126-18.498-147.798-52.08c-13.14-10.61-25.182-22.652-35.786-35.784c-33.588-41.679-52.086-94.17-52.086-147.806
			C20.248,125.748,125.969,20,255.917,20c53.587,0,106.079,18.52,147.798,52.14c13.14,10.61,25.182,22.652,35.786,35.784
			c33.588,41.68,52.086,94.172,52.086,147.806c0,26.52-4.332,52.38-12.895,77.085c-17.038-15.88-38.817-25.469-62.261-27.27
			c-0.069-0.005-0.138-0.012-0.207-0.017c-0.732-0.055-1.465-0.1-2.2-0.14c-0.156-0.009-0.312-0.02-0.468-0.027
			c-0.677-0.033-1.357-0.057-2.036-0.078c-0.197-0.006-0.393-0.016-0.59-0.021c-0.863-0.021-1.727-0.033-2.593-0.033
			c-50.421,0-92.522,36.273-101.597,84.093l-40.823-23.428v-55.232l86.045-93.033l62.874-67.979
			c2.698-2.917,3.413-7.155,1.821-10.796c-1.592-3.642-5.189-5.994-9.163-5.994H356.06l31.647-31.647
			c3.905-3.905,3.905-10.237,0-14.143c-3.905-3.904-10.237-3.904-14.142,0l-45.79,45.79H104.34c-3.974,0-7.57,2.353-9.163,5.994
			c-1.592,3.641-0.877,7.879,1.821,10.796l62.874,67.979l86.045,93.033v55.232l-81.79,46.938c-3.93,2.255-5.852,6.87-4.685,11.248
			c1.167,4.379,5.132,7.425,9.663,7.425H307.45c3.961,17.651,12.483,33.891,24.857,47.239
			C307.81,487.148,282.182,491.399,255.917,491.399z M282.702,166.85H140.149l-12.939-13.99h257.414l-44.376,47.979H171.586
			l-12.94-13.99h124.055c5.523,0,10-4.478,10-10C292.701,171.327,288.225,166.85,282.702,166.85z M321.751,220.84l-65.833,71.18
			l-65.833-71.18H321.751z M304.958,411.359c0,0.01,0.001,0.021,0.001,0.031c0.001,0.039,0.002,0.078,0.003,0.116h-98.341
			l49.296-28.291L304.958,411.359z M408.337,492c-43.07,0-78.617-32.79-82.965-74.698c-0.023-0.224-0.037-0.448-0.059-0.672
			c-0.099-1.034-0.178-2.074-0.238-3.119c-0.022-0.376-0.041-0.751-0.058-1.126c-0.055-1.241-0.095-2.486-0.095-3.74
			c0-45.995,37.42-83.415,83.415-83.415c1.345,0,2.681,0.039,4.011,0.102c0.139,0.007,0.278,0.01,0.416,0.018
			c1.327,0.07,2.646,0.17,3.957,0.302c0.082,0.008,0.164,0.016,0.247,0.024c41.955,4.333,74.785,39.888,74.785,82.969
			C491.752,454.606,454.333,492,408.337,492z"/>
	</g>
</g>
<g>
	<g>
		<path d="M422.479,408.645l29.368-29.368c3.906-3.906,3.906-10.238,0.001-14.143c-3.905-3.903-10.237-3.904-14.142,0
			l-29.369,29.368l-29.369-29.368c-3.905-3.904-10.237-3.904-14.143,0c-3.905,3.905-3.905,10.237,0,14.143l29.369,29.368
			l-29.369,29.368c-3.905,3.905-3.905,10.237,0,14.143c1.953,1.952,4.512,2.929,7.071,2.929c2.559,0,5.119-0.977,7.071-2.929
			l29.369-29.368l29.369,29.368c1.953,1.952,4.512,2.929,7.071,2.929s5.119-0.977,7.071-2.929c3.905-3.905,3.905-10.237,0-14.143
			L422.479,408.645z"/>
	</g>
</g>
<g>
</g>
<g>
</g>
<g>
</g>
<g>
</g>
<g>
</g>
<g>
</g>
<g>
</g>
<g>
</g>
<g>
</g>
<g>
</g>
<g>
</g>
<g>
</g>
<g>
</g>
<g>
</g>
<g>
</g>
</svg>
