<svg enable-background="new 0 0 520 520" height="512" viewBox="0 0 520 520" width="512" xmlns="http://www.w3.org/2000/svg"><g id="Layer_47_x2C__no_x2C__pets_x2C__water_x2C__park"><g><g><path d="m260 500c-64.106 0-124.375-24.964-169.706-70.294-45.33-45.33-70.294-105.6-70.294-169.706s24.964-124.375 70.294-169.706c45.331-45.33 105.6-70.294 169.706-70.294s124.376 24.964 169.706 70.294c45.33 45.331 70.294 105.6 70.294 169.706s-24.964 124.376-70.294 169.706-105.6 70.294-169.706 70.294zm0-459.897c-56.344 0-112.669 21.439-155.564 64.333-85.777 85.778-85.777 225.35 0 311.127 85.779 85.777 225.35 85.776 311.127 0 85.778-85.777 85.778-225.349 0-311.127-42.883-42.883-99.232-64.333-155.563-64.333z"/></g><g><path d="m97.365 432.635c-2.559 0-5.119-.977-7.071-2.929-3.905-3.905-3.905-10.237 0-14.143l325.27-325.27c3.906-3.905 10.236-3.905 14.143 0 3.905 3.905 3.905 10.237 0 14.143l-325.27 325.27c-1.953 1.952-4.513 2.929-7.072 2.929z"/></g><g><g><path d="m347.639 397.999c-10.025 0-19.848-3.624-27.596-10.43-14.194-12.468-37.201-20.213-60.043-20.213-22.841 0-45.848 7.745-60.043 20.213-10.487 9.21-24.776 12.591-38.219 9.052-13.102-3.453-23.573-13.127-28.008-25.879-2.787-8.014-4.2-16.316-4.2-24.68 0-53.259 58.529-96.588 130.471-96.588 71.941 0 130.471 43.329 130.471 96.588 0 8.365-1.413 16.669-4.201 24.681-4.435 12.751-14.905 22.425-28.007 25.878-3.512.925-7.082 1.378-10.625 1.378zm-87.639-50.643c27.906 0 55.286 9.415 73.241 25.186 5.478 4.812 12.926 6.584 19.925 4.739 6.755-1.78 11.936-6.559 14.214-13.109 2.051-5.895 3.091-11.986 3.091-18.109 0-19.723-11.189-38.577-31.508-53.09-21.215-15.152-49.258-23.498-78.963-23.498s-57.748 8.346-78.963 23.498c-20.318 14.513-31.508 33.367-31.508 53.09 0 6.121 1.04 12.214 3.09 18.109 2.278 6.551 7.459 11.329 14.214 13.109 6.998 1.845 14.447.072 19.925-4.739 17.956-15.771 45.336-25.186 73.242-25.186z"/></g><g><path d="m218.543 232.631c-6.038 0-12.112-1.555-17.766-4.619-12.18-6.6-21.403-19.444-25.969-36.167-8.609-31.533 1.331-61.598 22.628-68.447 8.067-2.593 16.71-1.59 24.995 2.899 13.255 7.182 24.254 22.774 29.424 41.709 8.358 30.612-.735 55.91-22.628 62.95-3.482 1.12-7.077 1.675-10.684 1.675zm-12.162-90.629c-.977 0-1.917.145-2.82.436-9.333 3.001-15.361 22.516-9.458 44.139 3.069 11.241 8.975 19.934 16.203 23.851 4.246 2.301 8.673 2.815 12.8 1.488 11.001-3.538 14.802-19.066 9.457-38.642-3.704-13.567-11.236-24.83-19.658-29.393-2.309-1.251-4.493-1.879-6.524-1.879z"/></g><g><path d="m301.457 232.631c-3.608 0-7.201-.555-10.686-1.675-21.893-7.04-30.986-32.337-22.628-62.95 5.169-18.935 16.169-34.527 29.424-41.709 8.285-4.491 16.93-5.492 24.995-2.899 21.298 6.849 31.237 36.914 22.628 68.447-4.565 16.723-13.787 29.567-25.968 36.167-5.653 3.063-11.728 4.619-17.765 4.619zm-14.02-59.358c-5.344 19.576-1.543 35.104 9.458 38.642 4.126 1.327 8.553.814 12.8-1.488 7.229-3.917 13.134-12.61 16.203-23.851 5.903-21.624-.124-41.138-9.458-44.139-2.779-.896-5.925-.41-9.344 1.443-8.422 4.564-15.955 15.827-19.659 29.393z"/></g><g><path d="m145.057 269.983c-5.859 0-11.871-1.806-17.371-5.329-7.798-4.994-14.058-13.004-17.626-22.554-7.875-21.072-.634-42.59 16.483-48.987s36.695 5.099 44.569 26.172c3.569 9.549 4.096 19.701 1.484 28.586-2.872 9.772-9.421 17.208-17.968 20.401-3.064 1.146-6.294 1.711-9.571 1.711zm-8.96-58.574c-.905 0-1.764.145-2.552.439-5.577 2.084-8.9 12.146-4.75 23.251 2.034 5.442 5.562 10.076 9.679 12.713 1.895 1.213 5.604 3.053 9.155 1.726s5.146-5.147 5.781-7.307c1.378-4.69 1.003-10.502-1.031-15.944-3.564-9.536-10.782-14.878-16.282-14.878z"/></g><g><path d="m374.942 269.983c-3.277 0-6.507-.565-9.572-1.711-8.546-3.193-15.096-10.629-17.968-20.401-2.611-8.884-2.084-19.036 1.484-28.586 7.876-21.073 27.461-32.567 44.569-26.171 8.547 3.194 15.096 10.63 17.968 20.401 2.611 8.885 2.085 19.037-1.484 28.586-3.568 9.549-9.828 17.558-17.625 22.553-5.501 3.523-11.512 5.329-17.372 5.329zm-7.321-43.696c-2.033 5.442-2.409 11.254-1.03 15.944.635 2.16 2.229 5.98 5.78 7.307 3.553 1.327 7.261-.511 9.155-1.725 4.117-2.637 7.645-7.271 9.679-12.713s2.409-11.253 1.03-15.944c-.634-2.159-2.229-5.98-5.78-7.307-5.576-2.084-14.684 3.331-18.834 14.438z"/></g></g></g></g></svg>