<?xml version="1.0" encoding="UTF-8"?>
<!-- Generator: Adobe Illustrator 24.3.0, SVG Export Plug-In . SVG Version: 6.00 Build 0)  -->
<svg xmlns="http://www.w3.org/2000/svg" xmlns:xlink="http://www.w3.org/1999/xlink" version="1.1" id="Capa_1" x="0px" y="0px" viewBox="0 0 448 448" style="enable-background:new 0 0 448 448;" xml:space="preserve" width="512" height="512">
<g>
	<g id="No_Smoking">
		<path d="M224,0C100.288,0,0,100.288,0,224s100.288,224,224,224s224-100.288,224-224C447.861,100.346,347.654,0.139,224,0z M16,224    c-0.03-52.474,19.852-103.005,55.632-141.389L181.02,192H112c-4.418,0-8,3.582-8,8s3.582,8,8,8h16v32H56v-32h8    c4.418,0,8-3.582,8-8s-3.582-8-8-8h-8c-8.833,0.009-15.991,7.167-16,16v32c0.009,8.833,7.167,15.991,16,16h189.02l120.368,120.368    c-84.07,78.167-215.59,73.381-293.757-10.689C35.841,327.185,15.963,276.561,16,224z M392,208v32h-16v-32H392z M360,240H250.98    l-32-32H360V240z M229.02,240H144v-32h53.02L229.02,240z M376.368,365.389L266.98,256H392c8.833-0.009,15.991-7.167,16-16v-32    c-0.009-8.833-7.167-15.991-16-16H202.98L82.611,71.631c84.071-78.167,215.59-73.38,293.757,10.691    C450.543,162.1,450.543,285.611,376.368,365.389z"/>
		<path d="M363.141,183.023c-69.828-53.404-96.94-4.632-137.668-22.355c-10.555-4.598-30.117-18.828-42.5-62.484    c-1.168-4.261,1.338-8.662,5.599-9.83c4.208-1.154,8.564,1.277,9.792,5.463c10.984,38.715,27.086,49.387,33.5,52.18    c31.227,13.601,66.648-32.542,140.996,24.316c3.487,2.713,4.115,7.74,1.402,11.227    C371.58,184.986,366.631,185.646,363.141,183.023z"/>
		<path d="M386.051,171.316c-24.613-54.071-57.117-24.172-84.527-47.191c-7.84-6.827-13.39-15.9-15.898-25.988    c-1.144-4.266,1.387-8.653,5.654-9.797c4.215-1.13,8.559,1.327,9.76,5.523c1.67,6.962,5.429,13.247,10.773,18.012    c18.961,15.92,61.033-8.145,88.801,52.809c1.799,4.036-0.016,8.766-4.052,10.565C392.572,177.026,387.894,175.276,386.051,171.316    z"/>
		<path d="M88,208c-4.418,0-8-3.582-8-8s3.582-8,8-8s8,3.582,8,8S92.418,208,88,208z"/>
	</g>
</g>















</svg>
