<?xml version="1.0" encoding="iso-8859-1"?>
<!-- Generator: Adobe Illustrator 19.0.0, SVG Export Plug-In . SVG Version: 6.00 Build 0)  -->
<svg version="1.1" id="Capa_1" xmlns="http://www.w3.org/2000/svg" xmlns:xlink="http://www.w3.org/1999/xlink" x="0px" y="0px"
	 viewBox="0 0 511.999 511.999" style="enable-background:new 0 0 511.999 511.999;" xml:space="preserve">
<g>
	<g>
		<path d="M379.847,420.942c-3.094-4.577-9.313-5.779-13.885-2.685l-0.315,0.213c-4.576,3.093-5.778,9.31-2.686,13.885
			c1.933,2.859,5.085,4.401,8.294,4.401c1.927,0,3.875-0.556,5.591-1.716l0.315-0.213
			C381.737,431.734,382.939,425.517,379.847,420.942z"/>
	</g>
</g>
<g>
	<g>
		<path d="M149.048,79.649c-3.083-4.582-9.297-5.797-13.88-2.714l-0.332,0.225c-4.576,3.093-5.778,9.31-2.686,13.885
			c1.933,2.859,5.085,4.401,8.294,4.401c1.927,0,3.875-0.556,5.591-1.716l0.299-0.201C150.916,90.445,152.131,84.231,149.048,79.649
			z"/>
	</g>
</g>
<g>
	<g>
		<path d="M511.999,256c0-68.38-26.629-132.667-74.98-181.02C388.667,26.629,324.38,0,256,0c-54.254,0-106.16,16.815-150.107,48.627
			c-4.475,3.238-5.476,9.49-2.237,13.964c3.239,4.475,9.491,5.475,13.964,2.237C158.134,35.501,205.984,20,256,20
			c130.13,0,235.999,105.869,235.999,236c0,59.692-22.024,115.992-62.208,159.648l-14.164-14.164
			c24.594-26.978,41.972-59.749,50.472-95.371c13.393-56.12,4.128-114.096-26.086-163.248
			C409.8,93.713,362.254,59.269,306.134,45.877c-48.841-11.655-100.542-5.852-145.584,16.334c-4.954,2.44-6.992,8.436-4.552,13.39
			c2.441,4.954,8.437,6.995,13.39,4.552C210.26,60.02,257.175,54.757,301.491,65.33C406.614,90.416,471.73,196.348,446.645,301.471
			c-7.642,32.021-23.207,61.491-45.194,85.838l-87.801-87.801c9.433-3.562,18.756-9.451,27.607-17.545
			c13.341-12.198,24.822-28.784,32.328-46.701c14.762-35.24,11.973-68.515-7.461-89.012c-0.518-0.545-1.094-1.03-1.72-1.446
			c-14.983-9.964-30.673-14.358-46.614-13.075c-5.505,0.444-9.607,5.267-9.163,10.772c0.445,5.505,5.267,9.594,10.772,9.163
			c11.192-0.903,21.982,2.092,32.955,9.155c13.115,14.686,14.179,39.512,2.783,66.715c-12.617,30.121-36.381,52.731-57.813,55.649
			l-64.787-64.787c11.474-13.984,23.912-28.42,36.822-40.163c4.086-3.716,4.385-10.041,0.669-14.126
			c-3.717-4.087-10.04-4.385-14.126-0.669c-13.391,12.181-25.991,26.678-37.577,40.746L51.639,37.496
			c-3.906-3.904-10.236-3.904-14.143,0c-3.905,3.905-3.905,10.237,0,14.143L68.058,82.2c-20.594,22.245-36.92,47.703-48.571,75.832
			C6.557,189.249,0,222.21,0,255.999c0,68.38,26.629,132.667,74.98,181.019c48.351,48.352,112.639,74.981,181.018,74.981
			c54.254,0,106.16-16.815,150.107-48.627c4.475-3.238,5.476-9.49,2.237-13.964c-3.239-4.475-9.491-5.475-13.964-2.237
			c-40.515,29.327-88.365,44.828-138.381,44.828C125.869,491.999,20,386.13,20,255.999c0-59.691,22.023-115.993,62.207-159.649
			l14.159,14.159c-24.592,26.976-41.969,59.745-50.468,95.364c-13.392,56.12-4.127,114.096,26.086,163.248
			c30.214,49.152,77.76,83.597,133.88,96.988c16.475,3.932,33.272,5.877,50.034,5.877c32.926-0.001,65.702-7.508,95.55-22.211
			c4.954-2.44,6.992-8.435,4.552-13.39c-2.44-4.953-8.434-6.993-13.39-4.552c-40.872,20.134-87.787,25.396-132.104,14.822
			C105.384,421.571,40.268,315.639,65.352,210.516c7.642-32.02,23.205-61.486,45.189-85.832l95.106,95.106
			c-11.023,13.642-21.421,26.397-30.332,34.541c-0.055,0.05-0.102,0.106-0.155,0.157c-0.056,0.053-0.115,0.099-0.17,0.153
			l-33.204,33.203c-22.708,22.709-22.708,59.659,0,82.368c10.964,10.963,25.59,17,41.184,17c15.595,0,30.221-6.037,41.184-17
			l33.204-33.204c1.875-1.876,2.929-4.419,2.929-7.071c0-2.652-1.054-5.195-2.929-7.071l-17.385-17.385
			c9.281-11.668,18.727-17.429,47.682-3.685L460.36,474.503c1.953,1.952,4.512,2.929,7.071,2.929c2.56,0,5.118-0.977,7.071-2.929
			c3.905-3.905,3.905-10.237,0-14.143l-30.563-30.563c20.594-22.244,36.921-47.702,48.572-75.832
			C505.442,322.749,511.999,289.789,511.999,256z M210.011,356.07c-7.186,7.185-16.788,11.142-27.041,11.142
			c-10.252,0-19.855-3.957-27.041-11.142c-14.91-14.91-14.91-39.173,0-54.083l26.133-26.132l54.082,54.082L210.011,356.07z
			 M225.762,291.271l-29.523-29.523c7.482-7.893,15.393-17.552,23.63-27.736l39.944,39.944
			C243.22,274.008,233.243,282.32,225.762,291.271z"/>
	</g>
</g>
<g>
	<g>
		<path d="M301.03,145.103c-2.509-4.92-8.533-6.874-13.452-4.362l-0.526,0.271c-4.893,2.563-6.781,8.607-4.219,13.498
			c1.787,3.413,5.266,5.363,8.867,5.363c1.564,0,3.15-0.368,4.631-1.144l0.337-0.174
			C301.587,156.045,303.541,150.023,301.03,145.103z"/>
	</g>
</g>
<g>
</g>
<g>
</g>
<g>
</g>
<g>
</g>
<g>
</g>
<g>
</g>
<g>
</g>
<g>
</g>
<g>
</g>
<g>
</g>
<g>
</g>
<g>
</g>
<g>
</g>
<g>
</g>
<g>
</g>
</svg>
