<svg id="Layer_1" height="512" viewBox="0 0 512 512" width="512" xmlns="http://www.w3.org/2000/svg" data-name="Layer 1"><path d="m256 454c84.916 0 154-69.084 154-154s-69.084-154-154-154-154 69.084-154 154 69.084 154 154 154zm0-296c78.3 0 142 63.7 142 142s-63.7 142-142 142-142-63.7-142-142 63.7-142 142-142z"/><path d="m256 409.829a109.829 109.829 0 1 0 -109.829-109.829 109.953 109.953 0 0 0 109.829 109.829zm-97.829-109.829a97.829 97.829 0 1 1 194.383 15.759c-7.519-.99-11.79-4.528-16.97-8.843-6.7-5.584-14.3-11.912-29.094-11.912s-22.39 6.328-29.09 11.912c-6.121 5.1-10.956 9.129-21.407 9.129s-15.288-4.029-21.409-9.129c-6.699-5.584-14.294-11.916-29.091-11.916s-22.393 6.332-29.093 11.915c-5.176 4.314-9.446 7.851-16.958 8.843a98.055 98.055 0 0 1 -1.271-15.758zm25.915 16.134c6.121-5.1 10.956-9.13 21.407-9.13s15.288 4.029 21.409 9.13c6.7 5.583 14.294 11.911 29.091 11.911s22.39-6.328 29.089-11.911c6.121-5.1 10.956-9.13 21.408-9.13s15.29 4.029 21.412 9.13c5.533 4.61 11.686 9.717 21.988 11.362a97.835 97.835 0 0 1 -187.78 0c10.295-1.648 16.447-6.754 21.976-11.362z"/><path d="m124.25 42a27.334 27.334 0 1 0 27.333 27.333 27.365 27.365 0 0 0 -27.333-27.333zm0 42.667a15.334 15.334 0 1 1 15.333-15.334 15.351 15.351 0 0 1 -15.333 15.334z"/><path d="m194.25 42a27.334 27.334 0 1 0 27.333 27.333 27.365 27.365 0 0 0 -27.333-27.333zm0 42.667a15.334 15.334 0 1 1 15.333-15.334 15.351 15.351 0 0 1 -15.333 15.334z"/><path d="m405 43h-92a10 10 0 0 0 -10 10v34a10 10 0 0 0 10 10h92a10 10 0 0 0 10-10v-34a10 10 0 0 0 -10-10zm-2 42h-88v-30h88z"/><path d="m411 10h-311a46 46 0 0 0 -46 46v400a46 46 0 0 0 46 46h311a46 46 0 0 0 46-46v-400a46 46 0 0 0 -46-46zm35 446c0 18.748-15.645 34-34.393 34h-311.207c-18.754 0-34.4-15.252-34.4-34v-334h380zm0-346h-380v-54c0-18.748 15.646-34 34.4-34h311.207c18.748 0 34.393 15.252 34.393 34z"/><path d="m85 229.4a6 6 0 0 0 6-6v-59.32a6 6 0 0 0 -12 0v59.32a6 6 0 0 0 6 6z"/><path d="m85 148.741a6 6 0 0 0 6-6v-6.268a6 6 0 0 0 -12 0v6.268a6 6 0 0 0 6 6z"/></svg>